<svg width="39" height="48" viewBox="0 0 39 48" fill="none" xmlns="http://www.w3.org/2000/svg">
<path fill-rule="evenodd" clip-rule="evenodd" d="M0 0H15.1696C28.1451 0 38.761 10.616 38.761 23.5914C38.761 36.5669 28.1451 47.1829 15.1696 47.1829H0V42.9369H15.1696C25.8014 42.9369 34.5152 34.2231 34.5152 23.5914C34.5152 12.9598 25.8014 4.24596 15.1696 4.24596H0V0ZM12.7375 12.7377V31.1738H8.49173C8.49173 23.6131 8.49173 16.0524 8.49173 8.49175H15.1696C23.4576 8.49175 30.2693 15.3034 30.2693 23.5914C30.2693 31.8795 23.4576 38.6911 15.1696 38.6911H0C0 28.6245 0 18.5584 0 8.49175H4.24577C4.24577 17.1427 4.24577 25.7942 4.24577 34.4452H15.1696C21.1138 34.4452 26.0235 29.5357 26.0235 23.5914C26.0235 17.6472 21.1138 12.7377 15.1696 12.7377H12.7375Z" fill="#D83135"/>
</svg>
