<svg width="160" height="63" viewBox="0 0 160 63" fill="none" xmlns="http://www.w3.org/2000/svg">
<path fill-rule="evenodd" clip-rule="evenodd" d="M0 0H20.2261C37.5268 0 51.6814 14.1546 51.6814 31.4553C51.6814 48.7559 37.5268 62.9105 20.2261 62.9105H0V57.2492H20.2261C34.4019 57.2492 46.0203 45.6308 46.0203 31.4553C46.0203 17.2797 34.4019 5.66128 20.2261 5.66128H0V0ZM16.9834 16.9836V41.565H11.3223C11.3223 31.4842 11.3223 21.4032 11.3223 11.3223H20.2261C31.2768 11.3223 40.359 20.4045 40.359 31.4553C40.359 42.506 31.2768 51.5882 20.2261 51.5882H0C0 38.166 0 24.7445 0 11.3223H5.66103C5.66103 22.857 5.66103 34.3923 5.66103 45.9269H20.2261C28.1518 45.9269 34.698 39.3809 34.698 31.4553C34.698 23.5296 28.1518 16.9836 20.2261 16.9836H16.9834Z" fill="#D83135"/>
<path d="M84.5649 21.3671C84.5649 24.2759 83.6319 26.8126 81.7663 28.9826C79.9055 31.1523 77.2957 32.2371 73.9359 32.2371C72.4214 32.2371 70.3354 32.1742 67.6729 32.0537C67.8039 28.9614 67.8722 25.4762 67.8722 21.5978C67.8722 17.8714 67.8039 14.69 67.6729 12.059H70.3616C70.8019 12.059 71.4569 12.0486 72.327 12.0171C73.1972 11.9855 73.7632 11.9698 74.0303 11.9698C77.7254 11.9698 80.4036 12.8924 82.0649 14.7319C83.7317 16.5769 84.5649 18.7886 84.5649 21.3671ZM80.372 22.0275C80.372 20.0621 79.7956 18.4058 78.653 17.0589C77.5051 15.7119 75.7548 15.0412 73.4014 15.0412C72.9611 15.0412 72.3532 15.0883 71.588 15.1775C71.6876 17.2267 71.74 19.3652 71.74 21.5978C71.74 24.0452 71.7925 26.472 71.8973 28.8776C72.5628 29.0087 73.2233 29.0767 73.8889 29.0767C76.0902 29.0767 77.72 28.3902 78.7841 27.0275C79.8427 25.6596 80.372 23.993 80.372 22.0275ZM101.148 28.6733L101.022 32.0537H87.9559C88.087 28.9614 88.1553 25.4762 88.1553 21.5978C88.1553 17.8714 88.087 14.69 87.9559 12.059H100.425L100.257 15.4239C97.1854 15.2612 94.3974 15.1775 91.9026 15.1775C92.0022 16.603 92.0544 18.2802 92.0544 20.2141C94.1929 20.2141 96.4832 20.1564 98.9203 20.0463V23.254C96.5253 23.1544 94.2348 23.1019 92.0544 23.1019C92.0544 25.1776 92.0966 27.127 92.1804 28.9353C94.9844 28.9353 97.9718 28.8515 101.148 28.6733ZM118.847 28.4165L118.59 31.9436C117.133 32.2948 115.702 32.4677 114.287 32.4677C110.776 32.4677 108.103 31.4983 106.263 29.559C104.429 27.6198 103.512 25.2613 103.512 22.4888C103.512 19.6113 104.486 17.1062 106.436 14.9783C108.386 12.8505 111.059 11.7864 114.46 11.7864C115.708 11.7864 116.887 11.9279 118.003 12.2162L117.469 15.7644C116.258 15.3714 115.105 15.1775 113.999 15.1775C111.918 15.1775 110.372 15.8379 109.361 17.1533C108.344 18.4689 107.841 20.0675 107.841 21.9489C107.841 23.8725 108.444 25.5442 109.644 26.9543C110.849 28.3692 112.531 29.0767 114.701 29.0767C115.975 29.0767 117.353 28.8566 118.847 28.4165ZM140.419 21.687C140.419 24.8316 139.46 27.4363 137.532 29.5065C135.608 31.5715 133.229 32.604 130.393 32.604C127.689 32.604 125.43 31.6555 123.606 29.7581C121.782 27.8609 120.875 25.4447 120.875 22.5201C120.875 19.3755 121.834 16.7708 123.758 14.7004C125.686 12.6356 128.066 11.6031 130.902 11.6031C133.601 11.6031 135.865 12.5464 137.689 14.4436C139.507 16.3357 140.419 18.7518 140.419 21.687ZM136.184 22.1323C136.184 19.994 135.634 18.2592 134.539 16.928C133.443 15.5966 132.091 14.931 130.487 14.931C128.989 14.931 127.72 15.602 126.677 16.9436C125.634 18.2854 125.11 19.9783 125.11 22.0275C125.11 24.1554 125.66 25.8902 126.761 27.2268C127.862 28.558 129.209 29.2287 130.807 29.2287C132.301 29.2287 133.569 28.558 134.617 27.211C135.66 25.8641 136.184 24.1712 136.184 22.1323ZM160 32.0537H155.456C154.266 28.4321 153.354 26.1943 152.72 25.3451C152.086 24.4962 151.064 24.0716 149.649 24.0716C149.057 24.0716 148.491 24.0768 147.945 24.082C147.945 26.713 147.993 29.3702 148.082 32.0537H143.815C143.946 28.9614 144.015 25.4762 144.015 21.5978C144.015 17.8714 143.946 14.69 143.815 12.059H146.473C146.777 12.059 147.421 12.0486 148.396 12.0171C149.376 11.9855 150.278 11.9698 151.111 11.9698C155.807 11.9698 158.155 13.5789 158.155 16.7918C158.155 19.3388 156.813 21.1155 154.135 22.1167V22.3471C155.168 22.6355 156.074 23.4427 156.85 24.7687C157.631 26.0947 158.679 28.5213 160 32.0537ZM154.24 17.929C154.24 15.8901 152.93 14.8734 150.309 14.8734C149.35 14.8734 148.496 14.9416 147.762 15.0883C147.872 16.671 147.93 18.7415 147.93 21.2885C148.491 21.3094 148.967 21.3201 149.355 21.3201C152.615 21.3201 154.24 20.188 154.24 17.929Z" fill="#373435"/>
<path d="M76.8688 40.3856C76.8688 40.8408 76.1792 42.6107 74.8028 45.7042C73.4265 48.795 72.7397 50.5733 72.7397 51.0367H71.6759C71.6759 50.618 71.0254 48.8536 69.7243 45.7461C68.4235 42.6359 67.7729 40.8519 67.7729 40.3856H69.3279C69.3279 40.8128 69.8248 42.3262 70.8161 44.9309C71.81 47.5358 72.304 49.0237 72.304 49.4008H72.3878C72.3878 48.9764 72.8875 47.4911 73.8927 44.9476C74.8948 42.4043 75.3976 40.8827 75.3976 40.3856H76.8688ZM88.0445 51.0367H86.4921C86.573 49.2694 86.6149 47.4045 86.6149 45.4418C86.6149 43.5126 86.573 41.8263 86.4921 40.3856H88.0445C87.9689 41.8766 87.9299 43.5601 87.9299 45.4418C87.9299 47.4158 87.9689 49.2807 88.0445 51.0367ZM105.331 48.2812C105.331 50.2968 103.927 51.3076 101.121 51.3076C100.094 51.3076 99.1837 51.1902 98.388 50.9558L98.6756 49.6714C99.5914 49.987 100.46 50.1461 101.283 50.1461C103.137 50.1461 104.064 49.6213 104.064 48.5742C104.064 48.0465 103.824 47.5944 103.344 47.2174C103.023 46.9662 102.392 46.6311 101.448 46.2095C100.454 45.7685 99.7587 45.3637 99.3623 44.9923C98.8095 44.4785 98.536 43.8365 98.536 43.0631C98.536 42.2534 98.8151 41.5973 99.3791 41.0894C100.004 40.5224 100.892 40.2404 102.037 40.2404C103.335 40.2404 104.223 40.3242 104.703 40.4946L104.505 41.7928C103.679 41.5332 102.796 41.4019 101.864 41.4019C100.462 41.4019 99.7615 41.871 99.7615 42.8091C99.7615 43.2612 99.9653 43.6411 100.367 43.9454C100.63 44.1351 101.208 44.4256 102.101 44.8137C103.12 45.2547 103.857 45.6734 104.31 46.0728C104.991 46.673 105.331 47.4073 105.331 48.2812ZM124.213 40.3856C124.193 41.4186 124.176 42.3791 124.165 43.2754C124.154 44.1688 124.148 45.0034 124.148 45.7767C124.148 49.4314 122.705 51.2572 119.821 51.2572C119.07 51.2572 118.425 51.1511 117.886 50.9334C117.35 50.7185 116.909 50.389 116.563 49.9451C116.217 49.5012 115.963 48.9399 115.801 48.2645C115.642 47.5888 115.561 46.7876 115.561 45.8662C115.561 45.0594 115.555 44.2022 115.544 43.2949C115.533 42.3874 115.516 41.4186 115.494 40.3856H117.049C116.985 42.4657 116.951 44.0932 116.951 45.2714C116.951 46.218 116.996 46.9912 117.09 47.5887C117.183 48.1863 117.347 48.6832 117.585 49.0823C117.822 49.4789 118.121 49.7608 118.481 49.9284C118.841 50.0958 119.299 50.1767 119.854 50.1767C120.438 50.1767 120.913 50.0958 121.278 49.9284C121.641 49.7608 121.94 49.4871 122.169 49.1018C122.398 48.7166 122.563 48.2254 122.66 47.6222C122.758 47.0192 122.806 46.2291 122.806 45.2547C122.806 44.6769 122.797 43.9845 122.778 43.1803C122.758 42.3763 122.73 41.4438 122.694 40.3856H124.213ZM143.635 51.0367H141.91C141.91 50.671 141.566 49.5236 140.88 47.5944H136.159C135.483 49.4956 135.145 50.643 135.145 51.0367H133.492C133.492 50.8357 134.196 49.0908 135.603 45.8047C137.01 42.5215 137.714 40.7151 137.714 40.3856H139.612C139.612 40.7095 140.282 42.4881 141.622 45.7294C142.965 48.9679 143.635 50.738 143.635 51.0367ZM140.503 46.5223C139.221 43.3201 138.579 41.6196 138.579 41.4186H138.49C138.49 41.5862 137.828 43.2892 136.502 46.5223H140.503ZM159.744 49.8333L159.694 51.0367H153.258C153.323 49.6909 153.356 47.826 153.356 45.4418C153.356 43.3926 153.323 41.7062 153.258 40.3856H154.78C154.713 41.4885 154.682 43.1749 154.682 45.4418C154.682 47.3068 154.652 48.8004 154.59 49.9256C156.226 49.9256 157.946 49.8948 159.744 49.8333Z" fill="#D83135"/>
</svg>
