<svg width="120" height="48" viewBox="0 0 120 48" fill="none" xmlns="http://www.w3.org/2000/svg">
<path fill-rule="evenodd" clip-rule="evenodd" d="M0 0H15.1696C28.1451 0 38.761 10.616 38.761 23.5914C38.761 36.5669 28.1451 47.1829 15.1696 47.1829H0V42.9369H15.1696C25.8014 42.9369 34.5152 34.2231 34.5152 23.5914C34.5152 12.9598 25.8014 4.24596 15.1696 4.24596H0V0ZM12.7375 12.7377V31.1738H8.49173C8.49173 23.6131 8.49173 16.0524 8.49173 8.49175H15.1696C23.4576 8.49175 30.2693 15.3034 30.2693 23.5914C30.2693 31.8795 23.4576 38.6911 15.1696 38.6911H0C0 28.6245 0 18.5584 0 8.49175H4.24577C4.24577 17.1427 4.24577 25.7942 4.24577 34.4452H15.1696C21.1138 34.4452 26.0235 29.5357 26.0235 23.5914C26.0235 17.6472 21.1138 12.7377 15.1696 12.7377H12.7375Z" fill="white"/>
<path d="M63.4237 16.0254C63.4237 18.2069 62.724 20.1094 61.3248 21.7369C59.9292 23.3643 57.9718 24.1778 55.452 24.1778C54.3161 24.1778 52.7516 24.1307 50.7547 24.0403C50.853 21.7211 50.9042 19.1072 50.9042 16.1983C50.9042 13.4035 50.853 11.0175 50.7547 9.04425H52.7712C53.1015 9.04425 53.5928 9.03648 54.2453 9.01282C54.8979 8.98917 55.3225 8.97735 55.5228 8.97735C58.2941 8.97735 60.3027 9.6693 61.5488 11.049C62.7989 12.4327 63.4237 14.0914 63.4237 16.0254ZM60.2791 16.5207C60.2791 15.0466 59.8468 13.8044 58.9898 12.7942C58.1289 11.784 56.8161 11.2809 55.0511 11.2809C54.7209 11.2809 54.2649 11.3162 53.6911 11.3831C53.7657 12.9201 53.8051 14.5239 53.8051 16.1983C53.8051 18.034 53.8445 19.854 53.923 21.6582C54.4222 21.7565 54.9175 21.8075 55.4167 21.8075C57.0677 21.8075 58.2901 21.2927 59.0881 20.2706C59.8821 19.2447 60.2791 17.9948 60.2791 16.5207ZM75.861 21.505L75.7666 24.0403H65.967C66.0653 21.7211 66.1165 19.1072 66.1165 16.1983C66.1165 13.4035 66.0653 11.0175 65.967 9.04425H75.3186L75.1927 11.5679C72.8891 11.4459 70.7981 11.3831 68.927 11.3831C69.0017 12.4523 69.0409 13.7101 69.0409 15.1606C70.6447 15.1606 72.3624 15.1173 74.1903 15.0347V17.4405C72.394 17.3658 70.6761 17.3265 69.0409 17.3265C69.0409 18.8832 69.0725 20.3453 69.1353 21.7015C71.2384 21.7015 73.4789 21.6386 75.861 21.505ZM89.1353 21.3124L88.9428 23.9577C87.8499 24.2211 86.7769 24.3508 85.7155 24.3508C83.0818 24.3508 81.0771 23.6237 79.6975 22.1692C78.3217 20.7149 77.6338 18.946 77.6338 16.8666C77.6338 14.7085 78.3649 12.8297 79.8272 11.2338C81.2895 9.63788 83.2942 8.83984 85.8452 8.83984C86.7808 8.83984 87.6651 8.94592 88.5025 9.16216L88.1015 11.8233C87.1935 11.5286 86.3287 11.3831 85.4992 11.3831C83.9388 11.3831 82.7791 11.8784 82.0206 12.865C81.2579 13.8517 80.8806 15.0506 80.8806 16.4617C80.8806 17.9044 81.3327 19.1582 82.2328 20.2157C83.1369 21.2769 84.3987 21.8075 86.026 21.8075C86.9813 21.8075 88.015 21.6425 89.1353 21.3124ZM105.315 16.2652C105.315 18.6237 104.595 20.5772 103.149 22.1299C101.706 23.6786 99.9215 24.453 97.795 24.453C95.7666 24.453 94.0724 23.7417 92.7045 22.3186C91.3365 20.8957 90.6566 19.0835 90.6566 16.8901C90.6566 14.5317 91.3759 12.5781 92.8184 11.0253C94.2649 9.47671 96.0495 8.70233 98.1762 8.70233C100.201 8.70233 101.899 9.40982 103.267 10.8327C104.631 12.2518 105.315 14.0639 105.315 16.2652ZM102.138 16.5992C102.138 14.9955 101.726 13.6944 100.904 12.696C100.083 11.6975 99.0685 11.1983 97.8656 11.1983C96.7415 11.1983 95.7902 11.7015 95.0079 12.7077C94.2257 13.714 93.8326 14.9837 93.8326 16.5207C93.8326 18.1166 94.2454 19.4177 95.0708 20.4201C95.8963 21.4185 96.9065 21.9216 98.1054 21.9216C99.2256 21.9216 100.177 21.4185 100.963 20.4083C101.745 19.3981 102.138 18.1284 102.138 16.5992ZM120 24.0403H116.592C115.7 21.3241 115.016 19.6457 114.54 19.0089C114.064 18.3722 113.298 18.0537 112.237 18.0537C111.792 18.0537 111.368 18.0576 110.959 18.0615C110.959 20.0348 110.995 22.0277 111.061 24.0403H107.862C107.96 21.7211 108.011 19.1072 108.011 16.1983C108.011 13.4035 107.96 11.0175 107.862 9.04425H109.855C110.083 9.04425 110.566 9.03648 111.297 9.01282C112.032 8.98917 112.708 8.97735 113.333 8.97735C116.855 8.97735 118.616 10.1842 118.616 12.5938C118.616 14.5041 117.61 15.8367 115.601 16.5876V16.7604C116.376 16.9766 117.056 17.5821 117.638 18.5766C118.223 19.5711 119.009 21.391 120 24.0403ZM115.68 13.4468C115.68 11.9176 114.697 11.1551 112.732 11.1551C112.013 11.1551 111.372 11.2062 110.822 11.3162C110.904 12.5033 110.947 14.0561 110.947 15.9664C111.368 15.9821 111.726 15.9901 112.016 15.9901C114.461 15.9901 115.68 15.141 115.68 13.4468Z" fill="white"/>
<path d="M57.6516 30.2892C57.6516 30.6306 57.1344 31.958 56.1021 34.2782C55.0698 36.5962 54.5548 37.93 54.5548 38.2775H53.7569C53.7569 37.9635 53.269 36.6402 52.2932 34.3096C51.3176 31.9769 50.8297 30.6389 50.8297 30.2892H51.996C51.996 30.6096 52.3686 31.7446 53.1121 33.6981C53.8575 35.6518 54.228 36.7678 54.228 37.0505H54.2909C54.2909 36.7323 54.6656 35.6183 55.4195 33.7107C56.1711 31.8032 56.5482 30.662 56.5482 30.2892H57.6516ZM66.0334 38.2775H64.8691C64.9298 36.952 64.9612 35.5533 64.9612 34.0813C64.9612 32.6344 64.9298 31.3697 64.8691 30.2892H66.0334C65.9767 31.4074 65.9474 32.6701 65.9474 34.0813C65.9474 35.5618 65.9767 36.9605 66.0334 38.2775ZM78.9986 36.2109C78.9986 37.7226 77.9453 38.4807 75.8409 38.4807C75.0704 38.4807 74.3878 38.3926 73.791 38.2168L74.0067 37.2535C74.6935 37.4903 75.3447 37.6096 75.9623 37.6096C77.3528 37.6096 78.0479 37.2159 78.0479 36.4306C78.0479 36.0349 77.8678 35.6958 77.5077 35.413C77.267 35.2247 76.7937 34.9733 76.0859 34.6571C75.3405 34.3264 74.819 34.0227 74.5218 33.7442C74.1071 33.3589 73.902 32.8773 73.902 32.2973C73.902 31.6901 74.1114 31.1979 74.5343 30.817C75.0033 30.3918 75.6693 30.1803 76.5277 30.1803C77.5014 30.1803 78.1672 30.2431 78.5275 30.3709L78.3787 31.3446C77.7589 31.1499 77.0973 31.0514 76.398 31.0514C75.3468 31.0514 74.8211 31.4032 74.8211 32.1068C74.8211 32.4459 74.974 32.7308 75.2755 32.959C75.4725 33.1013 75.9058 33.3191 76.5759 33.6102C77.3402 33.941 77.8929 34.255 78.2322 34.5546C78.743 35.0047 78.9986 35.5555 78.9986 36.2109ZM93.1594 30.2892C93.1447 31.0639 93.1322 31.7843 93.1239 32.4565C93.1154 33.1266 93.1112 33.7525 93.1112 34.3325C93.1112 37.0735 92.0288 38.4429 89.8657 38.4429C89.3025 38.4429 88.8188 38.3633 88.4146 38.2C88.0127 38.0389 87.6817 37.7917 87.422 37.4588C87.1624 37.1259 86.9719 36.7049 86.8505 36.1983C86.7311 35.6916 86.6704 35.0907 86.6704 34.3996C86.6704 33.7945 86.6662 33.1516 86.6579 32.4712C86.6494 31.7905 86.6369 31.0639 86.6201 30.2892H87.7864C87.7384 31.8493 87.7131 33.0699 87.7131 33.9535C87.7131 34.6635 87.7467 35.2434 87.8178 35.6915C87.887 36.1397 88.0106 36.5124 88.1885 36.8117C88.3664 37.1092 88.5906 37.3206 88.8607 37.4463C89.1307 37.5718 89.4741 37.6325 89.8908 37.6325C90.3284 37.6325 90.6844 37.5718 90.9587 37.4463C91.2309 37.3206 91.4549 37.1153 91.6267 36.8264C91.7984 36.5374 91.922 36.169 91.9953 35.7166C92.0685 35.2644 92.1042 34.6718 92.1042 33.941C92.1042 33.5077 92.0978 32.9883 92.0832 32.3852C92.0685 31.7822 92.0475 31.0828 92.0203 30.2892H93.1594ZM107.726 38.2775H106.433C106.433 38.0032 106.175 37.1427 105.66 35.6958H102.119C101.612 37.1217 101.359 37.9822 101.359 38.2775H100.119C100.119 38.1268 100.647 36.8181 101.702 34.3535C102.758 31.8911 103.285 30.5363 103.285 30.2892H104.709C104.709 30.5321 105.212 31.866 106.217 34.297C107.224 36.7259 107.726 38.0535 107.726 38.2775ZM105.377 34.8917C104.416 32.49 103.934 31.2147 103.934 31.064H103.867C103.867 31.1896 103.371 32.4669 102.376 34.8917H105.377ZM119.808 37.375L119.77 38.2775H114.944C114.992 37.2682 115.017 35.8695 115.017 34.0813C115.017 32.5444 114.992 31.2796 114.944 30.2892H116.085C116.035 31.1164 116.012 32.3811 116.012 34.0813C116.012 35.4801 115.989 36.6002 115.943 37.4442C117.17 37.4442 118.46 37.4211 119.808 37.375Z" fill="white"/>
</svg>
