<svg width="89" height="48" viewBox="0 0 89 48" fill="none" xmlns="http://www.w3.org/2000/svg">
<path fill-rule="evenodd" clip-rule="evenodd" d="M33.4668 47.1498V46.2008C33.7388 46.3251 33.9889 46.4181 34.215 46.4861C34.45 46.5538 34.6413 46.5879 34.7928 46.5879C35.0078 46.5879 35.1685 46.5579 35.2766 46.5057C35.3848 46.451 35.4373 46.376 35.4373 46.2616C35.4373 46.1721 35.3971 46.0927 35.3155 46.0219C35.2352 45.9526 35.0521 45.8571 34.7618 45.7366C34.7362 45.7293 34.6847 45.7075 34.6199 45.6778C33.8037 45.3413 33.3906 44.9077 33.3906 44.3749C33.3906 43.9711 33.5417 43.647 33.8476 43.4029C34.1461 43.1568 34.5458 43.0313 35.0429 43.0313C35.3086 43.0313 35.5596 43.059 35.7993 43.1175C36.0403 43.1742 36.2721 43.2608 36.496 43.3753V44.3129C36.2183 44.1624 35.9632 44.0546 35.7406 43.9875C35.5227 43.9145 35.3187 43.8847 35.1353 43.8847C34.9696 43.8806 34.8472 43.9094 34.7567 43.9648C34.6714 44.0236 34.6299 44.1042 34.6299 44.2121C34.6299 44.3487 34.8729 44.5165 35.3567 44.7174C35.5534 44.7958 35.7109 44.8597 35.824 44.9131C36.1371 45.0478 36.3645 45.2075 36.5027 45.3992C36.6497 45.5864 36.7186 45.822 36.7186 46.1022C36.7186 46.5386 36.5663 46.8823 36.2617 47.1148C35.955 47.3548 35.5226 47.4743 34.9657 47.4743C34.6856 47.4743 34.4231 47.4465 34.1717 47.394C33.9197 47.3415 33.6882 47.2621 33.4668 47.1498ZM29.944 44.8287L31.6014 44.8237C31.5767 44.5485 31.4913 44.3326 31.3494 44.1792C31.2071 44.0236 31.0207 43.9455 30.7994 43.9455C30.5666 43.9455 30.3766 44.0236 30.2261 44.1792C30.0749 44.3326 29.9804 44.5516 29.944 44.8287ZM32.8533 46.9111C32.5621 47.1024 32.2554 47.2438 31.935 47.3342C31.6138 47.4215 31.2658 47.4743 30.9015 47.4743C30.1689 47.4743 29.5943 47.2672 29.1772 46.8659C28.7626 46.4664 28.5503 45.9137 28.5503 45.1981C28.5503 44.5463 28.7572 44.0185 29.1629 43.6232C29.5738 43.2298 30.116 43.0313 30.7925 43.0313C31.4616 43.0313 31.9876 43.2453 32.3759 43.6738C32.762 44.1007 32.952 44.6896 32.952 45.4381V45.4833H29.9339V45.5029C29.9339 45.8365 30.0512 46.1038 30.2817 46.3026C30.5123 46.5013 30.8244 46.6012 31.2279 46.6012C31.5014 46.6012 31.7674 46.55 32.0432 46.451C32.3079 46.3615 32.5817 46.2164 32.8533 46.026V46.9111ZM23.4239 45.2537C23.4239 44.5982 23.6444 44.0625 24.0767 43.6488C24.508 43.2403 25.0721 43.0313 25.7618 43.0313C26.4595 43.0313 27.0217 43.2434 27.4631 43.6549C27.8957 44.0678 28.113 44.6042 28.113 45.2537C28.113 45.9074 27.8957 46.4342 27.4631 46.8454C27.028 47.2552 26.4607 47.4658 25.7618 47.4658C25.0731 47.4658 24.508 47.2599 24.0767 46.8494C23.6444 46.4408 23.4239 45.9106 23.4239 45.2537ZM24.8074 45.2537C24.8074 45.6152 24.8982 45.9106 25.0731 46.1237C25.246 46.3419 25.4788 46.4487 25.766 46.4487C26.056 46.4487 26.2887 46.3419 26.4608 46.1237C26.6337 45.9106 26.72 45.6152 26.72 45.2537C26.72 44.8882 26.6337 44.5982 26.4608 44.3759C26.2836 44.1577 26.056 44.0464 25.766 44.0464C25.482 44.0464 25.2514 44.1577 25.0731 44.3759C24.8982 44.595 24.8074 44.8895 24.8074 45.2537ZM17.7994 47.1869C17.5976 47.2818 17.3845 47.352 17.1581 47.394C16.9377 47.4392 16.697 47.4658 16.4364 47.4658C15.6715 47.4658 15.0672 47.2672 14.6185 46.8659C14.1735 46.4715 13.9493 45.9343 13.9493 45.2537C13.9493 44.5827 14.1734 44.0432 14.6143 43.6355C15.0539 43.2288 15.643 43.0275 16.3776 43.0275C16.6176 43.0275 16.84 43.0508 17.0633 43.0951C17.2868 43.1403 17.5028 43.2093 17.7241 43.3042V44.3487C17.4958 44.2563 17.29 44.1883 17.1005 44.1431C16.9161 44.0967 16.7428 44.0751 16.5813 44.0751C16.1974 44.0751 15.8979 44.1782 15.6807 44.385C15.4656 44.595 15.3577 44.8834 15.3577 45.2537C15.3577 45.6285 15.4656 45.9175 15.6921 46.1228C15.9084 46.3286 16.2261 46.4295 16.6372 46.4295C16.8184 46.4273 16.9962 46.4077 17.1856 46.3615C17.3718 46.3163 17.579 46.2442 17.8004 46.1465V47.1869H17.7994ZM6.57153 45.2537C6.57153 44.5982 6.78565 44.0625 7.21705 43.6488C7.65022 43.2403 8.21886 43.0313 8.90632 43.0313C9.60239 43.0313 10.1716 43.2434 10.6045 43.6549C11.0403 44.0678 11.2598 44.6042 11.2598 45.2537C11.2598 45.9074 11.0403 46.4342 10.6067 46.8454C10.1716 47.2552 9.60329 47.4658 8.90632 47.4658C8.21886 47.4658 7.65022 47.2599 7.21705 46.8494C6.78475 46.4408 6.57153 45.9106 6.57153 45.2537ZM7.95507 45.2537C7.95507 45.6152 8.03731 45.9106 8.21757 46.1237C8.39147 46.3419 8.62112 46.4487 8.90945 46.4487C9.19788 46.4487 9.43443 46.3419 9.60929 46.1237C9.77813 45.9106 9.86674 45.6152 9.86674 45.2537C9.86674 44.8882 9.77812 44.5982 9.60325 44.3759C9.42905 44.1577 9.19788 44.0464 8.90945 44.0464C8.62425 44.0464 8.39146 44.1577 8.21882 44.3759C8.03729 44.595 7.95507 44.8895 7.95507 45.2537Z" fill="#E8E8E8"/>
<path fill-rule="evenodd" clip-rule="evenodd" d="M27.1194 41.2487C27.0504 41.6007 26.9445 41.8619 26.7961 42.0235C26.6541 42.1882 26.4606 42.2686 26.2237 42.2686C26.1776 42.2686 26.127 42.2686 26.0767 42.2594C26.0192 42.2499 25.9664 42.2417 25.9138 42.2256L25.5322 42.1111C25.4733 42.0997 25.4199 42.0874 25.3705 42.075C25.3222 42.0709 25.283 42.0659 25.2513 42.0659C25.1482 42.0659 25.073 42.0915 25.0072 42.1389C24.9433 42.1914 24.8981 42.2686 24.8621 42.3704H24.4143C24.4738 42.0381 24.5736 41.7951 24.7147 41.6336C24.8586 41.4688 25.0452 41.3863 25.2748 41.3863C25.3177 41.3863 25.3683 41.3894 25.4278 41.3977C25.4856 41.4091 25.5577 41.4236 25.6536 41.4464L26.0511 41.5615C26.0919 41.5716 26.1302 41.5807 26.1672 41.5807C26.2054 41.5884 26.2433 41.5884 26.2794 41.5884C26.3752 41.5884 26.4587 41.5592 26.5236 41.4976C26.5935 41.4359 26.6409 41.3556 26.6656 41.2474H27.1194V41.2487Z" fill="#E8E8E8"/>
<path fill-rule="evenodd" clip-rule="evenodd" d="M18.533 47.3804V41.0922H19.8754V43.6549C20.0888 43.4339 20.3049 43.2773 20.5354 43.1786C20.759 43.0809 21.0242 43.0313 21.3228 43.0313C21.7882 43.0313 22.1475 43.1742 22.3926 43.4566C22.6446 43.7387 22.7642 44.1473 22.7642 44.6836V47.3804H21.4214V44.8689C21.4214 44.5659 21.3734 44.3417 21.2757 44.2029C21.177 44.0597 21.0284 43.9929 20.8247 43.9929C20.6362 43.9929 20.4636 44.0473 20.3017 44.1624C20.1461 44.277 20.0013 44.4454 19.8745 44.6659V47.3804H18.533Z" fill="#E8E8E8"/>
<path fill-rule="evenodd" clip-rule="evenodd" d="M11.9297 47.3805H13.273V41.092H11.9297V47.3805Z" fill="#E8E8E8"/>
<path fill-rule="evenodd" clip-rule="evenodd" d="M6.06703 46.8568C5.68693 47.0696 5.30113 47.2293 4.90776 47.3343C4.5115 47.4393 4.09063 47.4918 3.66146 47.4918C3.16939 47.4918 2.71623 47.4168 2.30323 47.2673C1.89403 47.1149 1.53166 46.8935 1.2236 46.6054C0.904564 46.3028 0.658512 45.9476 0.496045 45.5482C0.330278 45.1393 0.246826 44.7052 0.246826 44.2387C0.246826 43.2619 0.568997 42.4767 1.2236 41.8784C1.8782 41.2804 2.73713 40.9828 3.80729 40.9828C4.19466 40.9828 4.56806 41.023 4.92729 41.1064C5.29289 41.1918 5.65624 41.3215 6.01167 41.4922V42.9719C5.66447 42.7423 5.31441 42.5753 4.96558 42.4653C4.61238 42.3508 4.26139 42.2983 3.91349 42.2983C3.27856 42.2983 2.78114 42.4653 2.41271 42.8153C2.04838 43.1619 1.86907 43.6356 1.86907 44.2387C1.86907 44.8288 2.03984 45.3012 2.39214 45.646C2.73367 46.0011 3.2042 46.1721 3.7911 46.1721C4.1709 46.1721 4.55103 46.1092 4.92729 45.9723C5.31246 45.8414 5.68693 45.6427 6.06703 45.3835V46.8568Z" fill="#E8E8E8"/>
<path fill-rule="evenodd" clip-rule="evenodd" d="M42.3503 43.3115C42.5583 43.1961 42.7137 43.0797 42.8117 42.9501C42.9103 42.8264 42.9587 42.6895 42.9587 42.5361C42.9587 42.379 42.9044 42.2471 42.8003 42.1462C42.6965 42.0523 42.5542 42.0033 42.3785 42.0033C42.2073 42.0033 42.0663 42.0481 41.955 42.1326C41.8427 42.2256 41.7883 42.3375 41.7883 42.4713C41.7883 42.5753 41.8308 42.6948 41.9221 42.8201C42.0003 42.945 42.1476 43.1094 42.3503 43.3115ZM44.0242 47.3805L43.5785 46.8906C43.2782 47.0911 42.9647 47.2407 42.6305 47.3416C42.3051 47.4393 41.9613 47.4918 41.6116 47.4918C41.0278 47.4918 40.5532 47.3343 40.1794 47.0162C39.8059 46.6952 39.6143 46.2945 39.6143 45.8139C39.6143 45.4505 39.7234 45.1168 39.9435 44.8225C40.1639 44.5211 40.5139 44.2327 40.9949 43.9455C40.7704 43.648 40.6129 43.4038 40.5326 43.2063C40.4419 43.0117 40.3976 42.8201 40.3976 42.6256C40.3976 42.1389 40.5807 41.7496 40.937 41.442C41.3017 41.132 41.7742 40.9828 42.3576 40.9828C42.9044 40.9828 43.3458 41.1156 43.6754 41.3895C44.0055 41.657 44.1724 42.0133 44.1724 42.4497C44.1724 42.7789 44.0839 43.0756 43.8964 43.3435C43.7133 43.6027 43.4293 43.8592 43.0454 44.0958L43.8964 45.0717C44.0985 44.8079 44.2505 44.6033 44.3483 44.4601C44.4444 44.3203 44.5152 44.1925 44.5573 44.0958H45.9781C45.7589 44.5417 45.5436 44.918 45.3431 45.2199C45.1328 45.5175 44.9241 45.7686 44.7015 45.9723L45.9225 47.3805H44.0242ZM42.8117 46.0381L41.7431 44.8042C41.5154 44.9553 41.3519 45.0973 41.2606 45.2314C41.1635 45.3632 41.1183 45.5081 41.1183 45.6709C41.1183 45.8809 41.184 46.058 41.3209 46.1968C41.4673 46.3337 41.6432 46.4058 41.8636 46.4058C42.0189 46.4058 42.1764 46.3761 42.3351 46.3129C42.4913 46.2503 42.6561 46.1608 42.8117 46.0381Z" fill="#E8E8E8"/>
<path fill-rule="evenodd" clip-rule="evenodd" d="M66.667 47.1499V46.2009C66.9323 46.3252 67.1857 46.4182 67.4146 46.4862C67.6429 46.5539 67.8352 46.588 67.9917 46.588C68.2067 46.588 68.3633 46.558 68.4724 46.5058C68.5767 46.4511 68.6384 46.3761 68.6384 46.2616C68.6384 46.1721 68.5941 46.0927 68.5128 46.0219C68.4303 45.9527 68.2462 45.8572 67.9579 45.7367C67.9328 45.7294 67.8816 45.7076 67.8146 45.6779C66.9984 45.3414 66.5889 44.9078 66.5889 44.375C66.5889 43.9712 66.7378 43.647 67.0427 43.4029C67.3475 43.1569 67.7406 43.0314 68.2396 43.0314C68.5106 43.0314 68.763 43.0591 68.9974 43.1176C69.2415 43.1743 69.472 43.2609 69.6915 43.3754V44.313C69.4135 44.1625 69.1615 44.0547 68.9388 43.9876C68.7174 43.9145 68.5157 43.8848 68.3294 43.8848C68.1666 43.8807 68.0392 43.9095 67.9566 43.9648C67.8693 44.0237 67.8228 44.1043 67.8228 44.2122C67.8228 44.3488 68.0692 44.5166 68.5539 44.7175C68.7548 44.7959 68.9072 44.8598 69.021 44.9132C69.3331 45.0479 69.5567 45.2076 69.7015 45.3993C69.8467 45.5865 69.9138 45.8221 69.9138 46.1022C69.9138 46.5386 69.7626 46.8824 69.4568 47.1149C69.1574 47.3549 68.7225 47.4744 68.1596 47.4744C67.8826 47.4744 67.6169 47.4465 67.3671 47.3941C67.1157 47.3416 66.8811 47.2622 66.667 47.1499Z" fill="#E8E8E8"/>
<path fill-rule="evenodd" clip-rule="evenodd" d="M63.2825 42.5269L64.2049 40.9635H65.2045L63.8773 42.5269H63.2825Z" fill="#E8E8E8"/>
<path fill-rule="evenodd" clip-rule="evenodd" d="M64.4363 46.9874C64.2332 47.1449 64.0226 47.2673 63.806 47.3467C63.5868 47.4216 63.3544 47.4659 63.1052 47.4659C62.6945 47.4659 62.3858 47.3631 62.1746 47.1635C61.9637 46.9659 61.8606 46.667 61.8606 46.2771C61.8606 45.9344 62.0158 45.6542 62.327 45.4309C62.635 45.2117 63.313 44.9471 64.3661 44.6444C64.3673 44.628 64.3724 44.6115 64.3737 44.5951C64.3737 44.5745 64.3737 44.5517 64.3737 44.5211C64.3737 44.3203 64.3066 44.1701 64.1706 44.073C64.0337 43.9797 63.8196 43.931 63.5357 43.931C63.2998 43.931 63.0496 43.9876 62.8017 44.1021C62.5484 44.2181 62.3033 44.3851 62.0624 44.6103L62.0819 43.5481C62.3375 43.3754 62.6224 43.2454 62.9323 43.1619C63.2422 43.0797 63.5945 43.0314 63.9783 43.0314C64.5928 43.0314 65.0416 43.1518 65.3113 43.3909C65.5903 43.6233 65.7281 44.0022 65.7281 44.5211V46.2224C65.7281 46.3173 65.7404 46.3903 65.7673 46.4286C65.7929 46.4665 65.8382 46.4862 65.8982 46.4862C65.9599 46.4862 66.0196 46.4798 66.0791 46.4624C66.1411 46.4488 66.2265 46.4213 66.3252 46.3821V47.1272C66.0845 47.2407 65.866 47.3311 65.6806 47.3805C65.4925 47.4352 65.3145 47.4659 65.1434 47.4659C64.9337 47.4659 64.7667 47.4216 64.6485 47.3416C64.5258 47.2673 64.4546 47.1449 64.4363 46.9874ZM64.3661 46.3616V45.3132C63.905 45.4774 63.6014 45.6222 63.4449 45.7427C63.2893 45.8642 63.2112 46.0096 63.2112 46.1721C63.2112 46.3163 63.2555 46.4213 63.3399 46.5045C63.4231 46.5861 63.5366 46.6272 63.6858 46.6272C63.7867 46.6272 63.8908 46.6026 64.009 46.558C64.1181 46.5127 64.2374 46.4488 64.3661 46.3616ZM54.1638 45.2538C54.1638 44.5983 54.3823 44.0625 54.8175 43.6489C55.2498 43.2404 55.8139 43.0314 56.4995 43.0314C57.1974 43.0314 57.7667 43.2435 58.197 43.655C58.6334 44.0679 58.8516 44.6043 58.8516 45.2538C58.8516 45.9075 58.6334 46.4343 58.2012 46.8454C57.7656 47.2552 57.1997 47.4659 56.4995 47.4659C55.8139 47.4659 55.2491 47.26 54.8175 46.8495C54.3823 46.4409 54.1638 45.9106 54.1638 45.2538ZM55.5464 45.2538C55.5464 45.6153 55.6359 45.9106 55.8088 46.1237C55.99 46.3419 56.2184 46.4488 56.5045 46.4488C56.7951 46.4488 57.0326 46.3419 57.1997 46.1237C57.3758 45.9106 57.463 45.6153 57.463 45.2538C57.463 44.8883 57.3758 44.5983 57.1997 44.376C57.0279 44.1578 56.7939 44.0465 56.5045 44.0465C56.2196 44.0465 55.99 44.1578 55.8139 44.376C55.6359 44.5951 55.5464 44.8895 55.5464 45.2538Z" fill="#E8E8E8"/>
<path fill-rule="evenodd" clip-rule="evenodd" d="M59.6372 47.3804V44.0268H59.0288V43.1167H59.6372V42.6445C59.6372 42.0946 59.7814 41.6879 60.0737 41.4204C60.3713 41.1538 60.8118 41.0168 61.412 41.0168C61.5046 41.0168 61.6137 41.0229 61.7228 41.0365C61.8351 41.0497 61.9638 41.065 62.1016 41.0922V42.1164C62.0036 42.0945 61.9131 42.0804 61.8351 42.0709C61.7569 42.0607 61.6795 42.0554 61.6146 42.0554C61.3872 42.0554 61.2215 42.1202 61.1279 42.2498C61.0252 42.3789 60.9778 42.598 60.9778 42.9117V43.116H61.5448V44.0268H60.9778V47.3804H59.6372Z" fill="#E8E8E8"/>
<path fill-rule="evenodd" clip-rule="evenodd" d="M48.9976 46.8824V45.4834C49.4687 45.78 49.8663 45.9818 50.1894 46.1022C50.5186 46.2164 50.8358 46.2771 51.1444 46.2771C51.4465 46.2771 51.684 46.2256 51.8446 46.1352C52.002 46.0381 52.0792 45.9002 52.0792 45.7108C52.0792 45.5637 52.0289 45.4422 51.9312 45.3528C51.8332 45.2589 51.6058 45.1507 51.2384 45.0265C50.3425 44.7064 49.7281 44.3851 49.3894 44.0597C49.051 43.7273 48.884 43.3115 48.884 42.8008C48.884 42.2635 49.1032 41.829 49.5418 41.4922C49.9833 41.1567 50.5505 40.99 51.2567 40.99C51.6131 40.99 51.9711 41.0312 52.3294 41.1219C52.6889 41.2102 53.0481 41.336 53.397 41.5017V42.7948C52.9761 42.5804 52.5941 42.422 52.2608 42.3242C51.925 42.2179 51.616 42.1686 51.3422 42.1686C51.0427 42.1686 50.8161 42.211 50.6578 42.2983C50.4971 42.3818 50.421 42.5096 50.421 42.6733C50.421 42.8008 50.492 42.9286 50.634 43.0468C50.771 43.1619 50.9828 43.2663 51.2681 43.3754C51.3329 43.3978 51.4246 43.4339 51.5473 43.4763C52.144 43.7014 52.5723 43.8909 52.8348 44.0474C53.1109 44.215 53.3135 44.4325 53.4568 44.696C53.5937 44.9607 53.6636 45.2712 53.6636 45.6213C53.6636 46.2028 53.4444 46.6591 53.0027 46.9934C52.5653 47.3248 51.9537 47.4908 51.1776 47.4908C50.7852 47.4908 50.4086 47.4393 50.0443 47.3384C49.6819 47.2353 49.3299 47.086 48.9976 46.8824Z" fill="#E8E8E8"/>
<path fill-rule="evenodd" clip-rule="evenodd" d="M75.2169 30.4418C75.2169 30.4418 75.2478 26.6565 76.4821 27.0344C76.8641 27.1517 77.2787 27.2661 77.7053 27.3667C78.8674 27.6313 82.6781 28.3375 82.6781 26.5031C82.6781 23.977 75.0995 25.7546 75.0995 20.3505C75.0995 16.9 78.5946 15.4897 81.6702 15.4897C83.5088 15.4897 85.3698 15.6943 87.0914 16.3533C86.6382 20.267 85.3698 18.9432 82.5297 18.9432C81.3768 18.9432 80.0739 19.1418 80.0739 19.9776C80.0739 22.3083 88.0103 20.4699 88.0103 26.1593C88.0103 30.1546 84.3076 31.1602 80.8148 31.1602C78.4153 31.1602 76.7876 30.9328 75.2169 30.4418ZM27.0822 18.9104C26.4573 18.8879 26.0794 18.8679 25.7357 18.8679C24.3983 18.8679 23.8477 15.8469 23.8477 15.8469C25.5452 15.8438 26.4067 15.8385 28.1042 15.8385C30.339 15.8385 31.7997 15.9405 31.7997 18.5994H31.8553C32.8901 16.4437 34.962 15.4897 37.3195 15.4897C39.6479 15.4897 41.183 16.4295 42.0703 17.8111C42.7405 18.8496 43.0402 20.1395 43.0402 21.4747L43.043 30.8215H37.8628V23.5744C37.8628 20.7508 36.887 19.8028 35.4768 19.8028C32.7345 19.8028 32.2579 22.2937 32.2579 24.4928C32.2579 25.796 32.2279 26.4455 32.2469 27.7446C32.2612 28.668 32.2579 30.8215 29.8049 30.8215H27.0822V18.9104ZM53.2466 20.5623V30.9617C53.2466 34.6983 52.037 37.1996 48.0408 37.1996C46.9485 37.1996 46.0571 37.143 45.1359 36.9422L45.2519 33.6648C45.6266 33.748 45.9983 33.748 46.3432 33.748C47.9532 33.748 48.0714 32.2544 48.0714 30.8206V18.8765C47.6053 18.8597 47.2018 18.8496 46.933 18.8496C45.5928 18.8496 45.042 15.8293 45.042 15.8293C46.9694 15.8293 48.8798 15.8293 50.8065 15.8293C52.8624 15.8293 53.2042 17.4784 53.2466 18.5128V19.2222C53.2403 19.6617 53.2403 20.0314 53.2466 20.3865V20.5623ZM47.2461 11.2888C47.2461 9.68582 48.544 8.38452 50.1488 8.38452C51.7527 8.38452 53.0549 9.68582 53.0549 11.2888C53.0549 12.8944 51.7527 14.1915 50.1488 14.1915C48.544 14.1915 47.2461 12.8944 47.2461 11.2888ZM64.6152 19.1143C67.0002 19.1143 67.9771 21.0978 67.9771 23.3132C67.9771 25.556 67.0002 27.541 64.6152 27.541C62.228 27.541 61.2501 25.556 61.2501 23.3132C61.2501 21.0978 62.228 19.1143 64.6152 19.1143ZM64.6152 15.4897C59.6677 15.4897 55.9023 18.3699 55.9023 23.3132C55.9023 28.2882 59.6677 31.1602 64.6152 31.1602C69.5591 31.1602 73.3229 28.2882 73.3229 23.3132C73.3229 18.3699 69.5591 15.4897 64.6152 15.4897ZM15.6639 22.7408L13.2757 14.8907H13.2141L10.6292 22.7408H15.6639ZM17.5202 13.2599L24.2882 30.8206H18.4197L16.9228 26.5341H9.39585C8.50945 28.9254 8.25841 30.8741 5.11351 30.8567C4.19954 30.8472 3.28719 30.8206 2.37549 30.8206L8.73627 14.0619L8.86372 13.7333C7.87132 13.7333 7.06616 13.7333 6.48179 13.7333C6.26142 13.7333 6.07005 13.7478 5.86611 13.6685C4.75838 13.2434 4.30049 10.7098 4.30049 10.7098C7.53899 10.7164 10.4366 10.7297 13.6802 10.738C14.4193 10.738 16.4719 10.5412 17.5202 13.2599Z" fill="#E8E8E8"/>
<path fill-rule="evenodd" clip-rule="evenodd" d="M8.92925 4.23849C8.92925 5.42905 10.814 6.3888 13.1447 6.3888C15.4734 6.3888 17.3581 5.42905 17.3581 4.23849C17.3581 3.05262 15.4734 2.08903 13.1447 2.08903C10.814 2.08903 8.92925 3.05262 8.92925 4.23849ZM5.6167 4.23849C5.6167 2.11969 8.98809 0.401611 13.1456 0.401611C17.3028 0.401611 20.6728 2.11969 20.6728 4.23849C20.6728 6.36072 17.3028 8.07789 13.1456 8.07789C8.98809 8.07789 5.6167 6.36072 5.6167 4.23849Z" fill="#E8E8E8"/>
</svg>
