<svg width="93" height="53" viewBox="0 0 93 53" fill="none" xmlns="http://www.w3.org/2000/svg">
<path fill-rule="evenodd" clip-rule="evenodd" d="M69.0655 16.1798C69.1934 15.3765 69.3098 14.0998 69.1457 13.4152C68.6674 13.653 67.8047 15.5192 69.0655 16.1798ZM22.6406 0.893311H21.9116C17.2122 1.05281 12.5391 4.17317 8.83008 8.81907C1.17795 18.4041 -2.68759 34.4821 3.41104 44.4485C5.47024 47.8141 8.57027 50.6028 12.5462 51.6901C17.0709 52.9281 23.1501 52.6391 29.6567 49.9373C42.6396 44.0881 51.5863 35.7457 66.4712 33.8752C72.4155 33.1281 78.327 33.4855 82.613 35.8631L86.1207 23.5032C79.5589 23.284 72.0574 25.2977 65.7534 27.1155C58.2563 29.2775 50.9172 32.1266 44.1232 35.5509C35.7423 39.4029 29.7942 42.4962 25.3831 42.8104C19.0544 43.9833 11.918 39.1829 11.0382 29.6C10.5901 23.0524 13.6378 13.2826 19.1045 9.3481C23.3608 5.9901 25.9578 9.34581 25.7276 12.4433C25.6802 13.0826 25.5687 13.7749 25.4158 14.3941C24.9305 12.1243 22.7955 9.58716 19.4254 12.0881C17.7105 13.361 16.8085 15.0839 16.1669 17.065C15.6503 18.6593 15.459 20.3056 15.7108 21.8294C16.1806 24.6693 17.9246 26.5196 21.0832 26.2145C22.9745 26.0318 25.2856 24.8105 27.6627 21.0077C30.4081 16.3642 32.9719 7.83524 28.6016 3.34084C27.7672 2.48244 26.9815 1.88113 25.8396 1.48537C24.7818 1.11873 23.7118 0.927577 22.6406 0.893311ZM68.6953 17.4414C68.0534 17.1301 67.7336 16.6645 67.5342 16.2978C66.86 15.0582 67.4788 13.1854 68.7731 12.5582C68.4142 11.8613 67.6986 12.0077 67.2352 12.2589C66.8066 12.4912 66.3888 12.9543 66.1259 13.3328C65.0021 14.9508 64.2087 16.8779 63.6761 19.3953C63.4306 20.5547 63.3553 21.677 63.3514 22.7102C63.3461 24.1647 64.0029 24.8577 65.1144 23.9037C65.5796 23.5044 66.0782 22.9429 66.4742 22.3455C67.2352 21.1972 67.6967 20.1238 68.2272 18.9326C68.4608 18.4081 68.5586 18.0578 68.6953 17.4414ZM32.4393 24.2021C32.1502 24.5949 31.884 25.0182 31.639 25.4716C31.3933 25.9259 31.167 26.4143 30.9584 26.9356C30.61 27.8068 30.3167 28.6871 30.0824 29.5764C29.8477 30.4661 29.6715 31.367 29.5569 32.2792C29.4439 33.1807 29.4089 33.9242 29.4531 34.5105C29.5736 35.5314 30.0927 35.9497 30.9422 35.3995C31.1856 35.2044 31.4396 34.9482 31.7041 34.6308L31.704 34.6305C31.969 34.3071 32.2177 33.9512 32.4503 33.5634C32.6866 33.1698 32.9005 32.7548 33.0931 32.3181L33.0923 32.3178C33.4919 31.3996 33.8204 30.4777 34.0777 29.5531C34.3346 28.6287 34.5213 27.698 34.6377 26.7608C34.7531 25.8306 34.7803 25.0565 34.7178 24.4377C34.539 22.7334 33.0907 23.045 32.4393 24.2021ZM44.7683 23.8455L45.9602 20.2875C45.9745 21.2364 45.9914 22.1473 45.9661 23.0771L44.7683 23.8455ZM42.0152 26.7959C42.1957 26.6097 42.3988 26.5023 42.5861 26.3721L42.2167 27.7179C42.0791 27.5649 41.9645 27.3871 41.8962 27.2057C41.8656 27.1243 41.8997 26.9153 42.0152 26.7959ZM59.7801 24.3171C60.0201 24.7561 60.3352 25.1708 60.7233 25.4952C61.3472 26.0171 61.9014 26.3078 63.0155 26.3025C64.0886 26.2976 65.3757 25.5281 66.0813 24.9315C66.5879 24.5035 66.9794 24.092 67.5319 23.409C68.2213 22.556 68.8441 21.3819 69.3256 20.1696C69.7126 19.1964 69.9768 18.4198 70.1591 17.6204C71.8382 17.673 73.0494 16.0104 73.5404 14.6143C73.8096 13.8484 74.8095 10.6761 74.4839 13.3749C74.1657 15.7899 73.6116 19.7404 73.293 22.1549C73.2567 22.326 73.356 22.7617 73.9181 22.5564L77.2479 21.4707C77.4242 21.4131 77.5354 21.2006 77.5556 21.0229L78.2207 15.119C78.3828 13.6652 78.841 11.8516 79.3384 10.4426C79.929 8.76887 82.5745 6.75554 81.7525 8.87667C80.6484 11.7257 83.9043 12.848 84.9447 10.2583C85.9478 7.76083 84.6563 4.36016 81.5619 5.5761C79.9798 6.19793 79.0253 8.14317 78.5914 9.9094C78.7774 8.10674 77.8554 7.00679 76.5814 7.22623C75.3073 7.44596 74.3892 8.36492 73.5004 10.6446C73.1555 11.5287 72.2054 16.5069 70.3778 16.2768C70.4517 15.3573 70.5477 14.2349 70.4315 13.3325C70.3846 12.9695 70.3003 12.6207 70.1805 12.2881C69.7798 11.0279 68.546 10.2064 67.2813 10.3213C66.1762 10.4215 64.8963 10.9779 64.0512 11.5876C62.6153 12.6241 61.5395 13.9362 60.5196 15.9312C59.797 17.3443 59.3855 18.8045 59.2096 20.0963C59.1143 20.7942 59.0743 21.517 59.2184 22.5814C58.8446 23.3626 57.9653 24.8755 57.7768 24.9695C57.454 25.6646 56.3131 27.0534 55.7006 26.6189C55.0126 26.1309 55.4499 24.459 55.5344 23.5774L56.9929 12.9306L60.4891 11.7468C60.5809 11.7158 60.708 11.5631 60.7192 11.47L60.7875 10.9016C60.8164 10.6632 60.562 10.4693 60.3257 10.5492L57.098 11.642L57.8697 5.1743C57.8979 4.936 57.6437 4.74174 57.4079 4.82177L54.103 5.94065C54.011 5.97189 53.8838 6.12474 53.8727 6.21771L53.0501 13.0128L50.6615 13.8215C50.3366 13.9313 50.4779 14.509 50.8195 14.4678L52.8805 14.2194L52.371 18.7932C51.6008 19.3383 50.2084 20.4318 49.7553 20.71C49.5838 20.8152 49.5847 20.9429 49.5901 20.8087C49.5572 19.4594 49.5996 18.111 49.597 16.7606C49.5957 16.2227 48.9339 16.3529 48.567 16.4612L46.1875 17.238C45.6209 17.4289 45.4435 17.7808 45.2679 18.2966L43.0537 24.7882L41.4713 25.8553C40.8394 26.2814 40.5936 27.1476 41.0301 27.8714C41.2495 28.2355 41.4303 28.5093 41.7966 28.8693C41.4618 29.8469 41.289 30.0442 41.0195 30.6358C40.7645 31.1954 40.4682 31.6695 39.9606 32.1828C39.3156 32.8349 38.3664 32.4884 38.4157 31.396C38.4265 31.155 38.4426 30.688 38.5843 29.3967L39.6195 19.9691C39.6456 19.7319 39.392 19.5412 39.1575 19.6206L35.776 20.7654C35.6829 20.7973 35.5562 20.9518 35.5458 21.0463L35.3837 22.5113C35.3601 22.474 35.3367 22.4397 35.3139 22.4088C35.0203 22.0115 34.6459 21.7666 34.1939 21.66C32.7804 21.3272 30.8864 22.2982 30.0995 22.9117C28.3736 24.2571 27.3012 25.6417 26.3511 27.5295C25.9194 28.3872 25.6127 29.2784 25.4312 30.2023V30.2036C24.9145 32.1558 24.9953 34.3299 25.9362 35.8307C26.9475 37.4439 28.9821 38.3604 31.4754 36.7192C32.6026 35.9772 33.0992 35.1328 33.8272 33.9262L33.8264 33.9258C34.1459 33.3734 34.3877 32.7804 34.6024 32.1845C34.7397 33.2856 35.1791 34.0929 36.131 34.6242C36.8597 35.0307 37.8245 35.0281 38.5884 34.7517C39.8907 34.2806 41.1658 33.2449 42.1541 31.2656C42.3246 30.9235 42.5792 30.3205 42.7351 29.9288C43.3228 30.4638 44.0065 31.0325 44.818 31.3502C46.3696 31.9577 49.249 31.3772 49.4982 28.5426C49.6842 26.4299 49.6035 24.5543 49.6805 22.0983C49.6833 21.9943 51.1823 20.7956 52.2182 19.9841L51.8629 22.7332C51.7294 24.4975 51.3377 26.5431 52.8173 27.9682C54.0038 29.1111 56.2462 28.8323 57.5261 27.5193C58.4356 26.5758 59.1646 25.4578 59.7801 24.3171ZM46.079 24.1545L44.3794 25.2085L43.2023 28.8432C43.8095 29.3653 44.5768 29.9635 45.1183 29.7457C46.2158 29.661 46.0932 25.4092 46.079 24.1545Z" fill="#E8E8E8"/>
<path d="M89.8589 7.55312H90.3649C90.6056 7.55312 90.7707 7.51776 90.8589 7.44919C90.9466 7.38049 90.991 7.2889 90.991 7.1745C90.991 7.10174 90.9695 7.03629 90.9271 6.97789C90.8847 6.92079 90.826 6.87705 90.7512 6.84895C90.6753 6.81992 90.5363 6.80635 90.3322 6.80635H89.8589V7.55312ZM89.4418 8.94458V6.47143H90.3291C90.6331 6.47143 90.8522 6.49317 90.9878 6.53903C91.1237 6.58507 91.2311 6.66489 91.3125 6.77825C91.3929 6.89282 91.4332 7.01347 91.4332 7.1413C91.4332 7.32227 91.3657 7.47916 91.2311 7.61336C91.0965 7.74756 90.9173 7.8226 90.6948 7.83914C90.7861 7.87557 90.8599 7.9191 90.914 7.97023C91.0183 8.06796 91.1451 8.23102 91.2961 8.46109L91.611 8.94458H91.1019L90.8728 8.55455C90.6926 8.24892 90.5481 8.05655 90.4376 7.97945C90.3613 7.92215 90.2496 7.89422 90.1032 7.89422H89.8589V8.94458H89.4418ZM90.4951 5.75476C90.1572 5.75476 89.8293 5.83801 89.5103 6.00354C89.191 6.1689 88.9415 6.40592 88.7615 6.71276C88.5811 7.02066 88.4911 7.34095 88.4911 7.67479C88.4911 8.00572 88.58 8.32276 88.7569 8.62632C88.9341 8.93006 89.1813 9.16709 89.4994 9.33679C89.8176 9.50609 90.1489 9.59148 90.4951 9.59148C90.8402 9.59148 91.1726 9.50609 91.4904 9.33679C91.8086 9.16709 92.0549 8.93006 92.2308 8.62632C92.407 8.32276 92.4946 8.00572 92.4946 7.67479C92.4946 7.34095 92.4057 7.02066 92.2266 6.71276C92.0475 6.40592 91.7978 6.1689 91.4774 6.00354C91.1572 5.83801 90.8292 5.75476 90.4951 5.75476ZM90.4951 5.37427C90.8978 5.37427 91.2909 5.4731 91.675 5.6706C92.0581 5.8692 92.358 6.15221 92.5717 6.52125C92.7858 6.88955 92.8931 7.27425 92.8931 7.67479C92.8931 8.07089 92.7878 8.4517 92.5762 8.81677C92.3654 9.18287 92.0693 9.4667 91.6891 9.66854C91.3081 9.87114 90.9108 9.97213 90.4951 9.97213C90.0791 9.97213 89.6807 9.87114 89.3008 9.66854C88.9197 9.4667 88.6233 9.18287 88.4118 8.81677C88.1989 8.4517 88.0938 8.07089 88.0938 7.67479C88.0938 7.27425 88.2011 6.88955 88.416 6.52125C88.631 6.15221 88.9307 5.8692 89.3149 5.6706C89.6981 5.4731 90.0921 5.37427 90.4951 5.37427Z" fill="#E8E8E8"/>
</svg>
