<svg width="90" height="58" viewBox="0 0 90 58" fill="none" xmlns="http://www.w3.org/2000/svg">
<path fill-rule="evenodd" clip-rule="evenodd" d="M10.0486 36.9933H18.099C18.376 36.9933 18.6019 37.2192 18.6019 37.4962V39.1546C18.6019 39.4316 18.376 39.6575 18.099 39.6575H13.6703C13.4856 39.6575 13.335 39.8081 13.335 39.9928V42.5936C13.335 42.7782 13.4856 42.9288 13.6703 42.9288H17.7039C17.9809 42.9288 18.2068 43.1547 18.2068 43.4317V44.7891C18.2068 45.0661 17.9809 45.292 17.7039 45.292H13.6703C13.4856 45.292 13.335 45.4427 13.335 45.6273V48.2281C13.335 48.4127 13.4856 48.5634 13.6703 48.5634H18.099C18.376 48.5634 18.6019 48.7893 18.6019 49.0663V50.7266C18.6019 51.0037 18.376 51.2295 18.099 51.2295H10.0486C9.77155 51.2295 9.54564 51.0076 9.54564 50.7354V37.4874C9.54564 37.2153 9.77155 36.9933 10.0486 36.9933ZM19.6432 36.9933H29.343C29.6201 36.9933 29.846 37.2154 29.846 37.4874V39.3983C29.846 39.5829 29.6953 39.7335 29.5107 39.7335H26.7067C26.5221 39.7335 26.3715 39.8842 26.3715 40.0688V50.8943C26.3715 51.0789 26.2208 51.2295 26.0362 51.2295H22.687C22.5023 51.2295 22.3517 51.0789 22.3517 50.8943V40.0688C22.3517 39.8842 22.201 39.7335 22.0164 39.7335H19.4756C19.2909 39.7335 19.1403 39.5829 19.1403 39.3983V37.4874C19.1403 37.2153 19.3662 36.9933 19.6432 36.9933ZM2.61867 36.9933H8.48028C8.75731 36.9933 8.98322 37.2192 8.98322 37.4962V39.1271C8.98322 39.4041 8.75731 39.63 8.48028 39.63H4.29327C4.01624 39.63 3.79033 39.8559 3.79033 40.133V48.0899C3.79033 48.3669 4.01624 48.5929 4.29327 48.5929H8.48028C8.75731 48.5929 8.98322 48.8188 8.98322 49.0958V50.7266C8.98322 51.0037 8.75731 51.2295 8.48028 51.2295H2.61867C1.23367 51.2295 0.104004 50.0999 0.104004 48.7149V39.508C0.104004 38.123 1.23367 36.9933 2.61867 36.9933ZM44.3353 39.9401H46.165V48.5895H44.3353V39.9401ZM43.0444 36.9933H47.3104C48.6954 36.9933 49.8251 38.123 49.8251 39.508V48.7149C49.8251 50.0999 48.6954 51.2295 47.3104 51.2295H43.0444C41.6594 51.2295 40.5298 50.0999 40.5298 48.7149V39.508C40.5298 38.123 41.6594 36.9933 43.0444 36.9933ZM34.4634 42.8784H36.144V39.9675H34.4634V42.8784ZM38.046 44.2782H38.1963C39.1197 44.2782 39.8728 45.0314 39.8728 45.9547V51.2295H38.2812C37.127 51.2295 36.1856 50.2883 36.1856 49.134V45.3801H34.4634V50.7266C34.4634 51.0036 34.2374 51.2295 33.9605 51.2295H30.9871C30.703 51.2295 30.4714 51.0076 30.4714 50.7354V37.4874C30.4714 37.2153 30.703 36.9933 30.9871 36.9933H37.2437C38.6287 36.9933 39.7584 38.1232 39.7584 39.508V41.8952C39.7584 42.9997 39.0396 43.942 38.046 44.2782Z" fill="#E8E8E8"/>
<path fill-rule="evenodd" clip-rule="evenodd" d="M51.1237 36.9933H57.3802C58.7652 36.9933 59.8949 38.123 59.8949 39.508V43.2536C59.8949 44.6386 58.7652 45.7682 57.3802 45.7682H54.5999V50.7266C54.5999 51.0037 54.374 51.2295 54.097 51.2295H51.1237C50.8396 51.2295 50.6079 51.0076 50.6079 50.7354V37.4874C50.6079 37.2153 50.8396 36.9933 51.1237 36.9933ZM70.2153 51.2295H69.9914H66.1113L65.5791 47.8609H63.2873L62.7726 51.2295H58.9802L61.5584 36.9933H67.4159L69.4639 47.4085V37.4874C69.4639 37.2153 69.7008 36.9933 69.9914 36.9933H76.3902C77.8067 36.9933 78.962 38.1232 78.962 39.508V41.8952C78.962 42.9997 78.2269 43.942 77.2108 44.2782H77.3645C78.3089 44.2782 79.0791 45.0314 79.0791 45.9547V50.7266C79.0791 51.0037 78.8531 51.2295 78.5761 51.2295H77.4512C76.2708 51.2295 75.308 50.2883 75.308 49.134V45.3801H73.5467V50.7266C73.5467 51.0036 73.3155 51.2295 73.0323 51.2295H70.2153ZM54.5999 43.0234H56.2774V39.9739H54.5999V43.0234ZM73.4375 42.7461H75.369V39.9881H73.4375V42.7461ZM63.715 45.0609L64.4138 40.4867L65.1366 45.0609H63.715ZM80.1218 36.9933H83.0705C83.3475 36.9933 83.5734 37.2192 83.5734 37.4962V42.3514L86.0601 37.275C86.1466 37.0984 86.3152 36.9933 86.5118 36.9933H89.2367C89.3268 36.9933 89.4044 37.0367 89.4513 37.1136C89.4983 37.1905 89.5037 37.2805 89.4605 37.3594L86.3012 43.1276H88.94C89.217 43.1276 89.4429 43.3536 89.4429 43.6306V50.7266C89.4429 51.0037 89.217 51.2295 88.94 51.2295H85.8725C85.5955 51.2295 85.3696 51.0037 85.3696 50.7266V45.8334H83.5733V50.7266C83.5733 51.0037 83.3474 51.2295 83.0704 51.2295H80.1218C79.8448 51.2295 79.6188 51.0037 79.6188 50.7266V37.4962C79.6188 37.2192 79.8448 36.9933 80.1218 36.9933Z" fill="#E8E8E8"/>
<path d="M18.6567 57.4966H19.6231C20.062 57.4966 20.4167 57.2106 20.4167 56.649V55.2929C20.4167 55.2558 20.3888 55.2241 20.3561 55.2241H19.1095V55.6107C19.1095 55.6478 19.1375 55.6796 19.1703 55.6796H20.02V56.6385C20.02 56.861 19.8192 57.0411 19.6231 57.0411H18.6567C18.4605 57.0411 18.3018 56.861 18.3018 56.6385V54.3341C18.3018 54.1116 18.4605 53.9315 18.6567 53.9315H20.1927C20.2301 53.9315 20.258 53.8997 20.258 53.8626V53.4759H18.6567C18.2179 53.4759 17.863 53.8785 17.863 54.3765V56.5961C17.863 57.094 18.2179 57.4966 18.6567 57.4966ZM21.7614 53.9527H23.274C23.3067 53.9527 23.3347 53.9209 23.3347 53.8838V53.4971H21.7614C21.3224 53.4971 20.9677 53.8997 20.9677 54.3976V56.5749C20.9677 57.0728 21.3224 57.4754 21.7614 57.4754H23.3347V57.0887C23.3347 57.0516 23.3067 57.0199 23.274 57.0199H21.7614C21.5652 57.0199 21.4065 56.8398 21.4065 56.6173V55.7114H23.1106C23.1433 55.7114 23.1713 55.6796 23.1713 55.6425V55.2558H21.6353C21.5372 55.2558 21.4532 55.2982 21.4065 55.3617V54.3553C21.4065 54.1328 21.5652 53.9527 21.7614 53.9527ZM23.7408 57.0199C23.7081 57.0199 23.6802 57.0464 23.6802 57.0887V57.4754H25.4683C25.9025 57.4754 26.2339 57.1099 26.2339 56.612V56.0452C26.2339 55.8756 26.1312 55.6902 25.9912 55.6373L24.1984 54.9645C24.1517 54.9486 24.1144 54.8903 24.1144 54.832V54.3182C24.1144 54.0957 24.2778 53.9527 24.4738 53.9527H26.0752C26.1126 53.9527 26.1359 53.9209 26.1359 53.8838V53.4971H24.4738C24.035 53.4971 23.6802 53.7991 23.6802 54.297V54.9274C23.6802 55.0969 23.7969 55.277 23.937 55.33L25.7298 56.0081C25.7764 56.024 25.8138 56.0823 25.8138 56.1352V56.6173C25.8138 56.8398 25.6643 57.0199 25.4683 57.0199H23.7408ZM26.598 53.4971C26.5654 53.4971 26.5374 53.5288 26.5374 53.5659V53.9527H27.5832V57.4754H27.9613C27.9986 57.4754 28.022 57.4436 28.022 57.4066V53.9527H29.0211C29.0538 53.9527 29.0818 53.9209 29.0818 53.8838V53.4971H26.598ZM31.122 53.5342C31.1127 53.513 31.0894 53.4971 31.066 53.4971H30.5104C30.3424 53.4971 30.1976 53.6189 30.1417 53.7937L29.0025 57.4754H29.3854C29.4227 57.4754 29.46 57.4436 29.4693 57.4066L29.7821 56.3841H31.5656L31.8783 57.4066C31.8877 57.4436 31.9204 57.4754 31.9624 57.4754H32.3452L31.122 53.5342ZM29.9221 55.9286L30.5057 54.0215C30.5198 53.9791 30.5525 53.9527 30.5898 53.9527H30.8185L31.4255 55.9286H29.9221ZM30.3704 53.0362V52.9355C30.3704 52.9038 30.3938 52.8773 30.4217 52.8773H30.4498C30.4684 52.8773 30.4964 52.8879 30.5151 52.8984C30.5151 52.8984 30.7486 53.0627 30.7719 53.0786C30.8046 53.0998 30.8653 53.1209 30.9073 53.1209H31.1081C31.2014 53.1209 31.2761 53.0362 31.2761 52.9355V52.5488H31.0847C31.0427 52.5488 31.01 52.5859 31.01 52.6336V52.7342C31.01 52.7661 30.9867 52.7925 30.9586 52.7925H30.926C30.9073 52.7925 30.8793 52.782 30.8653 52.7713C30.8653 52.7713 30.6272 52.6071 30.6085 52.5912C30.5758 52.57 30.5104 52.5488 30.4684 52.5488H30.2724C30.179 52.5488 30.1043 52.6336 30.1043 52.7342V53.1209H30.2956C30.3377 53.1209 30.3704 53.0838 30.3704 53.0362ZM34.6002 57.4966C35.0344 57.4966 35.3939 57.094 35.3939 56.5961V54.3765C35.3939 53.8785 35.0344 53.4759 34.6002 53.4759H33.5452C33.1062 53.4759 32.7514 53.8785 32.7514 54.3765V56.5961C32.7514 57.094 33.1062 57.4966 33.5452 57.4966H34.6002ZM33.5452 53.9315H34.6002C34.7963 53.9315 34.9551 54.1116 34.9551 54.3341V56.6385C34.9551 56.861 34.7963 57.0411 34.6002 57.0411H33.5452C33.3491 57.0411 33.1903 56.861 33.1903 56.6385V54.3341C33.1903 54.1116 33.3491 53.9315 33.5452 53.9315ZM38.0037 57.4754H39.5024C39.9412 57.4754 40.296 57.0675 40.296 56.5749V54.3976C40.296 53.8997 39.9412 53.4971 39.5024 53.4971H38.0037C37.8543 53.4971 37.733 53.6349 37.733 53.8043V57.1682C37.733 57.3377 37.8543 57.4754 38.0037 57.4754ZM38.2604 57.0199C38.2091 57.0199 38.1718 56.9722 38.1718 56.9192V54.0533C38.1718 53.995 38.2091 53.9527 38.2604 53.9527H39.5024C39.6985 53.9527 39.8571 54.1328 39.8571 54.3553V56.6173C39.8571 56.8398 39.6985 57.0199 39.5024 57.0199H38.2604ZM41.6452 53.9527H43.1579C43.1906 53.9527 43.2186 53.9209 43.2186 53.8838V53.4971H41.6452C41.2064 53.4971 40.8516 53.8997 40.8516 54.3976V56.5749C40.8516 57.0728 41.2064 57.4754 41.6452 57.4754H43.2186V57.0887C43.2186 57.0516 43.1906 57.0199 43.1579 57.0199H41.6452C41.4492 57.0199 41.2905 56.8398 41.2905 56.6173V55.7114H42.9945C43.0272 55.7114 43.0552 55.6796 43.0552 55.6425V55.2558H41.5193C41.4212 55.2558 41.3372 55.2982 41.2905 55.3617V54.3553C41.2905 54.1328 41.4492 53.9527 41.6452 53.9527ZM46.2113 53.9527H47.724C47.7566 53.9527 47.7846 53.9209 47.7846 53.8838V53.4971H46.2113C45.7723 53.4971 45.4177 53.8997 45.4177 54.3976V56.5749C45.4177 57.0728 45.7723 57.4754 46.2113 57.4754H47.7846V57.0887C47.7846 57.0516 47.7566 57.0199 47.724 57.0199H46.2113C46.0152 57.0199 45.8564 56.8398 45.8564 56.6173V55.7114H47.5606C47.5933 55.7114 47.6212 55.6796 47.6212 55.6425V55.2558H46.0852C45.9872 55.2558 45.9031 55.2982 45.8564 55.3617V54.3553C45.8564 54.1328 46.0152 53.9527 46.2113 53.9527ZM48.1908 57.0199C48.1582 57.0199 48.1301 57.0464 48.1301 57.0887V57.4754H49.9182C50.3525 57.4754 50.6839 57.1099 50.6839 56.612V56.0452C50.6839 55.8756 50.5812 55.6902 50.4412 55.6373L48.6484 54.9645C48.6016 54.9486 48.5643 54.8903 48.5643 54.832V54.3182C48.5643 54.0957 48.7277 53.9527 48.9238 53.9527H50.5251C50.5625 53.9527 50.5858 53.9209 50.5858 53.8838V53.4971H48.9238C48.485 53.4971 48.1301 53.7991 48.1301 54.297V54.9274C48.1301 55.0969 48.2468 55.277 48.3869 55.33L50.1797 56.0081C50.2264 56.024 50.2637 56.0823 50.2637 56.1352V56.6173C50.2637 56.8398 50.1143 57.0199 49.9182 57.0199H48.1908ZM51.0481 53.4971C51.0154 53.4971 50.9874 53.5288 50.9874 53.5659V53.9527H52.0332V57.4754H52.4113C52.4487 57.4754 52.4719 57.4436 52.4719 57.4066V53.9527H53.4711C53.5038 53.9527 53.5318 53.9209 53.5318 53.8838V53.4971H51.0481ZM55.5019 53.5342C55.4926 53.513 55.4694 53.4971 55.4459 53.4971H54.8904C54.7223 53.4971 54.5776 53.6189 54.5216 53.7937L53.3824 57.4754H53.7653C53.8026 57.4754 53.8399 57.4436 53.8492 57.4066L54.162 56.3841H55.9455L56.2583 57.4066C56.2676 57.4436 56.3003 57.4754 56.3423 57.4754H56.7252L55.5019 53.5342ZM54.3021 55.9286L54.8857 54.0215C54.8997 53.9791 54.9325 53.9527 54.9698 53.9527H55.1985L55.8054 55.9286H54.3021ZM57.0894 56.5749C57.0894 57.0675 57.4441 57.4754 57.883 57.4754H59.4237V57.0887C59.4237 57.0516 59.3957 57.0199 59.363 57.0199H57.883C57.6869 57.0199 57.5282 56.8398 57.5282 56.6173V54.3553C57.5282 54.1328 57.6869 53.9527 57.883 53.9527H59.363C59.3957 53.9527 59.4237 53.9209 59.4237 53.8838V53.4971H57.883C57.4441 53.4971 57.0894 53.8997 57.0894 54.3976V56.5749ZM60.0912 57.4754H60.4694V53.5659C60.4694 53.5288 60.4414 53.4971 60.4087 53.4971H60.0306V57.4066C60.0306 57.4436 60.0586 57.4754 60.0912 57.4754ZM62.9484 57.4966C63.3826 57.4966 63.742 57.094 63.742 56.5961V54.3765C63.742 53.8785 63.3826 53.4759 62.9484 53.4759H61.8934C61.4545 53.4759 61.0996 53.8785 61.0996 54.3765V56.5961C61.0996 57.094 61.4545 57.4966 61.8934 57.4966H62.9484ZM61.8934 53.9315H62.9484C63.1445 53.9315 63.3033 54.1116 63.3033 54.3341V56.6385C63.3033 56.861 63.1445 57.0411 62.9484 57.0411H61.8934C61.6973 57.0411 61.5385 56.861 61.5385 56.6385V54.3341C61.5385 54.1116 61.6973 53.9315 61.8934 53.9315ZM66.2446 55.8067L65.2921 53.7673C65.2221 53.6189 65.0447 53.4971 64.8953 53.4971H64.363C64.3304 53.4971 64.3024 53.5288 64.3024 53.5659V57.4754H64.6806C64.7132 57.4754 64.7412 57.4436 64.7412 57.4066V53.9527C64.7412 53.9527 64.7785 53.9527 64.8205 53.9527C64.8672 53.9527 64.9233 53.9897 64.9466 54.0374L66.5433 57.4119C66.5574 57.4436 66.5994 57.4754 66.632 57.4754H67.0382V53.4971H66.66C66.6274 53.4971 66.5994 53.5288 66.5994 53.5659V55.632C66.6227 56.0081 66.6227 56.3418 66.6694 56.755L66.2446 55.8067ZM69.5032 53.5342C69.4939 53.513 69.4706 53.4971 69.4473 53.4971H68.8917C68.7236 53.4971 68.5789 53.6189 68.5228 53.7937L67.3837 57.4754H67.7665C67.8039 57.4754 67.8412 57.4436 67.8505 57.4066L68.1634 56.3841H69.9468L70.2596 57.4066C70.2689 57.4436 70.3017 57.4754 70.3437 57.4754H70.7265L69.5032 53.5342ZM68.3034 55.9286L68.887 54.0215C68.9011 53.9791 68.9337 53.9527 68.9711 53.9527H69.1999L69.8067 55.9286H68.3034ZM71.4781 53.4971H71.1513C71.1187 53.4971 71.0906 53.5236 71.0906 53.5668V57.4754H71.4688C71.5014 57.4754 71.5295 57.4436 71.5295 57.4057V54.3049L72.5052 56.4133C72.5239 56.4504 72.5612 56.4769 72.5987 56.4769H72.9395C72.9768 56.4769 73.0141 56.4504 73.0328 56.4133L74.0086 54.3049V57.4057C74.0086 57.4436 74.0366 57.4754 74.0692 57.4754H74.4474V53.5668C74.4474 53.5236 74.4194 53.4971 74.3867 53.4971H74.0599C74.0132 53.4971 73.9572 53.5342 73.9338 53.5827L72.7667 56.0036L71.6041 53.5827C71.5809 53.5342 71.5248 53.4971 71.4781 53.4971ZM75.8107 53.9527H77.3233C77.356 53.9527 77.384 53.9209 77.384 53.8838V53.4971H75.8107C75.3717 53.4971 75.0171 53.8997 75.0171 54.3976V56.5749C75.0171 57.0728 75.3717 57.4754 75.8107 57.4754H77.384V57.0887C77.384 57.0516 77.356 57.0199 77.3233 57.0199H75.8107C75.6146 57.0199 75.4558 56.8398 75.4558 56.6173V55.7114H77.16C77.1927 55.7114 77.2206 55.6796 77.2206 55.6425V55.2558H75.6846C75.5866 55.2558 75.5025 55.2982 75.4558 55.3617V54.3553C75.4558 54.1328 75.6146 53.9527 75.8107 53.9527ZM79.7557 55.8067L78.8034 53.7673C78.7334 53.6189 78.5559 53.4971 78.4065 53.4971H77.8742C77.8415 53.4971 77.8136 53.5288 77.8136 53.5659V57.4754H78.1917C78.2244 57.4754 78.2524 57.4436 78.2524 57.4066V53.9527C78.2524 53.9527 78.2898 53.9527 78.3317 53.9527C78.3785 53.9527 78.4344 53.9897 78.4578 54.0374L80.0544 57.4119C80.0685 57.4436 80.1106 57.4754 80.1432 57.4754H80.5494V53.4971H80.1713C80.1386 53.4971 80.1106 53.5288 80.1106 53.5659V55.632C80.1339 56.0081 80.1338 56.3418 80.1805 56.755L79.7557 55.8067ZM80.979 53.4971C80.9463 53.4971 80.9183 53.5288 80.9183 53.5659V53.9527H81.9641V57.4754H82.3422C82.3795 57.4754 82.4028 57.4436 82.4028 57.4066V53.9527H83.402C83.4347 53.9527 83.4627 53.9209 83.4627 53.8838V53.4971H80.979ZM85.6663 57.4966C86.1005 57.4966 86.4599 57.094 86.4599 56.5961V54.3765C86.4599 53.8785 86.1005 53.4759 85.6663 53.4759H84.6112C84.1723 53.4759 83.8175 53.8785 83.8175 54.3765V56.5961C83.8175 57.094 84.1723 57.4966 84.6112 57.4966H85.6663ZM84.6112 53.9315H85.6663C85.8624 53.9315 86.0211 54.1116 86.0211 54.3341V56.6385C86.0211 56.861 85.8624 57.0411 85.6663 57.0411H84.6112C84.4151 57.0411 84.2564 56.861 84.2564 56.6385V54.3341C84.2564 54.1116 84.4151 53.9315 84.6112 53.9315ZM86.9968 57.0199C86.9641 57.0199 86.9362 57.0464 86.9362 57.0887V57.4754H88.7242C89.1584 57.4754 89.4899 57.1099 89.4899 56.612V56.0452C89.4899 55.8756 89.3872 55.6902 89.2471 55.6373L87.4544 54.9645C87.4077 54.9486 87.3704 54.8903 87.3704 54.832V54.3182C87.3704 54.0957 87.5338 53.9527 87.7298 53.9527H89.3312C89.3686 53.9527 89.3919 53.9209 89.3919 53.8838V53.4971H87.7298C87.291 53.4971 86.9362 53.7991 86.9362 54.297V54.9274C86.9362 55.0969 87.0528 55.277 87.193 55.33L88.9857 56.0081C89.0325 56.024 89.0697 56.0823 89.0697 56.1352V56.6173C89.0697 56.8398 88.9203 57.0199 88.7242 57.0199H86.9968Z" fill="#E8E8E8"/>
<path fill-rule="evenodd" clip-rule="evenodd" d="M28.6349 14.8675L42.3368 1.1657C43.3621 0.140404 45.0299 0.140404 46.0553 1.1657L59.7572 14.8675C60.7825 15.8928 60.7825 17.5607 59.7572 18.586L46.0553 32.2879C45.0299 33.3133 43.3621 33.3133 42.3368 32.2879L28.6349 18.586C27.6096 17.5607 27.6096 15.8928 28.6349 14.8675Z" fill="#E8E8E8"/>
<path fill-rule="evenodd" clip-rule="evenodd" d="M42.7431 14.7285L40.7501 14.5564L41.2573 14.1925C40.8038 13.4637 39.5584 13.1178 38.7422 13.1178C37.7202 13.1178 36.7949 13.532 36.1253 14.2015C35.4558 14.8711 35.0416 15.7964 35.0416 16.8183C35.0416 17.8404 35.4558 18.7656 36.1253 19.4351C36.7949 20.1047 37.7202 20.5189 38.7422 20.5189C39.1343 20.5189 39.514 20.4603 39.8684 20.3474C40.2262 20.2334 40.5691 20.0626 40.8839 19.8393L47.5654 14.8235L48.6458 16.2641L41.9289 21.3081C41.4651 21.6371 40.9529 21.891 40.4122 22.0633C39.868 22.2367 39.3046 22.3266 38.7422 22.3266C37.2212 22.3266 35.8441 21.7099 34.8473 20.7131C33.8505 19.7164 33.2339 18.3393 33.2339 16.8183C33.2339 15.2974 33.8506 13.9202 34.8473 12.9235C35.8441 11.9267 37.2212 11.3101 38.7422 11.3101C40.1058 11.3101 41.9806 11.9392 42.7268 13.1382L43.1869 12.8081L42.7431 14.7285Z" fill="#7D2525"/>
<path fill-rule="evenodd" clip-rule="evenodd" d="M45.6226 18.9081L47.6155 19.0803L47.1083 19.4442C47.5618 20.173 48.8072 20.5189 49.6235 20.5189C50.6454 20.5189 51.5707 20.1047 52.2403 19.4352C52.9098 18.7656 53.324 17.8403 53.324 16.8183C53.324 15.7963 52.9098 14.8711 52.2403 14.2016C51.5707 13.532 50.6455 13.1178 49.6235 13.1178C49.2314 13.1178 48.8517 13.1764 48.4973 13.2893C48.1394 13.4033 47.7965 13.5741 47.4817 13.7974L40.8002 18.8132L39.7198 17.3726L46.4367 12.3286C46.9005 11.9996 47.4127 11.7457 47.9535 11.5734C48.4977 11.4 49.0611 11.3101 49.6235 11.3101C51.1444 11.3101 52.5216 11.9267 53.5184 12.9235C54.5152 13.9203 55.1317 15.2974 55.1317 16.8183C55.1317 18.3393 54.5151 19.7164 53.5184 20.7132C52.5216 21.7099 51.1444 22.3266 49.6235 22.3266C48.2599 22.3266 46.3851 21.6974 45.6389 20.4984L45.1787 20.8286L45.6226 18.9081Z" fill="#7D2525"/>
</svg>
