<svg width="87" height="38" viewBox="0 0 87 38" fill="none" xmlns="http://www.w3.org/2000/svg">
<path d="M86.2464 24.0732H0.383301V18.3767H86.2464V24.0732Z" fill="#E8E8E8"/>
<path d="M28.0713 15.0913L36.8808 0.0792236H50.5477L59.24 15.0897H40.2918L42.7119 10.9621H48.0312L43.8498 3.94951L37.2732 15.0913H28.0713Z" fill="#E8E8E8"/>
<path d="M61.3008 0.0246582H86.2469V4.38606H70.9831V7.02742L86.0481 7.02851V11.1814H70.9831V15.0341H61.3034L61.3008 0.0246582Z" fill="#E8E8E8"/>
<path d="M0.757568 15.1696H17.6957C22.6127 15.1696 24.9859 14.2198 26.4802 12.6939C27.9742 11.1684 28.4956 9.06993 28.4956 7.71953C28.4956 6.37067 27.9742 4.27222 26.4802 2.74636C24.9859 1.22156 22.6127 0.269897 17.6957 0.269897H0.757568V15.1696ZM10.2467 4.25932H12.4392H14.3456C16.3051 4.25932 16.8562 4.65293 17.5179 5.2899C18.1811 5.92533 18.5367 6.8904 18.5367 7.77633C18.5367 8.7448 18.182 9.6387 17.5194 10.2737C16.8561 10.9099 16.2768 11.2887 14.4279 11.2887H12.4392H10.2467V7.77633V4.25932Z" fill="#E8E8E8"/>
<path d="M1.53809 31.816H4.71405C6.24105 31.816 6.56587 32.6935 6.56587 33.298C6.56587 33.8944 6.28164 34.2171 5.85121 34.4571C6.37108 34.6392 6.85842 35.0618 6.85842 35.931C6.85842 37.1153 5.8512 37.7277 4.82767 37.7277H1.53809V31.816ZM3.32509 34.1178H4.26723C4.64093 34.1178 4.87642 34.0102 4.87642 33.6293C4.87642 33.3311 4.63283 33.2235 4.26723 33.2235H3.32509V34.1178ZM3.32509 36.3203H4.37285C4.74645 36.3203 5.07145 36.2127 5.07145 35.7572C5.07145 35.4094 4.86822 35.2191 4.44595 35.2191H3.32509V36.3203Z" fill="#E8E8E8"/>
<path d="M9.16555 31.816H10.9119L13.0236 37.7277H11.1719L10.9281 36.8833H9.08438L8.8244 37.7277H7.0293L9.16555 31.816ZM10.5708 35.6163L10.051 33.7947H10.0346L9.47422 35.6163H10.5708Z" fill="#E8E8E8"/>
<path d="M13.4219 31.816H16.8254C17.8407 31.816 18.718 32.3871 18.718 33.5049C18.718 34.1178 18.4418 34.7636 17.849 34.9873C18.3363 35.1776 18.6368 35.7238 18.7015 36.4609C18.7258 36.7506 18.734 37.4546 18.8965 37.7277H17.1099C17.0204 37.4297 16.9878 37.1235 16.9635 36.8171C16.9149 36.2541 16.8658 35.666 16.1592 35.666H15.209V37.7277H13.4219V31.816ZM15.209 34.3992H16.1431C16.4763 34.3992 16.9309 34.3413 16.9309 33.8113C16.9309 33.4387 16.7282 33.2235 16.0454 33.2235H15.209V34.3992Z" fill="#E8E8E8"/>
<path d="M19.4409 31.816H21.2281V37.7277H19.4409V31.816Z" fill="#E8E8E8"/>
<path d="M26.3945 37.1236C25.9962 37.645 25.3791 37.8687 24.7455 37.8687C23.0313 37.8687 21.9756 36.5106 21.9756 34.8298C21.9756 32.5777 23.5269 31.675 24.835 31.675C26.3133 31.675 27.2469 32.4947 27.5071 33.8858H25.7935C25.7282 33.4552 25.3708 33.149 24.9483 33.149C23.7219 33.149 23.7627 34.4655 23.7627 34.8712C23.7627 35.426 23.982 36.3948 25.0703 36.3948C25.4846 36.3948 25.9067 36.1796 25.9962 35.7406H25.2084V34.4737H27.58V37.7277H26.4508L26.3945 37.1236Z" fill="#E8E8E8"/>
<path d="M33.729 35.4425C33.729 37.0822 32.86 37.8687 31.0895 37.8687C29.3189 37.8687 28.4417 37.0822 28.4417 35.4425V31.816H30.2282V35.0369C30.2282 35.6411 30.2283 36.3947 31.0977 36.3947C31.9424 36.3947 31.9424 35.6411 31.9424 35.0369V31.816H33.729V35.4425Z" fill="#E8E8E8"/>
<path d="M34.6311 31.816H36.4182V37.7277H34.6311V31.816Z" fill="#E8E8E8"/>
<path d="M43.4126 33.6042C43.2176 32.6936 42.4785 32.1719 41.6338 32.1719C40.0986 32.1719 39.449 33.4801 39.449 34.7719C39.449 36.0637 40.0986 37.3719 41.6338 37.3719C42.706 37.3719 43.3883 36.5272 43.4938 35.4756H44.0462C43.8915 36.9247 42.99 37.8519 41.6338 37.8519C39.8063 37.8519 38.8965 36.3865 38.8965 34.7719C38.8965 33.1573 39.8063 31.6917 41.6338 31.6917C42.7303 31.6917 43.8187 32.3623 43.9651 33.6042H43.4126Z" fill="#E8E8E8"/>
<path d="M46.589 31.816H47.2061L49.4804 37.7277H48.8877L48.1811 35.8897H45.541L44.8427 37.7277H44.2495L46.589 31.816ZM45.7118 35.4094H47.9939L46.8729 32.3788L45.7118 35.4094Z" fill="#E8E8E8"/>
<path d="M49.9924 31.816H50.8046L52.8109 36.9991L54.8091 31.816H55.6212V37.7277H55.0688V32.6191H55.0527L53.0706 37.7277H52.5508L50.5609 32.6191H50.5449V37.7277H49.9924V31.816Z" fill="#E8E8E8"/>
<path d="M56.8162 31.816H57.3685V37.7277H56.8162V31.816Z" fill="#E8E8E8"/>
<path d="M58.5706 31.816H59.1876L62.5669 36.8171H62.5828V31.816H63.1353V37.7277H62.5177L59.139 32.7266H59.1225V37.7277H58.5706V31.816Z" fill="#E8E8E8"/>
<path d="M64.2971 31.816H64.8495V34.3826H68.2933V31.816H68.8458V37.7277H68.2933V34.8629H64.8495V37.7277H64.2971V31.816Z" fill="#E8E8E8"/>
<path d="M72.4443 31.6916C74.264 31.6916 75.1734 33.1572 75.1734 34.7718C75.1734 36.3864 74.264 37.8518 72.4443 37.8518C70.6169 37.8518 69.707 36.3864 69.707 34.7718C69.707 33.1572 70.6169 31.6916 72.4443 31.6916ZM72.4443 37.3718C73.9713 37.3718 74.6215 36.0636 74.6215 34.7718C74.6215 33.48 73.9713 32.1718 72.4443 32.1718C70.9091 32.1718 70.2595 33.48 70.2595 34.7718C70.2595 36.0636 70.9091 37.3718 72.4443 37.3718ZM73.7116 30.3501C73.6547 30.7314 73.4271 31.1368 73.005 31.1368C72.7857 31.1368 72.5825 31.0458 72.3957 30.9548C72.209 30.8637 72.0465 30.7562 71.9085 30.7562C71.6648 30.7562 71.4776 30.9051 71.4776 31.1783H71.161C71.2096 30.7893 71.4533 30.3832 71.8842 30.3832C72.1195 30.3832 72.3145 30.4745 72.493 30.5655C72.6719 30.6566 72.8343 30.7479 72.9807 30.7479C73.2321 30.7479 73.3376 30.5655 73.4028 30.3501H73.7116Z" fill="#E8E8E8"/>
<path d="M76.0352 31.816H80.0397V32.296H76.5875V34.4323H79.8204V34.9125H76.5875V37.2477H80.08V37.7277H76.0352V31.816Z" fill="#E8E8E8"/>
<path d="M81.1118 35.7821C81.0875 36.9992 81.9482 37.3719 83.0044 37.3719C83.6133 37.3719 84.5396 37.0322 84.5396 36.1713C84.5396 35.5004 83.8817 35.2356 83.3453 35.1031L82.0538 34.7801C81.3715 34.6061 80.7461 34.275 80.7461 33.3559C80.7461 32.7763 81.1118 31.6917 82.7443 31.6917C83.8895 31.6917 84.8971 32.3209 84.8888 33.5297H84.3364C84.3038 32.6273 83.573 32.1719 82.7526 32.1719C81.9974 32.1719 81.2986 32.4698 81.2986 33.3476C81.2986 33.9026 81.7046 34.1344 82.1758 34.2502L83.5889 34.6061C84.4093 34.8298 85.0916 35.1942 85.0916 36.163C85.0916 36.5685 84.9292 37.8519 82.8741 37.8519C81.5018 37.8519 80.4942 37.2229 80.5594 35.7821H81.1118Z" fill="#E8E8E8"/>
</svg>
