<svg width="122" height="15" viewBox="0 0 122 15" fill="none" xmlns="http://www.w3.org/2000/svg">
<path fill-rule="evenodd" clip-rule="evenodd" d="M2.19523 8.73968C2.19523 8.26518 2.58028 7.8796 3.05591 7.8796H9.42914V6.51827H3.05591C2.82754 6.51827 2.60866 6.42771 2.44753 6.26611C2.28579 6.10501 2.19523 5.88659 2.19523 5.65822V4.84869C2.19523 4.57546 2.28973 4.34489 2.47919 4.15479C2.66866 3.96532 2.90033 3.87098 3.17263 3.87098H9.42914V2.51025H3.17263C2.84583 2.51025 2.54138 2.57246 2.25852 2.69689C1.97852 2.81973 1.73362 2.98698 1.52195 3.19801C1.31075 3.40921 1.14347 3.65475 1.02081 3.93538C0.896841 4.21698 0.833984 4.52159 0.833984 4.84869V10.4374C0.833984 10.7642 0.896841 11.0687 1.02081 11.3516C1.14347 11.6309 1.31075 11.8764 1.52195 12.0876C1.73362 12.2987 1.97852 12.4659 2.25852 12.5888C2.54138 12.7127 2.84583 12.7754 3.17263 12.7754H9.42914V11.4142H3.17263C2.90033 11.4142 2.66866 11.3203 2.47919 11.1309C2.28973 10.9409 2.19523 10.7097 2.19523 10.4374V8.73968ZM29.08 2.51025H24.2358C23.8496 2.51025 23.4907 2.59972 23.1585 2.77799C22.9418 2.89422 22.749 3.03692 22.5813 3.20479C22.4173 3.03692 22.2279 2.89422 22.0101 2.77799C21.6788 2.59972 21.3155 2.51025 20.9199 2.51025H16.0758C15.749 2.51025 15.4445 2.57246 15.1618 2.69689C14.8818 2.81973 14.6368 2.98698 14.4256 3.19801C14.2139 3.40921 14.0466 3.65475 13.9239 3.93538C13.8 4.21698 13.7372 4.52159 13.7372 4.84869V12.7754H15.0984V4.84869C15.0984 4.56996 15.1913 4.33592 15.3801 4.15038C15.5701 3.96375 15.8024 3.87098 16.0758 3.87098H20.9199C21.1944 3.87098 21.43 3.96484 21.6239 4.1521C21.8162 4.33764 21.91 4.57042 21.91 4.84869V12.7754H23.2585V4.84869C23.2585 4.56996 23.3513 4.33592 23.5401 4.15038C23.7302 3.96375 23.9625 3.87098 24.2358 3.87098H29.08C29.3618 3.87098 29.5979 3.96265 29.7889 4.15038C29.9779 4.33592 30.07 4.56996 30.07 4.84869V12.7754H31.4191V4.84869C31.4191 4.52159 31.3563 4.21698 31.2325 3.93538C31.1096 3.65475 30.9424 3.40921 30.7307 3.19801C30.5195 2.98698 30.274 2.81973 29.994 2.69689C29.7111 2.57246 29.4078 2.51025 29.08 2.51025ZM76.1335 2.51025H69.8648C69.538 2.51025 69.2329 2.57246 68.9507 2.69689C68.6707 2.81973 68.4258 2.98698 68.2139 3.19801C68.0029 3.40921 67.8357 3.65475 67.7123 3.93538C67.589 4.21698 67.5262 4.52159 67.5262 4.84869V10.4374C67.5262 10.7642 67.589 11.0687 67.7123 11.3516C67.8357 11.6309 68.0029 11.8764 68.2139 12.0876C68.4258 12.2987 68.6707 12.4659 68.9507 12.5888C69.2329 12.7127 69.538 12.7754 69.8648 12.7754H76.1335V11.4142H69.8648C69.5918 11.4142 69.3602 11.3203 69.1713 11.1309C68.9819 10.9409 68.8874 10.7097 68.8874 10.4374V4.84869C68.8874 4.57546 68.9819 4.34489 69.1713 4.15479C69.3602 3.96532 69.5918 3.87098 69.8648 3.87098H76.1335V2.51025ZM84.5769 6.54505C84.9725 6.54505 85.2941 6.22437 85.2941 5.82827V4.84869C85.2941 4.56996 85.2014 4.33592 85.0125 4.15038C84.822 3.96375 84.5903 3.87098 84.3169 3.87098H79.1871C78.9143 3.87098 78.6826 3.96375 78.4921 4.15038C78.3031 4.33592 78.2103 4.56996 78.2103 4.84869V12.7754H76.8491V4.84869C76.8491 4.52159 76.9119 4.21698 77.0352 3.93538C77.1581 3.65475 77.3264 3.40921 77.537 3.19801C77.7476 2.98698 77.9931 2.81973 78.2732 2.69689C78.556 2.57246 78.8604 2.51025 79.1871 2.51025H84.3169C84.6435 2.51025 84.9481 2.57246 85.2308 2.69689C85.5114 2.81973 85.7559 2.98698 85.9671 3.19801C86.1781 3.40921 86.3454 3.65475 86.4682 3.93538C86.5926 4.21698 86.6548 4.52159 86.6548 4.84869V12.7754H85.2941V8.61072C85.2941 8.21462 84.9725 7.89348 84.5769 7.89348H80.2161V6.54505H84.5769ZM96.4268 12.7754L92.8248 8.89025C92.5725 8.61795 92.4324 8.26121 92.4298 7.89018V7.85239H92.4302C92.4403 7.50559 92.583 7.17455 92.8287 6.92838C93.0841 6.67338 93.4298 6.52945 93.791 6.52945H95.1566C95.4366 6.52945 95.6738 6.43605 95.8628 6.24549C96.0527 6.05665 96.1472 5.82497 96.1472 5.55221V4.84869C96.1472 4.57546 96.0527 4.34489 95.8628 4.15479C95.6738 3.96485 95.4366 3.87098 95.1566 3.87098H89.7162C89.4434 3.87098 89.2128 3.96532 89.0227 4.15479C88.8333 4.34489 88.7394 4.57546 88.7394 4.84869V12.7754H87.3782V4.84869C87.3782 4.52159 87.4404 4.21698 87.5648 3.93538C87.6877 3.65475 87.8543 3.40921 88.0661 3.19801C88.2778 2.98698 88.5223 2.81973 88.8023 2.69689C89.085 2.57246 89.3895 2.51025 89.7162 2.51025H95.1566C95.4832 2.51025 95.7878 2.57246 96.0705 2.69689C96.3505 2.81973 96.5961 2.98698 96.8079 3.19801C97.0185 3.40921 97.1855 3.65475 97.3084 3.93538C97.4328 4.21698 97.4946 4.52159 97.4946 4.84869V5.55221C97.4946 5.87947 97.4328 6.18391 97.3084 6.46614C97.1855 6.74661 97.0185 6.99169 96.8079 7.20335C96.5961 7.41455 96.3505 7.58181 96.0705 7.70447C95.7878 7.82844 95.4628 7.89127 95.136 7.89127H94.3332C94.2532 7.89127 94.1809 7.93787 94.1482 8.01174C94.1154 8.0845 94.1288 8.17069 94.1831 8.23023L98.2913 12.7754H96.4268ZM39.8742 6.54505C40.2697 6.54505 40.5908 6.22437 40.5908 5.82827V4.84869C40.5908 4.56996 40.498 4.33592 40.3097 4.15038C40.1197 3.96375 39.8874 3.87098 39.6142 3.87098H34.4844C34.211 3.87098 33.9787 3.96375 33.7892 4.15038C33.5997 4.33592 33.507 4.56996 33.507 4.84869V12.7754H32.1458V4.84869C32.1458 4.52159 32.2091 4.21698 32.332 3.93538C32.4553 3.65475 32.6232 3.40921 32.8342 3.19801C33.0454 2.98698 33.2903 2.81973 33.5709 2.69689C33.8527 2.57246 34.1576 2.51025 34.4844 2.51025H39.6142C39.9408 2.51025 40.2453 2.57246 40.5275 2.69689C40.8075 2.81973 41.0526 2.98698 41.2642 3.19801C41.4754 3.40921 41.6432 3.65475 41.7665 3.93538C41.8894 4.21698 41.9526 4.52159 41.9526 4.84869V12.7754H40.5908V8.61072C40.5908 8.21462 40.2697 7.89348 39.8742 7.89348H35.5133V6.54505H39.8742ZM63.2215 2.51025H53.148V3.87098H56.9755V12.7754H58.3227V3.87098H63.2215V2.51025ZM51.7235 12.7754L48.1219 8.89025C47.8691 8.61795 47.7287 8.26121 47.727 7.89018V7.85239H47.7275C47.7381 7.50559 47.8797 7.17455 48.1254 6.92838C48.3809 6.67338 48.727 6.52945 49.0882 6.52945H50.4533C50.7344 6.52945 50.97 6.43605 51.1606 6.24549C51.3501 6.05665 51.4439 5.82497 51.4439 5.55221V4.84869C51.4439 4.57546 51.3501 4.34489 51.1606 4.15479C50.97 3.96485 50.7344 3.87098 50.4533 3.87098H45.0135C44.7406 3.87098 44.5095 3.96532 44.3201 4.15479C44.1306 4.34489 44.0367 4.57546 44.0367 4.84869V12.7754H42.6749V4.84869C42.6749 4.52159 42.7382 4.21698 42.8615 3.93538C42.9844 3.65475 43.1521 3.40921 43.3633 3.19801C43.575 2.98698 43.82 2.81973 44.0994 2.69689C44.3823 2.57246 44.6867 2.51025 45.0135 2.51025H50.4533C50.7799 2.51025 51.085 2.57246 51.3672 2.69689C51.6478 2.81973 51.8934 2.98698 52.1046 3.19801C52.3156 3.40921 52.4835 3.65475 52.6057 3.93538C52.729 4.21698 52.7917 4.52159 52.7917 4.84869V5.55221C52.7917 5.87947 52.729 6.18391 52.6057 6.46614C52.4835 6.74661 52.3156 6.99169 52.1046 7.20335C51.8934 7.41455 51.6478 7.58181 51.3672 7.70447C51.085 7.82844 50.7605 7.89127 50.4333 7.89127H49.6304C49.5499 7.89127 49.4782 7.93787 49.4448 8.01174C49.4121 8.0845 49.4266 8.17069 49.4798 8.23023L53.5885 12.7754H51.7235Z" fill="#E8E8E8"/>
<path fill-rule="evenodd" clip-rule="evenodd" d="M117.89 9.41151L113.944 8.0881C113.911 8.0837 113.89 8.08037 113.868 8.07977C113.766 8.08037 113.666 8.12873 113.604 8.20763C113.561 8.2615 113.56 8.28086 113.538 8.34479L113.529 8.42039V12.0345C113.529 12.0823 113.503 12.1257 113.46 12.1473C113.441 12.1567 113.421 12.1612 113.402 12.1612C113.375 12.1618 113.349 12.1534 113.326 12.1367C112.21 11.3184 103.56 4.97464 103.56 4.97464C103.51 4.9373 103.493 4.86896 103.522 4.81336C103.551 4.7584 103.616 4.7318 103.675 4.7518L105.28 5.29011V3.24162C105.28 1.70938 106.522 0.467529 108.054 0.467529H116.857C118.389 0.467529 119.631 1.70938 119.631 3.24162V8.6787L117.89 7.4019V3.66729C117.89 3.28003 117.737 2.90881 117.463 2.63558C117.19 2.36154 116.818 2.20769 116.431 2.20769H108.48C108.093 2.20769 107.722 2.36154 107.448 2.63558C107.174 2.90881 107.02 3.28003 107.02 3.66729V5.87407L110.966 7.19748C111 7.20081 111.021 7.20537 111.043 7.20584C111.145 7.20537 111.245 7.15638 111.307 7.07748C111.35 7.02424 111.351 7.00424 111.373 6.94141L111.382 6.86534V3.25104C111.382 3.20334 111.408 3.15942 111.451 3.13782C111.47 3.12838 111.489 3.12396 111.509 3.12443C111.536 3.12396 111.562 3.13213 111.585 3.14883C112.701 3.96733 121.351 10.3111 121.351 10.3111C121.401 10.3483 121.418 10.4161 121.389 10.4716C121.36 10.5272 121.295 10.5538 121.236 10.5338L119.631 9.99547V12.044C119.631 13.5764 118.389 14.818 116.857 14.818H108.054C106.522 14.818 105.28 13.5764 105.28 12.044V6.73966L107.02 8.01597V11.6184C107.02 12.0051 107.174 12.3763 107.448 12.6502C107.722 12.9241 108.093 13.0775 108.48 13.0775H116.431C116.818 13.0775 117.19 12.9241 117.463 12.6502C117.737 12.3763 117.89 12.0051 117.89 11.6184V9.41151Z" fill="#E8E8E8"/>
</svg>
