<svg width="115" height="24" viewBox="0 0 115 24" fill="none" xmlns="http://www.w3.org/2000/svg">
<path fill-rule="evenodd" clip-rule="evenodd" d="M35.0675 6.90415V9.3773V9.83904H35.5292H37.309H42.3254C42.5798 9.83904 42.7872 10.0465 42.7872 10.3008V11.9219C42.7872 12.1762 42.5798 12.3837 42.3254 12.3837H37.309H35.5292H35.0675V12.8454V15.7876V16.2493H35.5292H37.309H43.1854C43.4397 16.2493 43.6471 16.4568 43.6471 16.7111V18.3322C43.6471 18.5865 43.4397 18.794 43.1854 18.794H32.7696C32.5153 18.794 32.3079 18.5865 32.3079 18.3322V4.35956C32.3079 4.10523 32.5153 3.89779 32.7696 3.89779H42.8532C43.1075 3.89779 43.3149 4.10523 43.3149 4.35956V5.98068C43.3149 6.23502 43.1075 6.44243 42.8532 6.44243H37.309H35.5292H35.0675V6.90415ZM47.5363 8.46222C48.2929 7.83325 49.2295 7.53292 50.3063 7.53292C50.9483 7.53292 51.5757 7.64557 52.1675 7.89813C52.691 8.1215 53.1726 8.44622 53.5072 8.91378C53.8157 9.34488 54.0123 9.83618 54.1168 10.3544C54.1639 10.5879 54.1831 10.8377 54.1964 11.0754C54.2157 11.4209 54.2202 11.7686 54.2202 12.1146V18.3322C54.2202 18.5865 54.0128 18.794 53.7585 18.794H52.0591C51.8048 18.794 51.5974 18.5865 51.5974 18.3322V12.1797C51.5974 11.7669 51.5797 11.1618 51.4291 10.7726C51.3267 10.5077 51.1466 10.312 50.9048 10.1645C50.6146 9.98723 50.2817 9.92118 49.9447 9.92118C49.3368 9.92118 48.8108 10.1061 48.3526 10.5066C47.7893 10.9991 47.7122 12.1202 47.7122 12.8084V18.3322C47.7122 18.5865 47.5048 18.794 47.2504 18.794H45.5512C45.2968 18.794 45.0894 18.5865 45.0894 18.3322V8.20962C45.0894 7.95528 45.2968 7.7479 45.5512 7.7479H47.0746C47.3289 7.7479 47.5363 7.95528 47.5363 8.20962V8.46222ZM61.7623 18.4638C61.2658 18.6816 60.7203 18.794 60.1269 18.794C58.6682 18.794 57.4208 18.2798 56.5298 17.1076C55.6647 15.9696 55.2912 14.6454 55.2912 13.222C55.2912 12.2375 55.4649 11.2751 55.8517 10.3676C56.2154 9.51459 56.7644 8.79586 57.5365 8.27732C58.3148 7.75466 59.2004 7.53292 60.1334 7.53292C61.0971 7.53292 61.9339 7.82086 62.6395 8.36636V8.20962C62.6395 7.95528 62.8469 7.7479 63.1013 7.7479H64.6638C64.9181 7.7479 65.1255 7.95528 65.1255 8.20962V16.9581C65.1255 18.0153 65.0686 19.5455 64.5977 20.511C64.2235 21.2785 63.6319 21.8597 62.8846 22.2693C62.0336 22.7356 61.0588 22.8981 60.0976 22.8981C58.9691 22.8981 57.8341 22.6729 56.9067 21.9972C55.9763 21.3193 55.6187 20.3124 55.6428 19.1847C55.6457 19.048 55.7011 18.9315 55.8053 18.8428C55.9095 18.7542 56.0335 18.7183 56.169 18.7374L57.811 18.9692C58.0187 18.9986 58.1758 19.1565 58.204 19.3643C58.2457 19.6717 58.349 19.9897 58.6078 20.1819C59.0214 20.4889 59.5862 20.5685 60.0878 20.5685C60.6075 20.5685 61.2329 20.4951 61.6654 20.1796C62.186 19.7999 62.492 18.5892 62.3962 18.051C62.2317 18.2335 61.9224 18.3935 61.7623 18.4638ZM69.7426 15.9519C70.2316 16.4621 70.8251 16.6989 71.5306 16.6989C72.0179 16.6989 72.4759 16.5843 72.8694 16.2903C73.3101 15.961 73.5886 15.4218 73.7705 14.9145C73.8447 14.7076 74.0477 14.5839 74.2655 14.6127L76.0241 14.8445C76.1609 14.8626 76.2715 14.9315 76.348 15.0463C76.4245 15.161 76.4455 15.2896 76.4095 15.4228C76.1237 16.4803 75.5785 17.3972 74.6982 18.0613C73.7776 18.7557 72.6676 19.009 71.5306 19.009C70.0588 19.009 68.7135 18.5806 67.6857 17.5006C66.6146 16.3752 66.2616 14.8711 66.2616 13.3556C66.2616 11.8049 66.6107 10.2504 67.6955 9.08688C68.6967 8.01315 69.976 7.53292 71.4361 7.53292C72.8612 7.53292 74.1047 8.00926 75.0795 9.05813C76.1438 10.2034 76.4868 11.7304 76.4868 13.2546C76.4868 13.4079 76.4821 13.562 76.4772 13.7152C76.4692 13.9642 76.2648 14.1621 76.0157 14.1621H68.9335C69.0234 14.7523 69.3355 15.5272 69.7426 15.9519ZM77.984 9.9798H77.1824C76.9282 9.9798 76.7207 9.77239 76.7207 9.51805V8.20962C76.7207 7.95528 76.9281 7.7512 77.1824 7.7479L77.9932 7.73725L77.991 5.69706C77.991 5.5303 78.0721 5.38705 78.2151 5.30118L79.9144 4.28094C80.0609 4.19298 80.2308 4.19078 80.3795 4.27498C80.5283 4.35918 80.6138 4.5059 80.6138 4.67683L80.6276 7.7479H81.8719C82.1262 7.7479 82.3337 7.95532 82.3337 8.20962V9.51805C82.3337 9.77235 82.1262 9.9798 81.8719 9.9798H80.614L80.6138 15.4695C80.6138 15.6271 80.6132 16.0915 80.6673 16.2368L80.6701 16.2431C80.6932 16.2984 80.7305 16.3351 80.7805 16.3667C80.8675 16.4164 81.0376 16.4252 81.133 16.4252C81.3534 16.4252 81.5883 16.3951 81.8065 16.3631C82.0569 16.3263 82.2913 16.4993 82.3299 16.7494L82.5614 18.2476C82.5989 18.4906 82.44 18.72 82.1993 18.7702C81.7503 18.8638 81.2828 18.9307 80.8236 18.9307C80.2628 18.9307 79.6418 18.8592 79.1481 18.5737C78.7432 18.3396 78.424 18.0152 78.2368 17.5842C77.9965 17.0309 77.991 15.9711 77.991 15.3718L77.984 9.9798ZM89.4134 18.2051C89.1279 18.3767 88.8302 18.5262 88.5217 18.6438C87.8608 18.8957 87.1681 19.009 86.4619 19.009C85.4293 19.009 84.3755 18.7896 83.589 18.0779C82.8818 17.438 82.5414 16.6164 82.5414 15.665C82.5414 15.1085 82.6674 14.5763 82.9363 14.0887C83.1901 13.6286 83.5328 13.243 83.9681 12.9489C84.3897 12.6641 84.8501 12.4559 85.3412 12.3236C85.8469 12.1873 86.4162 12.1161 86.9359 12.0539C87.5297 11.9828 88.1259 11.8999 88.7134 11.7872C88.8908 11.7532 89.0714 11.7163 89.2511 11.674C89.3797 11.6437 89.5195 11.6214 89.6402 11.5383C89.6848 11.4614 89.679 11.1107 89.6061 10.8336C89.4974 10.4207 89.28 10.1955 88.8906 10.0419C88.4941 9.88535 88.0193 9.86256 87.6182 9.86256C87.1507 9.86256 86.4824 9.91407 86.0907 10.2017C85.7177 10.4755 85.5177 11.0187 85.4062 11.45C85.3472 11.6783 85.1289 11.8243 84.8953 11.7918L83.2346 11.56C83.1029 11.5416 82.9963 11.4764 82.9201 11.3674C82.8438 11.2584 82.819 11.136 82.8469 11.0059C82.994 10.32 83.2483 9.63873 83.6882 9.08469C84.1329 8.52469 84.7473 8.15842 85.4128 7.91805C86.1955 7.63532 87.0433 7.53292 87.8723 7.53292C88.6209 7.53292 89.444 7.60142 90.1493 7.86829C90.6619 8.06222 91.181 8.34303 91.5339 8.77279C92.046 9.39649 92.1952 10.0627 92.2363 10.8227C92.2541 11.1516 92.2585 11.4823 92.2585 11.8116V14.0918C92.2585 14.7358 92.2626 15.3821 92.2857 16.0257C92.2974 16.3516 92.3073 16.7228 92.3601 17.0446C92.4219 17.4214 92.5477 17.7792 92.726 18.1165C92.8037 18.2638 92.7991 18.4279 92.7132 18.5705C92.6272 18.7131 92.4842 18.794 92.3177 18.794H90.5432C90.3607 18.794 90.2044 18.6952 90.1261 18.5303C90.1084 18.4931 90.0915 18.4556 90.0752 18.4179C90.0206 18.2912 89.9591 18.0767 89.8717 17.9126C89.7545 18.023 89.5317 18.134 89.4134 18.2051ZM96.4441 8.46222C97.2007 7.83325 98.1373 7.53292 99.2141 7.53292C99.8562 7.53292 100.484 7.64557 101.075 7.89813C101.599 8.1215 102.081 8.44622 102.415 8.91378C102.724 9.34488 102.92 9.83618 103.025 10.3544C103.072 10.5879 103.091 10.8377 103.104 11.0754C103.124 11.4209 103.128 11.7686 103.128 12.1146V18.3322C103.128 18.5865 102.921 18.794 102.666 18.794H100.967C100.713 18.794 100.505 18.5865 100.505 18.3322V12.1797C100.505 11.7669 100.487 11.1618 100.337 10.7726C100.234 10.5077 100.054 10.312 99.8126 10.1645C99.5224 9.98723 99.1895 9.92118 98.8525 9.92118C98.2447 9.92118 97.7186 10.1061 97.2604 10.5066C96.6971 10.9991 96.62 12.1202 96.62 12.8084V18.3322C96.62 18.5865 96.4126 18.794 96.1583 18.794H94.4589C94.2046 18.794 93.9972 18.5865 93.9972 18.3322V8.20962C93.9972 7.95528 94.2046 7.7479 94.4589 7.7479H95.9824C96.2367 7.7479 96.4441 7.95528 96.4441 8.20962V8.46222ZM110.785 7.88532C110.875 7.79402 110.986 7.7479 111.114 7.7479H113.306C113.498 7.7479 113.661 7.85804 113.734 8.03571C113.806 8.21341 113.766 8.40702 113.628 8.54042L110.05 12.0026L114.087 18.0756C114.183 18.2212 114.192 18.3956 114.11 18.5499C114.028 18.7041 113.878 18.794 113.703 18.794H111.61C111.449 18.794 111.311 18.7188 111.223 18.5838C110.942 18.152 108.271 13.8977 108.171 13.8866C108.045 13.8724 107.763 14.2511 107.636 14.3744C107.543 14.4647 107.496 14.5761 107.496 14.7055V18.3322C107.496 18.5865 107.289 18.794 107.034 18.794H105.335C105.081 18.794 104.873 18.5865 104.873 18.3322V4.35956C104.873 4.10523 105.081 3.89779 105.335 3.89779H107.034C107.289 3.89779 107.493 4.10526 107.496 4.35956L107.571 11.1291C107.645 11.1595 110.783 7.88802 110.785 7.88532ZM57.953 13.0983C57.953 13.9331 58.0604 15.0444 58.6339 15.7044C59.0733 16.2101 59.609 16.4643 60.28 16.4643C60.9516 16.4643 61.4878 16.2102 61.932 15.7079C62.5074 15.0574 62.62 13.9834 62.62 13.1537C62.62 12.3063 62.4843 11.312 61.9045 10.6499C61.4623 10.1449 60.9293 9.86256 60.2539 9.86256C59.5909 9.86256 59.0736 10.1389 58.6441 10.6349C58.0805 11.2859 57.953 12.2696 57.953 13.0983ZM73.8076 11.814C73.6616 11.1684 73.3322 10.6732 72.8193 10.2816C72.432 9.98593 71.9774 9.84298 71.4459 9.84298C70.7956 9.84298 70.2405 10.047 69.7758 10.5047C69.4475 10.828 69.1463 11.3515 69.0842 11.814H73.8076ZM87.3165 14.3531C86.9084 14.4108 86.3074 14.498 85.928 14.6624C85.7318 14.7474 85.5666 14.87 85.4482 15.0499C85.3343 15.2231 85.2815 15.4088 85.2815 15.6162C85.2815 15.9426 85.401 16.1981 85.6474 16.4122C85.9708 16.6933 86.4635 16.7575 86.8755 16.7575C87.4206 16.7575 87.9456 16.6488 88.4241 16.3815C88.8398 16.1495 89.1671 15.8309 89.3743 15.4007C89.5458 15.0447 89.6289 14.286 89.623 13.8797C89.4715 13.9957 87.5852 14.3152 87.3165 14.3531ZM18.4357 23.1614H12.2172C9.20655 23.1614 6.34579 21.9631 4.21873 19.836C2.09166 17.709 0.893311 14.8483 0.893311 11.8376V11.4483C0.893311 8.43767 2.09166 5.57696 4.21873 3.44993C6.34579 1.32286 9.20655 0.124512 12.2172 0.124512H18.4357C21.4464 0.124512 24.3071 1.32286 26.4342 3.44993C28.5613 5.57696 29.7596 8.43767 29.7596 11.4483V11.8376C29.7596 14.8483 28.5613 17.709 26.4342 19.836C24.3071 21.9631 21.4464 23.1614 18.4357 23.1614ZM14.9195 18.0044H16.5543V14.4229C16.5543 14.1969 16.7386 14.0125 16.9647 14.0125H18.279C18.5051 14.0125 18.6894 14.1969 18.6894 14.4229V18.0044H19.4782C19.6393 18.0044 19.7771 18.0907 19.8475 18.2356C19.9177 18.3805 19.9003 18.5423 19.8006 18.6688L18.201 20.6988H18.4357C20.5502 20.6988 22.5679 19.9422 24.1626 18.5842L21.6248 18.2832C21.4649 18.2643 21.3381 18.1623 21.2853 18.0101C21.2326 17.8579 21.2691 17.6994 21.3829 17.5855L21.9407 17.0278L19.4082 14.4953C19.2484 14.3354 19.2484 14.0746 19.4082 13.9148L20.3375 12.9855C20.4974 12.8257 20.7581 12.8257 20.9179 12.9855L23.4504 15.518L24.0082 14.9602C24.1221 14.8463 24.2807 14.8099 24.4329 14.8626C24.5851 14.9154 24.6871 15.0421 24.706 15.202L25.0095 17.7617C26.3721 16.2529 27.1773 14.3351 27.2846 12.3041L25.3716 13.8115C25.2451 13.9112 25.0833 13.9287 24.9384 13.8584C24.7935 13.7881 24.7071 13.6502 24.7071 13.4891V12.7004H21.1257C20.8996 12.7004 20.7152 12.516 20.7152 12.29V10.9757C20.7152 10.7496 20.8996 10.5652 21.1257 10.5652H24.7071V9.77636C24.7071 9.61533 24.7935 9.47739 24.9384 9.40709C25.0833 9.33682 25.2451 9.35432 25.3716 9.45399L27.2834 10.9605C27.1689 8.88841 26.328 6.93528 24.9099 5.41568L24.6107 7.93915C24.5917 8.09908 24.4896 8.22586 24.3375 8.27863C24.1853 8.33139 24.0267 8.29495 23.9128 8.18105L23.355 7.62326L20.8226 10.1557C20.6627 10.3156 20.4019 10.3156 20.2421 10.1557L19.3128 9.22641C19.1529 9.06655 19.1529 8.80581 19.3128 8.64594L21.8452 6.1135L21.2875 5.55579C21.1737 5.44189 21.1372 5.28333 21.19 5.13113C21.2427 4.97896 21.3694 4.87691 21.5294 4.85798L23.9984 4.56519C22.4305 3.29312 20.4782 2.58712 18.4357 2.58712H18.2864L19.8005 4.50876C19.9002 4.63526 19.9178 4.79706 19.8475 4.94196C19.7772 5.08683 19.6392 5.17321 19.4782 5.17321H18.6894V8.75469C18.6894 8.98076 18.5051 9.16511 18.279 9.16511H16.9647C16.7386 9.16511 16.5543 8.98076 16.5543 8.75469V5.17321H14.2359V8.75469C14.2359 8.98076 14.0515 9.16511 13.8254 9.16511H12.5112C12.2851 9.16511 12.1008 8.98076 12.1008 8.75469V5.17321H11.3119C11.1508 5.17321 11.0129 5.08681 10.9426 4.94191C10.8723 4.79701 10.8899 4.63523 10.9896 4.50873L12.5038 2.58712H12.2172C10.175 2.58712 8.22299 3.29294 6.65519 4.56464L9.12867 4.85798C9.28861 4.87691 9.41542 4.97895 9.46815 5.13115C9.52092 5.28332 9.48447 5.44189 9.3706 5.55579L8.81284 6.1135L11.3453 8.64594C11.5052 8.80581 11.5052 9.06655 11.3453 9.22641L10.416 10.1557C10.2562 10.3156 9.99542 10.3156 9.83555 10.1557L7.3031 7.62326L6.74529 8.18105C6.63139 8.29495 6.47277 8.33139 6.3206 8.27865C6.16844 8.22589 6.06644 8.09907 6.04748 7.93917L5.74763 5.41081C4.29903 6.96075 3.45151 8.96266 3.36368 11.0821L5.42972 9.45399C5.55622 9.35432 5.71796 9.33682 5.86289 9.40709C6.00779 9.47739 6.0942 9.61533 6.0942 9.77636V10.5652H9.67565C9.90172 10.5652 10.0861 10.7496 10.0861 10.9757V12.29C10.0861 12.516 9.90172 12.7004 9.67565 12.7004H6.0942V13.4891C6.0942 13.6502 6.00781 13.7881 5.86295 13.8584C5.71805 13.9287 5.55622 13.9112 5.42972 13.8115L3.36274 12.1828C3.44624 14.3218 4.30374 16.3423 5.7719 17.9008L6.0919 15.202C6.11087 15.0421 6.21291 14.9154 6.36508 14.8626C6.51725 14.8099 6.67585 14.8463 6.78972 14.9602L7.34748 15.518L9.87998 12.9855C10.0398 12.8257 10.3006 12.8257 10.4604 12.9855L11.3898 13.9148C11.5496 14.0746 11.5496 14.3354 11.3898 14.4953L8.85727 17.0278L9.41503 17.5855C9.5289 17.6994 9.56531 17.8579 9.51258 18.0101C9.45985 18.1623 9.33304 18.2643 9.1731 18.2832L6.508 18.5993C8.0999 19.9478 10.1106 20.6988 12.2172 20.6988H12.5891L10.9896 18.6688C10.8899 18.5423 10.8723 18.3805 10.9426 18.2356C11.0129 18.0907 11.1508 18.0044 11.3119 18.0044H12.1008V14.4229C12.1008 14.1969 12.2851 14.0125 12.5112 14.0125H13.8254C14.0515 14.0125 14.2359 14.1969 14.2359 14.4229V18.0044H14.9195ZM17.0427 20.6988L15.3951 18.6079L13.7475 20.6988H17.0427ZM15.3951 4.56969L16.9573 2.58712H13.8328L15.3951 4.56969Z" fill="#E8E8E8"/>
</svg>
