<svg width="125" height="36" viewBox="0 0 125 36" fill="none" xmlns="http://www.w3.org/2000/svg">
<path d="M16.5231 25.2442V25.2459C7.29758 24.8311 0.124146 21.6833 0.124146 17.8612C0.124146 14.8689 4.52192 12.2894 10.8585 11.1138C6.42559 19.1279 16.3063 25.1181 16.5231 25.2442Z" fill="#E8E8E8"/>
<path d="M37.0624 17.8612C37.0624 21.9648 28.7944 25.2922 18.5932 25.2922C17.8933 25.2922 17.2063 25.2775 16.5266 25.2459C16.5212 25.1481 16.4305 22.2535 24.7669 16.0947C26.7758 14.6117 28.048 13.1153 28.7924 11.6654C33.7771 12.9969 37.0624 15.2745 37.0624 17.8612Z" fill="#E8E8E8"/>
<path d="M16.5248 25.2458H16.5267V25.2479L16.5248 25.2458Z" fill="#E8E8E8"/>
<path d="M23.9958 15.7631C15.5113 22.0306 15.7538 24.9164 15.7538 24.9164C15.7538 24.9164 4.45481 14.5932 18.5047 6.28792C25.32 2.25939 24.7676 0.190552 24.7676 0.190552C24.7676 0.190552 34.5588 7.96048 23.9958 15.7631Z" fill="#E8E8E8"/>
<path d="M42.522 6.01929V23.9568H45.1628V6.01929H42.522Z" fill="#E8E8E8"/>
<path d="M47.6793 11.5999H50.3199V23.9568H47.6793V11.5999ZM48.9994 9.25829C48.5011 9.25829 48.09 9.10482 47.7659 8.79725C47.4424 8.49022 47.2808 8.10402 47.2808 7.63885C47.2808 7.17398 47.4424 6.78798 47.7659 6.48035C48.09 6.17315 48.5011 6.01929 48.9994 6.01929C49.4976 6.01929 49.9087 6.17315 50.2328 6.48035C50.5564 6.78798 50.7184 7.17398 50.7184 7.63885C50.7184 8.10402 50.5564 8.49022 50.2328 8.79725C49.9087 9.10482 49.4976 9.25829 48.9994 9.25829Z" fill="#E8E8E8"/>
<path d="M58.9145 21.9641C60.0439 21.9641 60.9702 21.5737 61.6929 20.793C62.4151 20.0124 62.7764 19.008 62.7764 17.7785C62.7764 16.5329 62.4151 15.5237 61.6929 14.7516C60.9702 13.9793 60.0439 13.5932 58.9145 13.5932C57.785 13.5932 56.8549 13.9793 56.1244 14.7516C55.3931 15.5237 55.0283 16.5329 55.0283 17.7785C55.0283 18.5923 55.1938 19.3148 55.5266 19.9459C55.8584 20.5773 56.3198 21.0713 56.909 21.4282C57.4987 21.7857 58.1676 21.9641 58.9145 21.9641ZM62.7764 29.438V22.0385C62.3778 22.6201 61.8293 23.1348 61.1323 23.5834C60.4343 24.0315 59.5376 24.2558 58.4414 24.2558C57.2457 24.2558 56.1907 23.9732 55.2775 23.4088C54.3637 22.8445 53.6498 22.072 53.1346 21.0919C52.62 20.1122 52.3627 18.9993 52.3627 17.7535C52.3627 16.508 52.62 15.3994 53.1346 14.4278C53.6498 13.456 54.368 12.6923 55.29 12.1357C56.2115 11.5796 57.2704 11.3013 58.4666 11.3013C59.4461 11.3013 60.3057 11.4923 61.0448 11.874C61.7834 12.2563 62.3609 12.7959 62.7764 13.4935L63.0502 11.6H65.417V29.438H62.7764Z" fill="#E8E8E8"/>
<path d="M79.119 11.6V23.9571H76.7774L76.5782 21.7894C76.1955 22.5535 75.6354 23.1558 74.8968 23.5956C74.1572 24.0355 73.3059 24.2558 72.3428 24.2558C70.8481 24.2558 69.6731 23.7912 68.8179 22.8608C67.9618 21.9307 67.5347 20.5438 67.5347 18.7003V11.6H70.1506V18.4261C70.1506 20.8179 71.1301 22.0135 73.0901 22.0135C74.0701 22.0135 74.8799 21.6649 75.5193 20.9675C76.1583 20.2697 76.4785 19.2734 76.4785 17.9778V11.6H79.119Z" fill="#E8E8E8"/>
<path d="M81.6353 11.5999H84.2764V23.9568H81.6353V11.5999ZM82.9559 9.25829C82.4572 9.25829 82.0465 9.10482 81.7224 8.79725C81.3988 8.49022 81.2367 8.10402 81.2367 7.63885C81.2367 7.17398 81.3988 6.78798 81.7224 6.48035C82.0465 6.17315 82.4572 6.01929 82.9559 6.01929C83.4541 6.01929 83.8647 6.17315 84.1888 6.48035C84.5124 6.78798 84.675 7.17398 84.675 7.63885C84.675 8.10402 84.5124 8.49022 84.1888 8.79725C83.8647 9.10482 83.4541 9.25829 82.9559 9.25829Z" fill="#E8E8E8"/>
<path d="M91.8242 18.1023C92.5885 18.1023 93.2071 17.899 93.6806 17.492C94.1537 17.0852 94.3907 16.508 94.3907 15.7607C94.3907 14.9968 94.1537 14.4154 93.6806 14.0166C93.2071 13.618 92.5885 13.4188 91.8242 13.4188C91.0435 13.4188 90.4171 13.618 89.944 14.0166C89.4705 14.4154 89.2334 14.9968 89.2334 15.7607C89.2334 16.508 89.4705 17.0852 89.944 17.492C90.4171 17.899 91.0435 18.1023 91.8242 18.1023ZM88.5107 25.5263C88.5107 26.2403 88.8261 26.7758 89.4579 27.1333C90.0886 27.4903 90.8776 27.669 91.8242 27.669C92.7374 27.669 93.477 27.4736 94.0415 27.0834C94.6065 26.6931 94.889 26.174 94.889 25.5263C94.889 25.0447 94.6979 24.6335 94.3158 24.2932C93.9337 23.9529 93.211 23.7411 92.1483 23.658C91.3511 23.6079 90.6454 23.5333 90.0311 23.4339C89.4491 23.7493 89.0506 24.0899 88.8349 24.4553C88.6192 24.8204 88.5107 25.1777 88.5107 25.5263ZM91.8242 20.17C91.177 20.17 90.5786 20.0953 90.0311 19.9459L88.9592 20.9921C89.142 21.1088 89.3665 21.2082 89.6325 21.2912C89.8975 21.3745 90.2715 21.4492 90.7533 21.5155C91.235 21.582 91.8909 21.6485 92.7214 21.7147C94.3661 21.8643 95.5531 22.2588 96.284 22.8982C97.0149 23.5376 97.3801 24.3887 97.3801 25.4517C97.3801 26.1824 97.1846 26.8756 96.7948 27.532C96.4045 28.1878 95.7978 28.7192 94.9761 29.1266C94.1537 29.5332 93.1036 29.7368 91.8242 29.7368C90.0974 29.7368 88.698 29.4084 87.6265 28.7526C86.5556 28.0964 86.0197 27.1042 86.0197 25.7755C86.0197 25.2607 86.1566 24.7499 86.4309 24.2436C86.7051 23.737 87.1409 23.2593 87.7387 22.8109C87.39 22.6615 87.0867 22.4995 86.8294 22.3252C86.5716 22.1507 86.3438 21.9726 86.1444 21.7894V21.1916L88.2873 18.9993C87.3233 18.1688 86.8419 17.0809 86.8419 15.7355C86.8419 14.9219 87.0369 14.1786 87.4277 13.5059C87.8176 12.8333 88.3864 12.2976 89.1338 11.8989C89.8811 11.5002 90.7784 11.3013 91.8242 11.3013C92.5222 11.3013 93.1699 11.4007 93.7677 11.6H98.3765V13.344L96.1843 13.4685C96.5829 14.1497 96.7822 14.9055 96.7822 15.7355C96.7822 16.5663 96.5868 17.3136 96.1969 17.9778C95.8066 18.6423 95.2416 19.1736 94.5025 19.5722C93.7634 19.9708 92.871 20.17 91.8242 20.17Z" fill="#E8E8E8"/>
<path d="M104.132 10.6284V8.73512L109.563 5.64575V7.83822L104.132 10.6284ZM105.353 21.9641C106.482 21.9641 107.408 21.574 108.13 20.7929C108.853 20.0126 109.214 19.0079 109.214 17.7785C109.214 16.5329 108.853 15.5237 108.13 14.7514C107.408 13.9792 106.482 13.5932 105.353 13.5932C104.223 13.5932 103.292 13.9792 102.562 14.7514C101.831 15.5237 101.466 16.5329 101.466 17.7785C101.466 18.5924 101.631 19.3148 101.964 19.9458C102.296 20.5773 102.757 21.0713 103.347 21.4282C103.936 21.7856 104.605 21.9641 105.353 21.9641ZM104.879 24.256C103.683 24.256 102.628 23.9731 101.715 23.4087C100.801 22.8445 100.087 22.0719 99.5727 21.0918C99.0575 20.1122 98.8002 18.9992 98.8002 17.7536C98.8002 16.5079 99.0575 15.3991 99.5727 14.4278C100.087 13.456 100.806 12.6922 101.728 12.1356C102.649 11.5793 103.708 11.3008 104.904 11.3008C105.884 11.3008 106.743 11.4923 107.482 11.8741C108.221 12.2562 108.798 12.7958 109.214 13.4935L109.363 11.6H111.855V23.9568H109.388L109.214 22.0385C108.815 22.6202 108.267 23.1347 107.569 23.5831C106.872 24.0315 105.975 24.256 104.879 24.256Z" fill="#E8E8E8"/>
<path d="M119.129 24.2558C117.568 24.2558 116.28 23.8739 115.268 23.11C114.254 22.3463 113.673 21.333 113.524 20.0704H116.19C116.322 20.6353 116.638 21.1212 117.136 21.5278C117.634 21.9351 118.29 22.1382 119.104 22.1382C119.902 22.1382 120.483 21.9724 120.848 21.6398C121.213 21.308 121.396 20.926 121.396 20.494C121.396 19.8631 121.143 19.4352 120.636 19.2111C120.13 18.9868 119.428 18.7837 118.531 18.6006C117.834 18.4513 117.14 18.2518 116.451 18.0027C115.761 17.7535 115.188 17.4009 114.732 16.9439C114.275 16.4872 114.047 15.8687 114.047 15.0878C114.047 14.0085 114.462 13.1072 115.293 12.3847C116.123 11.6623 117.286 11.3009 118.78 11.3009C120.158 11.3009 121.276 11.6335 122.131 12.2976C122.987 12.9621 123.489 13.9005 123.638 15.1128H121.097C121.014 14.5814 120.769 14.1659 120.363 13.8672C119.955 13.5681 119.411 13.4187 118.73 13.4187C118.066 13.4187 117.551 13.5557 117.186 13.8298C116.82 14.104 116.638 14.4567 116.638 14.8885C116.638 15.3206 116.891 15.6609 117.398 15.91C117.904 16.1589 118.573 16.3835 119.403 16.5828C120.233 16.7657 121.001 16.9775 121.708 17.218C122.413 17.4587 122.982 17.8119 123.414 18.2767C123.846 18.7421 124.062 19.4227 124.062 20.3196C124.078 21.4492 123.643 22.3875 122.754 23.1348C121.865 23.8823 120.657 24.2558 119.129 24.2558Z" fill="#E8E8E8"/>
<path d="M42.4838 32.6211H43.2519V34.3939C43.2519 34.8075 43.5054 35.0904 43.9567 35.0904C44.4051 35.0904 44.6663 34.8075 44.6663 34.3939V32.6211H45.4349V34.4491C45.4349 35.2046 44.8985 35.7028 43.9567 35.7028C43.0197 35.7028 42.4838 35.2046 42.4838 34.4447V32.6211Z" fill="#E8E8E8"/>
<path d="M46.6761 35.6182V32.6211H47.7736L48.4243 34.4491C48.4664 34.584 48.4959 34.6938 48.5084 34.7993H48.5166C48.5297 34.6938 48.5631 34.584 48.6057 34.4447L49.2388 32.6211H50.3576V35.6182H49.6524V33.6296C49.6524 33.4986 49.6611 33.351 49.6775 33.2204H49.6649C49.6485 33.3046 49.5973 33.4739 49.5552 33.5876L48.833 35.6182H48.1539L47.436 33.5876C47.3896 33.4696 47.3514 33.3172 47.3306 33.2243H47.318C47.3349 33.3428 47.3388 33.4865 47.3388 33.6296V35.6182H46.6761Z" fill="#E8E8E8"/>
<path d="M52.6286 34.4403H53.5699L53.2493 33.6045C53.2028 33.4865 53.1395 33.3002 53.1061 33.1445H53.093C53.0592 33.3002 52.992 33.4865 52.9498 33.6045L52.6286 34.4403ZM53.5573 32.6211L54.8198 35.6182H54.0217L53.7688 34.9594H52.4304L52.1769 35.6182H51.3793L52.6412 32.6211H53.5573Z" fill="#E8E8E8"/>
<path d="M57.8218 35.6182V32.6211H58.9193L59.5695 34.4491C59.6115 34.584 59.641 34.6938 59.6541 34.7993H59.6618C59.6749 34.6938 59.7087 34.584 59.7508 34.4447L60.384 32.6211H61.5028V35.6182H60.7981V33.6296C60.7981 33.4986 60.8063 33.351 60.8232 33.2204H60.8106C60.7937 33.3046 60.7429 33.4739 60.7008 33.5876L59.9787 35.6182H59.2991L58.5812 33.5876C58.5353 33.4696 58.497 33.3172 58.4757 33.2243H58.4632C58.4802 33.3428 58.4845 33.4865 58.4845 33.6296V35.6182H57.8218Z" fill="#E8E8E8"/>
<path d="M63.7743 34.4403H64.7156L64.3949 33.6045C64.3485 33.4865 64.2851 33.3002 64.2512 33.1445H64.2387C64.2048 33.3002 64.1376 33.4865 64.0955 33.6045L63.7743 34.4403ZM64.703 32.6211L65.9655 35.6182H65.1674L64.914 34.9594H63.576L63.3225 35.6182H62.5249L63.7869 32.6211H64.703Z" fill="#E8E8E8"/>
<path d="M67.7552 33.1488V33.9973H68.4478C68.8193 33.9973 68.9591 33.8072 68.9591 33.5624C68.9591 33.3259 68.8237 33.1488 68.4478 33.1488H67.7552ZM69.0094 35.6182L68.3719 34.5037H67.7552V35.6182H66.9871V32.6211H68.6123C69.4525 32.6211 69.765 33.0429 69.765 33.5537C69.765 33.9087 69.5836 34.2589 69.1405 34.4021L69.8579 35.6182H69.0094Z" fill="#E8E8E8"/>
<path d="M70.6686 34.1278C70.6686 33.1783 71.3356 32.5364 72.3615 32.5364C73.2143 32.5364 73.7885 32.9587 73.9191 33.6339L73.134 33.7733C73.0581 33.3679 72.7833 33.1401 72.3485 33.1401C71.8 33.1401 71.4662 33.5159 71.4662 34.1196C71.4662 34.7107 71.8043 35.0948 72.3615 35.0948C72.7833 35.0948 73.0581 34.8752 73.1466 34.4824L73.9235 34.6512C73.7377 35.3056 73.1848 35.7028 72.3446 35.7028C71.2891 35.7028 70.6686 35.0822 70.6686 34.1278Z" fill="#E8E8E8"/>
<path d="M75.8449 34.4403H76.7862L76.465 33.6045C76.419 33.4865 76.3551 33.3002 76.3213 33.1445H76.3087C76.2754 33.3002 76.2077 33.4865 76.165 33.6045L75.8449 34.4403ZM76.773 32.6211L78.0355 35.6182H77.2374L76.9844 34.9594H75.6461L75.393 35.6182H74.595L75.8574 32.6211H76.773Z" fill="#E8E8E8"/>
<path d="M80.8221 34.1278C80.8221 33.1783 81.4892 32.5364 82.5152 32.5364C83.368 32.5364 83.9421 32.9587 84.0727 33.6339L83.2872 33.7733C83.2117 33.3679 82.937 33.1401 82.5021 33.1401C81.9536 33.1401 81.6199 33.5159 81.6199 34.1196C81.6199 34.7107 81.9575 35.0948 82.5152 35.0948C82.937 35.0948 83.2117 34.8752 83.3002 34.4824L84.0771 34.6512C83.8914 35.3056 83.3385 35.7028 82.4983 35.7028C81.4428 35.7028 80.8221 35.0822 80.8221 34.1278Z" fill="#E8E8E8"/>
<path d="M87.6024 34.1196C87.6024 33.5072 87.256 33.1232 86.6988 33.1232C86.1459 33.1232 85.7996 33.5072 85.7996 34.1196C85.7996 34.7271 86.1459 35.1156 86.6988 35.1156C87.256 35.1156 87.6024 34.7315 87.6024 34.1196ZM84.9976 34.1196C84.9976 33.1527 85.669 32.5364 86.6988 32.5364C87.7334 32.5364 88.4005 33.1527 88.4005 34.1196C88.4005 35.086 87.7334 35.7023 86.6988 35.7023C85.669 35.7023 84.9976 35.0822 84.9976 34.1196Z" fill="#E8E8E8"/>
<path d="M90.9414 34.0563C91.2751 34.0563 91.4735 33.8914 91.4735 33.6045C91.4735 33.3215 91.2795 33.1571 90.9414 33.1571H90.2704V34.0563H90.9414ZM91.1271 32.6211C91.8367 32.6211 92.2798 32.9926 92.2798 33.5832C92.2798 34.1999 91.8285 34.5879 91.1107 34.5879H90.2704V35.6182H89.5023V32.6211H91.1271Z" fill="#E8E8E8"/>
<path d="M93.893 34.4403H94.8343L94.5131 33.6045C94.4672 33.4865 94.4038 33.3002 94.37 33.1445H94.3574C94.3235 33.3002 94.2558 33.4865 94.2137 33.6045L93.893 34.4403ZM94.8217 32.6211L96.0837 35.6182H95.2861L95.0326 34.9594H93.6942L93.4412 35.6182H92.6436L93.9056 32.6211H94.8217Z" fill="#E8E8E8"/>
<path d="M101.475 33.8241V34.3562H99.8542V35.0653H101.576V35.6182H99.0856V32.6211H101.547V33.174H99.8542V33.8241H101.475Z" fill="#E8E8E8"/>
<path d="M102.775 35.6182V32.6211H103.616L104.832 34.3305C104.908 34.4447 104.992 34.584 105.039 34.6977H105.051C105.047 34.5715 105.047 34.4403 105.047 34.2967V32.6211H105.748V35.6182H104.954L103.688 33.8918C103.607 33.769 103.531 33.6384 103.489 33.5324H103.477V35.6182H102.775Z" fill="#E8E8E8"/>
<path d="M109.451 33.8241V34.3562H107.829V35.0653H109.552V35.6182H107.061V32.6211H109.522V33.174H107.829V33.8241H109.451Z" fill="#E8E8E8"/>
<path d="M111.519 33.1488V33.9973H112.211C112.583 33.9973 112.722 33.8072 112.722 33.5624C112.722 33.3259 112.587 33.1488 112.211 33.1488H111.519ZM112.773 35.6182L112.135 34.5037H111.519V35.6182H110.75V32.6211H112.376C113.216 32.6211 113.528 33.0429 113.528 33.5537C113.528 33.9087 113.347 34.2589 112.904 34.4021L113.621 35.6182H112.773Z" fill="#E8E8E8"/>
<path d="M114.432 34.1365C114.432 33.1948 115.086 32.5364 116.133 32.5364C116.986 32.5364 117.527 32.9374 117.657 33.4821L116.868 33.6214C116.792 33.3302 116.551 33.1062 116.12 33.1062C115.554 33.1062 115.23 33.499 115.23 34.1278C115.23 34.7397 115.546 35.1368 116.129 35.1368C116.665 35.1368 116.948 34.8036 116.956 34.508V34.4698H116.053V33.9464H117.666V35.6181H117.1L117.066 35.1494C116.897 35.4662 116.526 35.7023 115.947 35.7023C115.006 35.7023 114.432 35.0696 114.432 34.1365Z" fill="#E8E8E8"/>
<path d="M118.869 32.6211V35.6184H119.637V32.6211H118.869Z" fill="#E8E8E8"/>
<path d="M121.913 34.4403H122.854L122.533 33.6045C122.487 33.4865 122.424 33.3002 122.39 33.1445H122.377C122.343 33.3002 122.276 33.4865 122.234 33.6045L121.913 34.4403ZM122.842 32.6211L124.104 35.6182H123.306L123.053 34.9594H121.715L121.461 35.6182H120.663L121.925 32.6211H122.842Z" fill="#E8E8E8"/>
</svg>
