<svg width="124" height="48" viewBox="0 0 124 48" fill="none" xmlns="http://www.w3.org/2000/svg">
<path d="M57.1694 19.6868C66.8223 19.5817 66.8222 19.5817 68.8262 19.6869C69.438 19.8991 70.0558 20.1308 70.6856 20.363C70.6856 20.5043 70.6856 20.6557 70.7078 20.8239C70.5982 21.1633 70.4727 21.4927 70.3487 21.827C70.1171 22.0202 69.8649 22.2297 69.6087 22.4419C69.0434 22.7567 68.4473 23.0695 67.8551 23.3818C67.3517 23.4917 66.8221 23.5962 66.2951 23.7209C65.3207 24.0578 64.3549 24.3897 63.3804 24.7502C60.1471 25.38 60.1471 25.38 56.242 26.2812C56.2002 26.2645 56.1593 26.2201 56.093 26.1735C56.115 23.1546 56.115 23.1546 55.9859 19.938C56.1152 19.8328 56.1151 19.8328 57.1694 19.6868ZM52.081 19.2912C51.0461 19.1838 50.0111 19.079 48.9785 18.9521C46.1258 19.0153 43.2778 19.1035 40.4023 19.1837C37.6788 19.118 34.9525 19.0594 32.2289 18.9734C29.9522 19.0393 27.6673 19.1179 25.3879 19.2051C24.038 19.1028 22.6618 18.9955 21.2928 18.8685H17.217C14.5129 19.059 14.5129 19.059 11.8767 19.1031C10.5394 18.9516 9.21415 18.8051 7.88375 18.6583C5.24292 18.6583 4.10341 18.783 2.53881 18.7245C1.42104 17.0011 1.42104 17.0011 1.46274 16.8962C1.92647 16.8547 2.412 16.811 2.90037 16.7473C3.76453 16.7474 4.6528 16.7674 5.53823 16.7864C8.58177 17.0818 8.58177 17.0818 10.3757 17.3992L14.1759 17.3993C15.506 17.5896 15.506 17.5896 17.2362 17.6115C17.6826 17.5457 18.1494 17.4821 18.6127 17.3993C24.4629 17.082 24.4629 17.082 27.3088 17.082C27.8773 16.9824 28.4681 16.8725 29.0635 16.7677C30.8599 16.7677 31.6798 16.8725 35.0795 16.8725C35.5043 16.9824 35.9265 17.0821 36.3709 17.2117C40.4271 17.1681 43.3824 17.3166 51.1318 17.2945C51.3877 17.3558 51.639 17.4193 51.9148 17.5046C52.8421 17.5463 53.794 17.612 54.7437 17.6707C54.9779 18.5982 54.9779 18.5982 54.9779 19.0791C54.7828 19.1619 54.7827 19.1619 52.081 19.2912ZM121.707 16.6221C118.246 16.5419 114.78 16.4561 111.337 16.3708C99.5534 16.329 99.5534 16.329 92.2679 16.4753C90.8937 16.4168 89.5219 16.3704 88.1506 16.3287C86.3325 16.4167 84.5196 16.4973 82.7031 16.5609C78.3049 16.4166 73.917 16.2871 69.5239 16.1601C66.4394 16.2458 66.4394 16.2458 62.9784 16.4749C62.4512 16.4164 61.9192 16.3702 61.392 16.3285C60.4226 16.4362 59.4543 16.5411 58.4778 16.6458H55.4178C55.3957 16.5143 55.3957 16.392 55.3957 16.2868C56.7913 16.2456 58.1656 16.2019 59.5351 16.16C60.2106 16.0381 64.3552 15.804 70.6638 15.1938C70.9837 15.0938 71.301 14.9837 71.6188 14.8791C73.0344 14.6911 74.4466 14.5251 75.8404 14.3568C76.6822 14.1003 77.2094 13.8276 77.9953 13.6196C80.7995 13.2004 81.4812 12.9899 83.4189 12.7387C83.4843 12.5923 83.5427 12.4484 83.6114 12.2968C83.5427 12.2117 83.4843 12.1484 83.4189 12.0873C83.1888 12.0626 82.953 12.0432 82.7228 12.0266C81.2876 12.2752 79.8719 12.5265 78.4561 12.7802C76.0499 13.5173 76.0499 13.5173 74.4271 13.8516C73.586 13.9149 72.7575 13.9735 71.9309 14.037C71.4497 14.1881 70.9617 14.3349 70.4983 14.4572C68.1915 14.669 65.9116 14.8789 63.6301 15.0937C62.5175 15.1305 61.4184 15.1717 60.3153 15.1937C59.7272 15.2965 56.4103 15.4057 55.2297 15.3401C54.9951 14.1637 54.766 12.9896 54.5538 11.8332C54.4681 11.6647 54.3854 11.5013 54.3216 11.3277C54.1943 11.2887 54.0674 11.245 53.943 11.2255C53.8579 11.4741 53.7942 11.7304 53.7309 11.9815C53.9189 12.4259 53.9189 12.4259 54.3385 14.5248C54.3216 14.7955 54.2996 15.0473 54.2996 15.2964C53.5798 15.3205 53.5799 15.3205 46.9505 14.7738C45.9771 14.5857 45.0061 14.4173 44.0589 14.2514C42.6236 13.8271 40.4637 13.4094 37.53 12.5917C36.6027 12.4015 35.6754 12.211 34.7651 12.0425C34.6187 11.9598 34.4723 11.8765 34.3428 11.8154C34.3207 11.6449 34.3034 11.4742 34.3034 11.3274C36.498 10.1538 38.6946 8.99693 40.8938 7.84486C45.0064 6.06097 45.0064 6.06096 48.9548 4.48426C50.4973 4.08893 52.0375 3.70366 53.558 3.33029C57.2946 2.69796 57.2946 2.69796 59.4913 2.4663C60.3841 2.48843 61.2678 2.51256 62.1343 2.51256C64.2451 2.82289 66.3584 3.1378 68.448 3.43073C70.093 4.06253 71.7208 4.69219 73.3486 5.32199C74.4027 5.93226 75.4382 6.52506 76.4728 7.10606C78.5226 7.9481 78.5226 7.9481 79.367 8.4118C79.9382 8.89787 80.5086 9.38063 81.0535 9.84193C81.3955 9.98576 81.7324 10.1323 82.0712 10.2617C83.3577 11.101 84.6216 11.9162 85.893 12.7388C85.976 12.8609 86.0592 12.9682 86.1441 13.071C86.2716 13.0537 86.4006 13.0367 86.5252 13.0367C86.628 12.7973 86.628 12.7973 86.5253 12.0627C85.9761 11.626 85.1097 11.1427 82.7033 9.52463C82.0907 9.2097 81.4813 8.91479 80.8855 8.62146C80.6528 8.37293 80.4221 8.11899 80.2065 7.88426C79.7041 7.59199 79.1989 7.29656 78.6914 7.00593C77.9489 6.71059 77.2316 6.43523 76.5145 6.16146C75.2915 5.45149 74.0854 4.75803 72.8828 4.06253C71.5528 3.64283 69.5073 2.80333 68.302 2.46643C66.1497 2.15409 63.9938 1.83919 61.8397 1.54639L59.4107 1.54626C57.6167 1.83903 55.8178 2.11237 54.0287 2.38347C52.8425 2.63937 51.6593 2.8906 50.4973 3.11796C49.6117 3.41286 48.7277 3.68626 47.859 3.95986C45.8088 4.80187 43.7587 5.63853 41.7352 6.47586C34.5967 10.1536 34.5967 10.1536 33.0541 11.0325C32.3144 11.0787 31.5751 11.1003 30.86 11.1199C30.8379 11.3274 30.8159 11.5446 30.7969 11.7302C30.9648 11.9156 31.1308 12.1061 31.3044 12.2961H31.5556C31.6213 12.2109 31.6799 12.1477 31.7436 12.0866C31.9558 12.0619 32.1684 12.0425 32.3585 12.0425C32.5465 12.1062 32.715 12.1694 32.8882 12.2109C33.076 12.1914 33.2472 12.1694 33.4153 12.1477C34.2792 12.7164 34.2792 12.7164 34.9115 12.9893C35.8192 13.1772 36.7296 13.3482 37.6182 13.5167C38.4797 13.7685 39.3489 14.017 40.1902 14.2514C40.8935 14.3562 41.5887 14.4567 42.2625 14.5611C42.6846 14.7101 43.1069 14.8591 43.5294 14.9833C44.6662 15.1934 45.7912 15.4056 46.9072 15.6132C49.4695 15.85 51.9955 16.0575 54.5338 16.2651V16.6458H51.9297C51.7195 16.58 51.5342 16.5142 51.344 16.4552C47.1827 16.3699 47.1827 16.3699 45.5963 16.4746C41.376 16.3282 41.3759 16.3282 36.4171 16.3281C36.0318 16.2233 35.6532 16.1206 35.2921 16.0378C32.1903 16.0157 32.1903 16.0157 29.2347 15.8497C28.3876 15.9911 27.5626 16.1204 26.74 16.2452H23.66C21.8415 16.3448 20.0261 16.4548 18.2296 16.56C17.7027 16.6453 17.1776 16.728 16.6681 16.7866C15.8892 16.7064 15.1008 16.6211 14.3271 16.56C13.18 16.5794 12.0428 16.5794 10.9225 16.5793C9.99505 16.4356 9.08473 16.2863 8.1768 16.1593C7.4424 16.1202 6.70028 16.0739 5.98008 16.0374C5.47511 15.9079 2.412 15.9517 0.957738 15.8227C0.874471 15.9079 0.786691 15.9716 0.703857 16.0373V16.982C1.22829 17.7992 1.76048 18.617 2.28748 19.4318C2.45598 19.5396 2.62182 19.6274 2.77555 19.7077C4.42098 19.6274 6.04124 19.5664 7.67164 19.4956C8.49394 19.6005 9.29954 19.7077 10.1002 19.8125C11.3058 19.8568 12.509 19.8983 13.6852 19.9204C15.5301 19.791 17.363 19.6862 19.2009 19.581C21.1023 19.7299 23.0059 19.8739 24.9046 20.0013C27.8603 20.0013 27.8603 20.0013 30.3327 19.8128C42.6845 19.9208 42.6841 19.9208 48.7448 19.8131C49.8671 19.938 50.9823 20.0427 52.1028 20.1502C53.1179 20.1085 54.1308 20.0891 55.1198 20.0675C55.2296 22.3543 55.3338 24.6238 55.4389 26.8889C55.588 27.018 55.7344 27.1454 55.8834 27.2718C56.5565 27.1454 57.2302 27.018 57.8915 26.8889C58.0552 26.8077 58.2063 26.7226 58.3552 26.6421C59.959 26.2812 61.5429 25.9488 63.1275 25.6144C65.7026 24.7503 65.7026 24.7503 68.6154 23.9329C69.4014 23.4919 69.4014 23.4919 70.8951 22.3544C71.1329 21.81 71.3417 21.2856 71.5523 20.7582C71.5523 20.3824 71.5524 20.3824 71.3418 19.8576C71.1959 19.7306 71.0447 19.6013 70.9175 19.4964C70.2214 19.2473 69.5458 18.9961 68.8702 18.7665C60.8699 18.7837 60.8699 18.7837 55.8445 18.9521C55.7346 18.6789 55.7345 18.6789 55.693 17.6927C56.855 17.6291 58.0139 17.5685 59.1563 17.5047C59.4734 17.4194 59.7883 17.3559 60.1057 17.2946L64.1208 17.2948C64.9431 17.2121 65.7435 17.1438 66.5465 17.0826C75.3735 17.1685 76.538 17.2759 82.0031 17.4001C84.0138 17.3171 86.0185 17.2345 88.0044 17.1688C89.1004 17.2345 90.196 17.276 91.2748 17.3173C93.8524 17.254 96.4316 17.2125 98.9822 17.1689C111.337 17.1027 111.337 17.1027 114.654 17.2127C116.997 17.1295 119.344 17.0395 121.663 16.9836C121.751 16.8978 121.812 16.8347 121.875 16.769C121.812 16.7079 121.751 16.6636 121.707 16.6221Z" fill="#E8E8E8" stroke="#E8E8E8" stroke-width="1.33342" stroke-miterlimit="10"/>
<path d="M7.10637 43.844V37.4242L4.79293 42.5157H4.02155L1.67243 37.4242V43.844H0.770508V35.3958H1.67243L4.42507 41.3883L7.10637 35.3958H8.00835V43.844H7.10637Z" fill="#E8E8E8" stroke="#E8E8E8" stroke-width="1.33342" stroke-miterlimit="10"/>
<path d="M13.985 43.8438V43.1913C13.5696 43.6662 12.9882 43.916 12.3357 43.916C11.707 43.916 11.1847 43.7255 10.8289 43.3689C10.4137 42.966 10.2356 42.4075 10.2356 41.7318V38.0057H11.0898V41.6018C11.0898 42.634 11.6358 43.1565 12.5136 43.1565C13.3917 43.1565 13.9731 42.6211 13.9731 41.6018V38.0057H14.8275V43.8438H13.985Z" fill="#E8E8E8" stroke="#E8E8E8" stroke-width="1.33342" stroke-miterlimit="10"/>
<path d="M18.8002 43.916C17.8155 43.916 17.0443 43.6894 16.4037 43.073L16.9733 42.5027C17.4359 42.9892 18.0646 43.1797 18.7887 43.1797C19.7495 43.1797 20.3427 42.8348 20.3427 42.1476C20.3427 41.6379 20.0462 41.3521 19.3697 41.293L18.4089 41.2105C17.27 41.1153 16.6647 40.6057 16.6647 39.643C16.6647 38.576 17.5662 37.9349 18.8122 37.9349C19.6427 37.9349 20.3904 38.1371 20.9123 38.5643L20.3546 39.1216C19.9393 38.8012 19.4055 38.6597 18.8002 38.6597C17.946 38.6597 17.4952 39.0265 17.4952 39.6198C17.4952 40.1192 17.7799 40.4152 18.5155 40.4744L19.4528 40.5567C20.4734 40.652 21.1732 41.0433 21.1732 42.1348C21.1732 43.2622 20.2121 43.916 18.8002 43.916Z" fill="#E8E8E8" stroke="#E8E8E8" stroke-width="1.33342" stroke-miterlimit="10"/>
<path d="M26.2851 39.5374C26.0599 39.0034 25.5375 38.6597 24.9207 38.6597C24.3037 38.6597 23.7818 39.0034 23.5562 39.5374C23.4259 39.8566 23.402 40.0355 23.3783 40.5104H26.4634C26.4395 40.0355 26.4156 39.8566 26.2851 39.5374ZM23.3783 41.1514C23.3783 42.432 23.9834 43.1669 25.0988 43.1669C25.7751 43.1669 26.1667 42.9661 26.6293 42.5028L27.2108 43.0125C26.6174 43.6071 26.0718 43.9161 25.0749 43.9161C23.5327 43.9161 22.5239 42.9893 22.5239 40.925C22.5239 39.0381 23.4374 37.9351 24.9207 37.9351C26.4276 37.9351 27.3176 39.0265 27.3176 40.7589V41.1514H23.3783Z" fill="#E8E8E8" stroke="#E8E8E8" stroke-width="1.33342" stroke-miterlimit="10"/>
<path d="M32.8207 43.8438V43.1913C32.4053 43.6662 31.8239 43.916 31.1714 43.916C30.5427 43.916 30.0204 43.7255 29.6646 43.3689C29.2492 42.966 29.0713 42.4075 29.0713 41.7318V38.0057H29.9255V41.6018C29.9255 42.634 30.4715 43.1565 31.3493 43.1565C32.2274 43.1565 32.8088 42.6211 32.8088 41.6018V38.0057H33.6632V43.8438H32.8207Z" fill="#E8E8E8" stroke="#E8E8E8" stroke-width="1.33342" stroke-miterlimit="10"/>
<path d="M42.9978 36.7367C42.6301 36.3571 42.0959 36.1319 41.5383 36.1319C40.9807 36.1319 40.4468 36.3571 40.0792 36.7367C39.5451 37.2825 39.4858 37.8513 39.4858 39.6198C39.4858 41.3882 39.5451 41.957 40.0792 42.5027C40.4468 42.8837 40.9807 43.1077 41.5383 43.1077C42.0959 43.1077 42.6301 42.8837 42.9978 42.5027C43.5317 41.957 43.5912 41.3882 43.5912 39.6198C43.5912 37.8513 43.5317 37.2825 42.9978 36.7367ZM43.698 43.0369C43.1284 43.6071 42.3811 43.916 41.5383 43.916C40.6959 43.916 39.9485 43.6071 39.3789 43.0369C38.5842 42.2428 38.5842 41.4113 38.5842 39.6198C38.5842 37.8281 38.5842 36.998 39.3789 36.2026C39.9485 35.6325 40.6959 35.3248 41.5383 35.3248C42.3811 35.3248 43.1284 35.6325 43.698 36.2026C44.4928 36.998 44.4927 37.8281 44.4927 39.6198C44.4927 41.4113 44.4928 42.2428 43.698 43.0369Z" fill="#E8E8E8" stroke="#E8E8E8" stroke-width="1.33342" stroke-miterlimit="10"/>
<path d="M48.2989 43.916C47.3142 43.916 46.543 43.6894 45.9023 43.073L46.472 42.5027C46.9346 42.9892 47.5633 43.1797 48.2874 43.1797C49.248 43.1797 49.8414 42.8348 49.8414 42.1476C49.8414 41.6379 49.5447 41.3521 48.8684 41.293L47.9076 41.2105C46.7686 41.1153 46.1634 40.6057 46.1634 39.643C46.1634 38.576 47.0649 37.9349 48.3108 37.9349C49.1413 37.9349 49.8891 38.1371 50.411 38.5643L49.8533 39.1216C49.438 38.8012 48.9042 38.6597 48.2989 38.6597C47.4446 38.6597 46.9939 39.0265 46.9939 39.6198C46.9939 40.1192 47.2786 40.4152 48.0141 40.4744L48.9515 40.5567C49.9721 40.652 50.6718 41.0433 50.6718 42.1348C50.6718 43.2622 49.7108 43.916 48.2989 43.916Z" fill="#E8E8E8" stroke="#E8E8E8" stroke-width="1.33342" stroke-miterlimit="10"/>
<path d="M54.6094 43.916C53.1379 43.916 52.0227 42.9184 52.0227 40.9248C52.0227 38.9325 53.1379 37.9349 54.6094 37.9349C55.416 37.9349 55.9264 38.1487 56.5316 38.8012L55.9502 39.3469C55.5109 38.8604 55.167 38.6944 54.6094 38.6944C54.0399 38.6944 53.5652 38.9196 53.2567 39.3597C52.9838 39.7382 52.8771 40.1886 52.8771 40.9248C52.8771 41.6611 52.9838 42.1115 53.2567 42.4912C53.5652 42.9301 54.0399 43.1567 54.6094 43.1567C55.167 43.1567 55.5109 42.9777 55.9502 42.4912L56.5316 43.0485C55.9264 43.7023 55.416 43.916 54.6094 43.916Z" fill="#E8E8E8" stroke="#E8E8E8" stroke-width="1.33342" stroke-miterlimit="10"/>
<path d="M61.3232 41.1514H59.6858C58.8076 41.1514 58.3807 41.5066 58.3807 42.1836C58.3807 42.8593 58.7961 43.1798 59.7215 43.1798C60.2195 43.1798 60.6588 43.1438 61.0265 42.7885C61.2283 42.598 61.3232 42.2659 61.3232 41.7794V41.1514ZM61.3232 43.844V43.2853C60.8487 43.7615 60.4213 43.9159 59.6385 43.9159C58.8315 43.9159 58.3569 43.7615 57.9891 43.3805C57.7043 43.0962 57.5502 42.6573 57.5502 42.194C57.5502 41.1746 58.262 40.5104 59.567 40.5104H61.3232V39.9518C61.3232 39.0972 60.896 38.67 59.8283 38.67C59.0806 38.67 58.7009 38.8488 58.3569 39.3353L57.7755 38.8012C58.2977 38.1242 58.8907 37.9351 59.8399 37.9351C61.4062 37.9351 62.1774 38.6107 62.1774 39.881V43.844H61.3232Z" fill="#E8E8E8" stroke="#E8E8E8" stroke-width="1.33342" stroke-miterlimit="10"/>
<path d="M67.5146 39.1217C67.1945 38.8012 66.957 38.6945 66.5063 38.6945C65.6519 38.6945 65.1063 39.3701 65.1063 40.2608V43.8439H64.252V38.0058H65.1063V38.7189C65.4264 38.2324 66.0673 37.9351 66.7437 37.9351C67.3014 37.9351 67.7284 38.0651 68.1437 38.4808L67.5146 39.1217Z" fill="#E8E8E8" stroke="#E8E8E8" stroke-width="1.33342" stroke-miterlimit="10"/>
<path d="M77.7393 43.844L73.2546 37.0689V43.844H72.3528V35.3958H73.207L77.692 42.1476V35.3958H78.5937V43.844H77.7393Z" fill="#E8E8E8" stroke="#E8E8E8" stroke-width="1.33342" stroke-miterlimit="10"/>
<path d="M80.881 38.0057H81.7352V43.8438H80.881V38.0057ZM80.8334 35.384H81.7944V36.3455H80.8334V35.384Z" fill="#E8E8E8" stroke="#E8E8E8" stroke-width="1.33342" stroke-miterlimit="10"/>
<path d="M87.3231 39.5374C87.0976 39.0034 86.5754 38.6597 85.9586 38.6597C85.3414 38.6597 84.8195 39.0034 84.594 39.5374C84.4637 39.8566 84.4399 40.0355 84.416 40.5104H87.501C87.4773 40.0355 87.4534 39.8566 87.3231 39.5374ZM84.416 41.1514C84.416 42.432 85.0213 43.1669 86.1365 43.1669C86.8128 43.1669 87.2044 42.9661 87.6671 42.5028L88.2486 43.0125C87.6552 43.6071 87.1095 43.9161 86.1128 43.9161C84.5702 43.9161 83.5618 42.9893 83.5618 40.925C83.5618 39.0381 84.4755 37.9351 85.9586 37.9351C87.4654 37.9351 88.3554 39.0265 88.3554 40.7589V41.1514H84.416Z" fill="#E8E8E8" stroke="#E8E8E8" stroke-width="1.33342" stroke-miterlimit="10"/>
<path d="M97.6673 43.8439V40.248C97.6673 39.2157 97.1096 38.6945 96.2315 38.6945C95.3772 38.6945 94.772 39.2286 94.772 40.154V43.8439H93.9178V40.248C93.9178 39.2157 93.3601 38.6945 92.482 38.6945C91.6042 38.6945 91.0228 39.2286 91.0228 40.248V43.8439H90.1686V38.0058H91.0228V38.6468C91.4378 38.1731 92.0194 37.9351 92.6718 37.9351C93.4789 37.9351 94.1076 38.2671 94.4638 38.908C94.9145 38.2671 95.5671 37.9351 96.3856 37.9351C97.0147 37.9351 97.5367 38.1371 97.8925 38.4808C98.3079 38.8836 98.5215 39.4294 98.5215 40.1064V43.8439H97.6673Z" fill="#E8E8E8" stroke="#E8E8E8" stroke-width="1.33342" stroke-miterlimit="10"/>
<path d="M104.036 39.5374C103.81 39.0034 103.288 38.6597 102.671 38.6597C102.054 38.6597 101.532 39.0034 101.306 39.5374C101.176 39.8566 101.152 40.0355 101.128 40.5104H104.213C104.19 40.0355 104.166 39.8566 104.036 39.5374ZM101.128 41.1514C101.128 42.432 101.734 43.1669 102.849 43.1669C103.525 43.1669 103.917 42.9661 104.38 42.5028L104.961 43.0125C104.368 43.6071 103.822 43.9161 102.825 43.9161C101.283 43.9161 100.274 42.9893 100.274 40.925C100.274 39.0381 101.188 37.9351 102.671 37.9351C104.178 37.9351 105.068 39.0265 105.068 40.7589V41.1514H101.128Z" fill="#E8E8E8" stroke="#E8E8E8" stroke-width="1.33342" stroke-miterlimit="10"/>
<path d="M108.21 45.2557C108.091 45.5763 107.961 45.7898 107.795 45.9443C107.486 46.2404 107.071 46.3471 106.656 46.3471H106.288V45.5878H106.549C107.142 45.5878 107.32 45.3987 107.51 44.8644L107.925 43.7255L105.825 38.0057H106.751L108.352 42.6932L109.942 38.0057H110.868L108.21 45.2557Z" fill="#E8E8E8" stroke="#E8E8E8" stroke-width="1.33342" stroke-miterlimit="10"/>
<path d="M115.387 39.5374C115.162 39.0034 114.639 38.6597 114.022 38.6597C113.405 38.6597 112.883 39.0034 112.658 39.5374C112.528 39.8566 112.504 40.0355 112.48 40.5104H115.565C115.541 40.0355 115.517 39.8566 115.387 39.5374ZM112.48 41.1514C112.48 42.432 113.085 43.1669 114.2 43.1669C114.877 43.1669 115.268 42.9661 115.731 42.5028L116.312 43.0125C115.719 43.6071 115.173 43.9161 114.177 43.9161C112.634 43.9161 111.626 42.9893 111.626 40.925C111.626 39.0381 112.539 37.9351 114.022 37.9351C115.529 37.9351 116.419 39.0265 116.419 40.7589V41.1514H112.48Z" fill="#E8E8E8" stroke="#E8E8E8" stroke-width="1.33342" stroke-miterlimit="10"/>
<path d="M121.495 39.1217C121.175 38.8012 120.937 38.6945 120.487 38.6945C119.632 38.6945 119.087 39.3701 119.087 40.2608V43.8439H118.232V38.0058H119.087V38.7189C119.407 38.2324 120.048 37.9351 120.724 37.9351C121.282 37.9351 121.709 38.0651 122.124 38.4808L121.495 39.1217Z" fill="#E8E8E8" stroke="#E8E8E8" stroke-width="1.33342" stroke-miterlimit="10"/>
</svg>
