<svg width="116" height="40" viewBox="0 0 116 40" fill="none" xmlns="http://www.w3.org/2000/svg">
<path d="M33.658 31.646H1.08374V0.693481H33.658V31.646Z" fill="#E8E8E8" stroke="#7D2525" stroke-width="1.18148" stroke-miterlimit="10"/>
<path d="M7.61817 7.40482H1.01025V6.5238H7.61817V7.40482Z" fill="#7D2525"/>
<path d="M7.61817 5.92414H1.01025V5.04297H7.61817V5.92414Z" fill="#7D2525"/>
<path d="M7.61817 10.3416H1.01025V9.46045H7.61817V10.3416Z" fill="#7D2525"/>
<path d="M7.61817 8.86098H1.01025V7.97986H7.61817V8.86098Z" fill="#7D2525"/>
<path fill-rule="evenodd" clip-rule="evenodd" d="M8.18481 7.82385H41.2415V39.1998H8.18481V7.82385Z" fill="black"/>
<path fill-rule="evenodd" clip-rule="evenodd" d="M8.4104 8.04968H41.0155V38.9741H8.4104V8.04968Z" fill="#E8E8E8"/>
<path fill-rule="evenodd" clip-rule="evenodd" d="M27.2617 13.9712C27.781 13.7174 28.3543 13.5022 29.0238 13.3326C32.7763 12.381 36.2308 13.9948 35.9303 17.2673C35.6627 20.1799 34.4279 22.5251 32.6958 24.5557C31.0046 26.5385 28.9032 28.1464 26.7869 29.7689C26.8684 29.6514 26.9562 29.5172 27.0432 29.3658C28.2367 27.1786 29.1038 24.8768 29.7197 22.6137C30.3235 20.3951 30.6871 18.2453 30.901 16.2738C31.232 13.5384 28.9892 13.1301 27.2617 13.9712ZM20.092 35.9365C18.6218 32.0856 16.6049 29.8737 15.235 27.7681C14.0078 25.8815 13.2479 24.0013 13.8327 20.9172C14.2487 18.7239 16.3576 16.5504 18.5987 15.9806C20.1192 15.5941 20.8918 16.0447 21.8605 16.6598C22.1304 16.8313 22.5384 16.857 22.9829 16.7574C23.6734 16.6035 24.3951 16.1794 25.0331 15.6622C23.7898 17.1497 22.1388 17.7155 20.955 17.2106C18.9188 16.4111 17.1227 17.3882 16.7939 19.1299C16.5474 20.7715 16.4428 22.5039 16.5232 24.2418C16.6073 26.0635 16.8977 27.9259 17.4582 29.7241C17.8688 31.117 19.1386 31.3281 19.5283 29.889C19.6505 29.2989 19.6975 28.8788 19.7784 28.2559C19.9664 26.8062 20.1278 25.3478 20.6453 24.153C21.7095 21.5133 22.9627 22.3274 23.3175 24.8395C23.698 27.5328 23.0539 32.1756 20.092 35.9365Z" fill="#7D2525"/>
<path fill-rule="evenodd" clip-rule="evenodd" d="M45.6548 24.5364H114.774V25.1641H45.6548V24.5364Z" fill="#E8E8E8"/>
<path fill-rule="evenodd" clip-rule="evenodd" d="M95.0996 19.4005C95.0996 18.9661 95.1821 18.5549 95.3456 18.1655C95.5091 17.7762 95.7493 17.4259 96.066 17.1137C96.3655 16.8187 96.6984 16.595 97.0645 16.4437C97.4304 16.2912 97.824 16.2158 98.2451 16.2158C98.6762 16.2158 99.0771 16.2912 99.446 16.4437C99.8149 16.595 100.152 16.8216 100.457 17.1225C100.771 17.4319 101.007 17.7777 101.165 18.1612C101.323 18.5448 101.402 18.9573 101.402 19.4005C101.402 19.8393 101.334 20.2446 101.198 20.615C101.064 20.9856 100.86 21.3183 100.589 21.6133C100.269 21.9605 99.912 22.2206 99.5184 22.3964C99.1233 22.5722 98.6966 22.6607 98.2363 22.6607C97.772 22.6607 97.3453 22.5708 96.9545 22.392C96.5624 22.2133 96.2108 21.9488 95.9012 21.5959C95.638 21.3039 95.4382 20.9712 95.3035 20.5976C95.1675 20.2257 95.0996 19.8262 95.0996 19.4005ZM96.0328 19.4092C96.0328 19.7318 96.0864 20.0382 96.1934 20.326C96.3005 20.6137 96.4554 20.8635 96.6565 21.0728C96.8677 21.2951 97.1122 21.4664 97.3887 21.5886C97.665 21.7107 97.9486 21.7715 98.2363 21.7715C98.8744 21.7715 99.4084 21.5436 99.8381 21.0887C100.268 20.6326 100.482 20.0674 100.482 19.3917C100.482 19.1056 100.43 18.8309 100.327 18.5723C100.224 18.3122 100.074 18.0725 99.8757 17.8546C99.6413 17.6017 99.391 17.4158 99.1233 17.2952C98.8571 17.1746 98.5605 17.1137 98.2363 17.1137C97.9456 17.1137 97.6678 17.1688 97.4059 17.2793C97.1425 17.3897 96.9096 17.5511 96.7072 17.7602C96.4945 17.9796 96.3295 18.2337 96.2108 18.5229C96.0922 18.812 96.0328 19.107 96.0328 19.4092ZM92.1519 22.5374H91.2577V17.1731H90.1045V16.3392H93.3048V17.1731H92.1519V22.5374ZM84.1298 22.5374H83.2358V16.3392H84.1559L87.1871 21.0307L87.145 16.3392H88.0261V22.5374H87.1697L84.0706 17.7064L84.1298 22.5374ZM74.6511 19.4005C74.6511 18.9661 74.7336 18.5549 74.8971 18.1655C75.0604 17.7762 75.3011 17.4253 75.6175 17.1137C75.9163 16.8193 76.2498 16.595 76.6159 16.4437C76.9818 16.2912 77.3755 16.2158 77.7966 16.2158C78.2276 16.2158 78.6284 16.2912 78.9974 16.4437C79.3664 16.595 79.704 16.8222 80.0086 17.1225C80.3221 17.4314 80.5585 17.7777 80.7161 18.1612C80.8739 18.5448 80.9534 18.9573 80.9534 19.4005C80.9534 19.8393 80.8855 20.2446 80.7494 20.615C80.6149 20.9856 80.4108 21.3183 80.1403 21.6133C79.8206 21.9605 79.4633 22.2206 79.0697 22.3964C78.6746 22.5722 78.2478 22.6607 77.7878 22.6607C77.3233 22.6607 76.8966 22.5708 76.506 22.392C76.1138 22.2133 75.7623 21.9488 75.4525 21.5959C75.1893 21.3039 74.9897 20.9712 74.855 20.5976C74.719 20.2257 74.6511 19.8262 74.6511 19.4005ZM75.5842 19.4092C75.5842 19.7318 75.6384 20.0389 75.7449 20.326C75.8513 20.613 76.0068 20.8635 76.2079 21.0728C76.4191 21.2951 76.6636 21.4664 76.9399 21.5886C77.2163 21.7107 77.4998 21.7715 77.7878 21.7715C78.4259 21.7715 78.9599 21.5436 79.3894 21.0887C79.8193 20.6326 80.0333 20.0674 80.0333 19.3917C80.0333 19.1056 79.9813 18.8309 79.8786 18.5723C79.7757 18.3122 79.6253 18.0725 79.4272 17.8546C79.1928 17.6017 78.9424 17.4158 78.6746 17.2952C78.4085 17.1746 78.1118 17.1137 77.7878 17.1137C77.497 17.1137 77.2191 17.1688 76.9573 17.2793C76.6939 17.3897 76.461 17.5511 76.2584 17.7602C76.0457 17.9796 75.8802 18.2345 75.7623 18.5229C75.6442 18.8115 75.5842 19.107 75.5842 19.4092ZM69.284 22.5374H67.5492V16.3392H69.5373C70.4647 16.3392 71.2134 16.6278 71.7828 17.2037C72.3505 17.7781 72.6365 18.5316 72.6365 19.4601C72.6365 19.9874 72.5293 20.4684 72.3166 20.9028C72.1026 21.3371 71.7959 21.699 71.3951 21.9882C71.123 22.1843 70.8336 22.3252 70.5255 22.4095C70.2172 22.4951 69.8017 22.5374 69.284 22.5374ZM68.4188 21.7077H69.504C70.1911 21.7077 70.7339 21.5071 71.1331 21.1048C71.5339 20.7039 71.7335 20.1575 71.7335 19.4688C71.7335 18.7524 71.5223 18.1946 71.0985 17.7907C70.6744 17.3884 70.0853 17.1864 69.339 17.1864H68.4188V21.7077ZM59.0066 19.4005C59.0066 18.9661 59.0891 18.5549 59.2524 18.1655C59.4159 17.7762 59.6571 17.4249 59.973 17.1137C60.2714 16.8196 60.6053 16.595 60.9715 16.4437C61.3374 16.2912 61.731 16.2158 62.1521 16.2158C62.5832 16.2158 62.9838 16.2912 63.3528 16.4437C63.7219 16.595 64.06 16.8226 64.3642 17.1225C64.6771 17.4309 64.9141 17.7777 65.0718 18.1612C65.2294 18.5448 65.3091 18.9573 65.3091 19.4005C65.3091 19.8393 65.241 20.2446 65.105 20.615C64.9704 20.9856 64.7666 21.3183 64.4958 21.6133C64.1761 21.9605 63.8188 22.2206 63.4252 22.3964C63.0301 22.5722 62.6034 22.6607 62.1433 22.6607C61.679 22.6607 61.2521 22.5708 60.8613 22.392C60.4693 22.2133 60.1178 21.9488 59.808 21.5959C59.5448 21.3039 59.3452 20.9712 59.2105 20.5976C59.0745 20.2257 59.0066 19.8262 59.0066 19.4005ZM59.9398 19.4092C59.9398 19.7318 59.9943 20.0394 60.1004 20.326C60.2063 20.6127 60.3623 20.8635 60.5635 21.0728C60.7747 21.2951 61.0192 21.4664 61.2955 21.5886C61.5718 21.7107 61.8554 21.7715 62.1433 21.7715C62.7814 21.7715 63.3152 21.5436 63.7451 21.0887C64.1748 20.6326 64.3888 20.0674 64.3888 19.3917C64.3888 19.1056 64.3367 18.8309 64.2341 18.5723C64.1313 18.3122 63.9808 18.0725 63.7827 17.8546C63.5483 17.6017 63.298 17.4158 63.0301 17.2952C62.7641 17.1746 62.4674 17.1137 62.1433 17.1137C61.8526 17.1137 61.5747 17.1688 61.3127 17.2793C61.0495 17.3897 60.8166 17.5511 60.614 17.7602C60.4013 17.9796 60.2354 18.2349 60.1178 18.5229C60.0002 18.811 59.9398 19.107 59.9398 19.4092Z" fill="#E8E8E8"/>
<path fill-rule="evenodd" clip-rule="evenodd" d="M109.128 27.2438H114.375L114.982 29.0397L114.574 29.2017C114.473 28.9077 114.363 28.6771 114.241 28.5085C114.121 28.3413 113.977 28.1977 113.808 28.0807C113.641 27.9638 113.472 27.8852 113.299 27.8452C113.129 27.8067 112.814 27.7867 112.372 27.7867H110.808V30.2876H111.586C111.872 30.2876 112.09 30.2376 112.235 30.1339C112.382 30.032 112.483 29.9034 112.538 29.7497C112.582 29.6361 112.603 29.4373 112.603 29.1532V29.0397H113.056V32.035H112.603V31.776C112.603 31.5471 112.587 31.3836 112.556 31.2817C112.522 31.1814 112.459 31.0818 112.377 30.996C112.293 30.9085 112.197 30.8439 112.097 30.8121C111.996 30.7788 111.82 30.7637 111.586 30.7637H110.808V32.9857C110.808 33.2107 110.818 33.3581 110.838 33.4083C110.857 33.4585 110.891 33.4951 110.938 33.5186C110.984 33.5418 111.11 33.5519 111.317 33.5519H112.284C112.824 33.5519 113.246 33.4835 113.549 33.3465C113.854 33.2095 114.121 32.9991 114.353 32.715C114.535 32.4945 114.709 32.1805 114.876 31.776L115.296 31.9331L114.574 34.0716H109.128V33.6606H109.312C109.529 33.6606 109.663 33.6455 109.715 33.6172C109.796 33.5738 109.857 33.5052 109.9 33.4101C109.932 33.345 109.947 33.2027 109.947 32.9857V28.2863C109.947 28.0741 109.927 27.9319 109.887 27.8602C109.846 27.7883 109.777 27.7332 109.679 27.6948C109.627 27.6714 109.442 27.6598 109.128 27.6598V27.2438ZM106.961 27.2438H107.295L107.882 29.5191L107.453 29.6477C107.221 29.1215 107.045 28.769 106.925 28.5901C106.728 28.2995 106.481 28.069 106.186 27.9002C105.892 27.7298 105.567 27.6447 105.213 27.6447C104.796 27.6447 104.412 27.7631 104.063 28.0005C103.712 28.236 103.428 28.5835 103.211 29.0397C102.993 29.4974 102.884 30.0103 102.884 30.5815C102.884 31.1698 102.995 31.6926 103.215 32.1538C103.436 32.6131 103.734 32.9673 104.11 33.2145C104.488 33.4633 104.892 33.587 105.328 33.587C105.739 33.587 106.157 33.4633 106.587 33.2145C107.015 32.9673 107.388 32.6197 107.702 32.1721L108.072 32.441C107.881 32.7417 107.674 32.9956 107.453 33.2044C107.1 33.5418 106.736 33.7893 106.355 33.9495C105.976 34.1082 105.559 34.1885 105.105 34.1885C104.102 34.1885 103.289 33.796 102.662 33.0091C102.143 32.3575 101.884 31.5806 101.884 30.6802C101.884 30.0169 102.028 29.4171 102.316 28.8808C102.602 28.3446 102.998 27.9169 103.502 27.6013C104.006 27.2837 104.551 27.1268 105.134 27.1268C105.445 27.1268 105.734 27.1719 106.001 27.2605C106.268 27.3506 106.538 27.4943 106.813 27.6948L106.961 27.2438ZM94.6739 27.2438H96.6548L99.5929 32.3643V28.4665C99.5929 28.236 99.5709 28.069 99.5282 27.9687C99.4854 27.8669 99.4188 27.7878 99.3339 27.7383C99.249 27.6884 99.115 27.6598 98.9501 27.6598H98.7827V27.2438H100.945V27.6598H100.828C100.641 27.6598 100.508 27.6765 100.44 27.7081C100.345 27.7549 100.272 27.8385 100.225 27.9588C100.177 28.0791 100.154 28.2537 100.154 28.4665V34.0716H99.5929L96.0528 27.9187V32.7935C96.0528 33.0599 96.0608 33.2295 96.0766 33.288C96.097 33.3632 96.1366 33.4317 96.1935 33.4935C96.2503 33.5553 96.3183 33.5988 96.3957 33.6205C96.4714 33.6439 96.6278 33.6573 96.8632 33.6606V34.0716H94.6739V33.6606H94.7891C95.0118 33.6606 95.1641 33.6351 95.241 33.5922C95.318 33.5491 95.3799 33.4684 95.4227 33.3564C95.4669 33.2463 95.4874 33.0591 95.4874 32.7935V28.4665C95.4874 28.196 95.4827 28.0323 95.4701 27.9737C95.4416 27.8619 95.3879 27.7817 95.3105 27.7332C95.2315 27.6846 95.0711 27.6598 94.8399 27.6598H94.6739V27.2438ZM87.0057 27.2438H92.2535L92.8599 29.0397L92.4524 29.2017C92.3513 28.9077 92.2409 28.6771 92.1191 28.5085C91.9992 28.3413 91.8554 28.1977 91.6863 28.0807C91.5189 27.9638 91.3498 27.8852 91.1776 27.8452C91.007 27.8067 90.6936 27.7867 90.2503 27.7867H88.6865V30.2876H89.4637C89.7497 30.2876 89.9677 30.2376 90.1131 30.1339C90.2599 30.032 90.3611 29.9034 90.4163 29.7497C90.4606 29.6361 90.481 29.4373 90.481 29.1532V29.0397H90.9345V32.035H90.481V31.776C90.481 31.5471 90.4652 31.3836 90.4337 31.2817C90.4006 31.1814 90.3384 31.0825 90.2551 30.996C90.1701 30.9077 90.075 30.8439 89.9754 30.8121C89.8744 30.7788 89.7 30.7637 89.4637 30.7637H88.6865V32.9857C88.6865 33.2122 88.6959 33.3581 88.7164 33.4083C88.7355 33.4585 88.7686 33.4951 88.816 33.5186C88.8617 33.5418 88.9881 33.5519 89.1952 33.5519H90.162C90.7021 33.5519 91.1238 33.4835 91.4273 33.3465C91.7321 33.2095 91.9992 32.9991 92.2314 32.715C92.413 32.4945 92.5868 32.1805 92.7542 31.776L93.1743 31.9331L92.4524 34.0716H87.0057V33.6606H87.1906C87.4071 33.6606 87.5413 33.6455 87.5935 33.6172C87.674 33.5738 87.7356 33.5052 87.7783 33.4101C87.8098 33.345 87.8255 33.2027 87.8255 32.9857V28.2863C87.8255 28.0741 87.805 27.9319 87.7656 27.8602C87.7245 27.7883 87.6551 27.7332 87.557 27.6948C87.505 27.6714 87.3202 27.6598 87.0057 27.6598V27.2438ZM80.8073 27.2438H83.311V27.6598H83.0804C82.9053 27.6598 82.7755 27.6782 82.7012 27.7131C82.627 27.7501 82.5734 27.8017 82.5384 27.8701C82.5053 27.9388 82.488 28.0643 82.488 28.2378V32.9991C82.488 33.2143 82.4958 33.3482 82.5117 33.3917C82.5291 33.4501 82.5702 33.4918 82.6316 33.5186C82.6744 33.5385 82.7991 33.5486 83.0062 33.5486H83.3536C83.7517 33.5486 84.0961 33.4868 84.3898 33.3649C84.6837 33.2413 84.9364 33.0642 85.1482 32.8303C85.3614 32.5981 85.5667 32.2489 85.7643 31.7862L86.1764 31.9331L85.4547 34.0716H80.8073V33.6606H81.011C81.2085 33.6606 81.3412 33.6422 81.4091 33.6071C81.477 33.5703 81.5292 33.5118 81.5669 33.4283C81.6034 33.345 81.6223 33.2012 81.6223 32.9991V28.3547C81.6223 28.1192 81.6049 27.9619 81.5718 27.8819C81.537 27.8034 81.4881 27.7449 81.4232 27.7115C81.3585 27.6765 81.2178 27.6598 81.011 27.6598H80.8073V27.2438ZM74.6275 27.2438H77.1315V27.6598H76.9007C76.7253 27.6598 76.5959 27.6782 76.5216 27.7131C76.4474 27.7501 76.3938 27.8017 76.3588 27.8701C76.3257 27.9388 76.3083 28.0638 76.3083 28.2378V32.9991C76.3083 33.2147 76.3162 33.3482 76.3322 33.3917C76.3495 33.4501 76.3906 33.4918 76.4521 33.5186C76.4948 33.5385 76.6196 33.5486 76.8265 33.5486H77.1741C77.5721 33.5486 77.9165 33.4868 78.2103 33.3649C78.5041 33.2413 78.7569 33.0642 78.9686 32.8303C79.1818 32.5981 79.387 32.2489 79.5847 31.7862L79.9968 31.9331L79.2751 34.0716H74.6275V33.6606H74.8313C75.0289 33.6606 75.1616 33.6422 75.2295 33.6071C75.2974 33.5703 75.3496 33.5118 75.3874 33.4283C75.4237 33.345 75.4428 33.2012 75.4428 32.9991V28.3547C75.4428 28.1192 75.4254 27.9619 75.3922 27.8819C75.3574 27.8034 75.3084 27.7449 75.2436 27.7115C75.179 27.6765 75.0385 27.6598 74.8313 27.6598H74.6275V27.2438ZM67.3296 27.2438H72.5772L73.1838 29.0397L72.7763 29.2017C72.6753 28.9077 72.5648 28.6771 72.443 28.5085C72.3231 28.3413 72.1793 28.1977 72.0101 28.0807C71.8428 27.9638 71.6737 27.8852 71.5016 27.8452C71.3309 27.8067 71.0189 27.7867 70.5742 27.7867H69.0104V30.2876H69.7876C70.0736 30.2876 70.2916 30.2376 70.4369 30.1339C70.5838 30.032 70.6849 29.9034 70.7402 29.7497C70.7844 29.6361 70.8049 29.4373 70.8049 29.1532V29.0397H71.2582V32.035H70.8049V31.776C70.8049 31.5471 70.7891 31.3836 70.7576 31.2817C70.7244 31.1814 70.663 31.0831 70.579 30.996C70.4935 30.907 70.399 30.8439 70.2995 30.8121C70.1983 30.7788 70.025 30.7637 69.7876 30.7637H69.0104V32.9857C69.0104 33.2135 69.02 33.3581 69.0404 33.4083C69.0594 33.4585 69.0926 33.4951 69.1399 33.5186C69.1858 33.5418 69.3122 33.5519 69.519 33.5519H70.4859C71.0261 33.5519 71.4477 33.4835 71.751 33.3465C72.056 33.2095 72.323 32.9991 72.5553 32.715C72.7368 32.4945 72.9107 32.1805 73.0781 31.776L73.4982 31.9331L72.7763 34.0716H67.3296V33.6606H67.5145C67.7308 33.6606 67.8652 33.6455 67.9174 33.6172C67.9979 33.5738 68.0595 33.5052 68.1023 33.4101C68.1337 33.345 68.1497 33.2027 68.1497 32.9857V28.2863C68.1497 28.0741 68.1289 27.9319 68.0895 27.8602C68.0484 27.7883 67.9788 27.7332 67.8809 27.6948C67.8289 27.6714 67.644 27.6598 67.3296 27.6598V27.2438ZM64.965 27.2438H65.2983L65.8859 29.5191L65.4563 29.6477C65.2241 29.1215 65.0488 28.769 64.9287 28.5901C64.7313 28.2995 64.4849 28.069 64.1893 27.9002C63.8955 27.7298 63.5702 27.6447 63.2163 27.6447C62.7991 27.6447 62.4155 27.7631 62.0665 28.0005C61.7156 28.236 61.4313 28.5835 61.215 29.0397C60.9968 29.4974 60.8878 30.0103 60.8878 30.5815C60.8878 31.1698 60.9985 31.6926 61.218 32.1538C61.4391 32.6131 61.7378 32.9673 62.1136 33.2145C62.4912 33.4633 62.8956 33.587 63.3316 33.587C63.7423 33.587 64.1609 33.4633 64.5906 33.2145C65.0187 32.9673 65.3916 32.6197 65.7059 32.1721L66.0754 32.441C65.8844 32.7417 65.6775 32.9956 65.4563 33.2044C65.104 33.5418 64.739 33.7893 64.3584 33.9495C63.9793 34.1082 63.5624 34.1885 63.109 34.1885C62.1057 34.1885 61.2922 33.796 60.6652 33.0091C60.147 32.3575 59.8879 31.5806 59.8879 30.6802C59.8879 30.0169 60.0317 29.4171 60.3191 28.8808C60.6052 28.3446 61.0016 27.9169 61.5055 27.6013C62.0094 27.2837 62.5543 27.1268 63.1374 27.1268C63.4485 27.1268 63.7376 27.1719 64.0045 27.2605C64.2715 27.3506 64.5417 27.4943 64.8166 27.6948L64.965 27.2438ZM52.7594 27.2438H55.2269V27.6598H55.0328C54.8491 27.6598 54.7294 27.673 54.6804 27.6997C54.6314 27.7249 54.6062 27.7683 54.6062 27.8269C54.6062 27.8652 54.6163 27.9059 54.6345 27.9437C54.6531 27.9817 54.7089 28.0673 54.8005 28.1977L56.0088 29.9401L57.3278 28.1977C57.4512 28.0355 57.5128 27.9102 57.5128 27.8269C57.5128 27.7733 57.489 27.7332 57.4416 27.703C57.3927 27.6748 57.2922 27.6598 57.1385 27.6598H56.9016V27.2438H58.9993V27.6598C58.748 27.6598 58.5696 27.6881 58.459 27.7433C58.3501 27.7984 58.1983 27.9505 58.004 28.1977L56.3186 30.3377L58.3042 33.0926C58.4306 33.2698 58.5379 33.3934 58.6232 33.4669C58.7102 33.5403 58.7939 33.5905 58.8729 33.6187C58.9534 33.6472 59.0862 33.6606 59.271 33.6606V34.0716H56.7957V33.6606H56.9898C57.181 33.6606 57.3033 33.6467 57.3532 33.6187C57.4032 33.591 57.429 33.5469 57.429 33.4835C57.429 33.4484 57.4212 33.4101 57.4022 33.3715C57.3959 33.3548 57.3343 33.263 57.2174 33.0926L55.7405 31.0076L54.126 33.156C54.0264 33.2831 53.9712 33.3616 53.9585 33.3917C53.9396 33.4267 53.9316 33.4618 53.9316 33.4935C53.9316 33.5553 53.9664 33.6021 54.0375 33.6304C54.0832 33.6507 54.1938 33.6606 54.3661 33.6606H54.5603V34.0716H52.469V33.6606C52.66 33.6606 52.7997 33.6467 52.8875 33.6187C52.9755 33.591 53.0644 33.5418 53.1529 33.4701C53.2428 33.3982 53.3566 33.2713 53.4958 33.0926L55.4449 30.6117L53.7136 28.1977C53.5415 27.9572 53.3992 27.8067 53.2904 27.7482C53.1797 27.6899 53.0045 27.6598 52.7594 27.6598V27.2438ZM45.7896 27.2438H51.0371L51.6437 29.0397L51.2362 29.2017C51.1352 28.9077 51.0245 28.6771 50.9029 28.5085C50.7828 28.3413 50.6391 28.1977 50.47 28.0807C50.3027 27.9638 50.1336 27.8852 49.9615 27.8452C49.7909 27.8067 49.4812 27.7867 49.0341 27.7867H47.4703V30.2876H48.2476C48.5335 30.2876 48.7515 30.2376 48.8968 30.1339C49.0437 30.032 49.1448 29.9034 49.2001 29.7497C49.2443 29.6361 49.2647 29.4373 49.2647 29.1532V29.0397H49.7181V32.035H49.2647V31.776C49.2647 31.5471 49.2489 31.3836 49.2175 31.2817C49.1843 31.1814 49.1243 31.0844 49.0389 30.996C48.9521 30.9057 48.8588 30.8439 48.7593 30.8121C48.6582 30.7788 48.4876 30.7637 48.2476 30.7637H47.4703V32.9857C47.4703 33.2161 47.4797 33.3581 47.5003 33.4083C47.5193 33.4585 47.5524 33.4951 47.5998 33.5186C47.6455 33.5418 47.772 33.5519 47.9789 33.5519H48.9456C49.4858 33.5519 49.9077 33.4835 50.211 33.3465C50.5158 33.2095 50.7828 32.9991 51.015 32.715C51.1966 32.4945 51.3704 32.1805 51.5379 31.776L51.9582 31.9331L51.2362 34.0716H45.7896V33.6606H45.9744C46.1908 33.6606 46.3249 33.6455 46.3773 33.6172C46.4576 33.5738 46.5194 33.5052 46.562 33.4101C46.5937 33.345 46.6094 33.2027 46.6094 32.9857V28.2863C46.6094 28.0741 46.5888 27.9319 46.5494 27.8602C46.5083 27.7883 46.4387 27.7332 46.3408 27.6948C46.2886 27.6714 46.1039 27.6598 45.7896 27.6598V27.2438Z" fill="#E8E8E8"/>
</svg>
