<svg width="63" height="62" viewBox="0 0 63 62" fill="none" xmlns="http://www.w3.org/2000/svg">
<path d="M31.4367 61.8933C48.528 61.8933 62.3833 48.038 62.3833 30.9467C62.3833 13.8553 48.528 0 31.4367 0C14.3453 0 0.48999 13.8553 0.48999 30.9467C0.48999 48.038 14.3453 61.8933 31.4367 61.8933Z" fill="#E8E8E8"/>
<path d="M37.5994 34.3651C40.247 35.1883 37.9718 38.0174 36.4181 38.1977C35.2948 38.3282 34.5204 37.9249 34.7225 36.7131C34.9625 35.2745 36.4682 34.0134 37.5994 34.3651Z" fill="#7D2525"/>
<path d="M59.5321 18.0447L61.0757 22.642C59.821 23.9451 55.9278 33.9324 53.9485 36.4882C52.4101 38.4748 47.797 39.0636 45.4564 38.7904C44.3905 38.6157 43.2369 37.7184 42.84 36.6358C41.2923 31.2375 49.058 22.6896 54.5444 22.7666C56.6569 22.7962 56.553 24.008 57.563 22.0121C57.8386 21.4674 59.0227 19.1568 59.5321 18.0447Z" fill="#7D2525"/>
<path d="M2.16284 40.3589L3.94591 45.3173C3.59221 44.3754 5.58335 41.1194 6.05628 40.0959C6.68935 38.7259 6.46887 38.2648 8.04227 38.4917C12.9681 39.202 17.0797 35.6075 19.456 31.642C22.7034 26.223 21.4766 21.6064 14.6169 22.9324C10.6379 23.7015 10.0153 24.9989 8.15321 28.4109C7.32964 29.92 2.52801 39.9484 2.16284 40.3589Z" fill="#7D2525"/>
<path d="M26.0616 30.4351C27.2037 28.0135 27.9659 25.5738 31.1218 25.5996C33.7193 25.6209 31.9188 28.0636 31.3357 29.2632C29.9651 32.0684 28.5846 34.7645 27.3039 37.6075C26.8666 38.5781 26.7812 38.4662 28.4642 38.4664C30.9929 38.4666 30.3818 38.7336 31.4494 36.7607C32.0869 35.5827 32.6274 34.2463 33.2066 33.0241C34.0525 31.3121 36.8829 26.4042 36.7213 24.879C36.3958 21.808 32.2872 22.8145 30.3041 23.7027C29.4053 24.1052 29.3856 24.1356 30.0595 22.7175C30.3789 22.0452 32.5539 17.7697 32.4091 17.4596C32.2116 17.0361 29.248 16.249 28.418 17.9863C25.7197 23.6061 22.8902 29.0706 20.2126 34.7325C19.9759 35.2331 18.3064 38.0731 18.518 38.4103C18.6175 38.5689 21.8974 38.574 22.0992 38.3048C22.2975 38.0404 22.3657 37.961 22.4639 37.6573C22.3761 37.7537 25.0887 32.4748 26.0616 30.4351Z" fill="#7D2525"/>
<path d="M40.4908 41.1914C40.2825 41.0734 39.9562 40.9692 39.5813 40.9692C38.7759 40.9692 38.2551 41.4761 38.2551 42.1148C38.2551 42.5592 38.5537 42.9411 39.2341 43.2118C39.6923 43.4063 39.852 43.5659 39.852 43.8575C39.852 44.1492 39.6437 44.3574 39.2133 44.3574C38.887 44.3574 38.5329 44.2185 38.3385 44.1006L38.158 44.6976C38.4148 44.8504 38.7967 44.9545 39.1994 44.9545C40.0673 44.9545 40.6296 44.5171 40.6296 43.7812C40.6296 43.2257 40.2964 42.8785 39.6646 42.6217C39.1994 42.4203 39.0258 42.2884 39.0258 42.0246C39.0258 41.7677 39.2203 41.5594 39.5813 41.5594C39.8937 41.5594 40.1575 41.6775 40.3103 41.7746L40.4908 41.1914Z" fill="#7D2525"/>
<path d="M41.3865 41.0526C41.4004 41.3928 41.4142 41.7885 41.4142 42.2884V46.4265H42.2197V44.4269H42.2335C42.421 44.7393 42.7959 44.9545 43.2542 44.9545C44.0595 44.9545 44.8718 44.3227 44.8718 42.9203C44.8718 41.733 44.2261 40.9693 43.3652 41.0526C42.5691 41.0526 42.5995 41.0526 41.3865 41.0526Z" fill="#7D2525"/>
<path d="M47.2253 40.9692C46.2117 40.9692 45.4202 41.6983 45.4202 42.9896C45.4202 44.2255 46.1769 44.9545 47.1697 44.9545C48.0307 44.9545 48.9611 44.3644 48.9611 42.9341C48.9611 41.7608 48.2737 40.9692 47.2253 40.9692Z" fill="#7D2525"/>
<path d="M51.6829 40.9901C51.6134 40.9762 51.5579 40.9692 51.4815 40.9692C51.0649 40.9692 50.6623 41.2678 50.4887 41.7538H50.4609L50.4331 41.0526H49.7319C49.7528 41.4067 49.7597 41.7746 49.7597 42.219V44.8782H50.5651V42.8508C50.5651 42.1842 50.9053 41.7399 51.4468 41.7399C51.537 41.7399 51.6134 41.7469 51.6829 41.7608V40.9901Z" fill="#7D2525"/>
<path d="M52.4673 41.0526H51.9258V41.6566H52.4673V43.6354C52.4673 44.1353 52.5575 44.4547 52.752 44.663C52.9185 44.8504 53.1894 44.9545 53.5088 44.9545C53.7795 44.9545 53.9947 44.9198 54.1335 44.8643L54.1058 44.2463C54.0087 44.2742 53.9114 44.295 53.7517 44.295C53.4115 44.295 53.2657 44.0658 53.2657 43.5937V41.6566H54.1753V41.0526H53.2657V40.1084L52.4673 40.3583V41.0526Z" fill="#7D2525"/>
<path d="M56.9527 41.1914C56.7444 41.0734 56.4181 40.9692 56.0432 40.9692C55.2378 40.9692 54.717 41.4761 54.717 42.1148C54.717 42.5592 55.0156 42.9411 55.696 43.2118C56.1542 43.4063 56.3139 43.5659 56.3139 43.8575C56.3139 44.1492 56.1056 44.3574 55.6752 44.3574C55.3489 44.3574 54.9948 44.2185 54.8004 44.1006L54.6199 44.6976C54.8767 44.8504 55.2586 44.9545 55.6613 44.9545C56.5292 44.9545 57.0915 44.5171 57.0915 43.7812C57.0915 43.2257 56.7582 42.8785 56.1264 42.6217C55.6613 42.4203 55.4877 42.2884 55.4877 42.0246C55.4877 41.7677 55.6821 41.5594 56.0432 41.5594C56.3556 41.5594 56.6194 41.6775 56.7722 41.7746L56.9527 41.1914Z" fill="#7D2525"/>
<path fill-rule="evenodd" clip-rule="evenodd" d="M26.5157 17.3363C24.3477 17.2781 22.1796 17.2199 20.0117 17.1618C24.6749 10.6349 29.6605 6.20302 35.0067 4.11599C38.0153 2.94152 40.7618 2.26829 43.6278 4.19325C44.315 4.65489 45.05 5.16189 45.6069 5.97129C46.8633 7.81345 49.1178 12.2871 49.7109 14.2785C49.7753 14.8118 50.1285 15.8711 50.1929 16.4044C50.2718 16.9023 50.0031 17.3363 49.2144 17.3363C48.2394 17.3363 47.2644 17.3363 46.2894 17.3363C51.2105 2.27558 36.2016 6.23678 26.5157 17.3363ZM31.2148 41.1463C33.3828 41.2045 35.5508 41.2628 37.7188 41.3209C33.0555 47.8477 28.07 52.2796 22.7238 54.3667C19.7152 55.5411 16.9687 56.2144 14.1027 54.2894C13.4155 53.8278 12.6805 53.3208 12.1236 52.5114C10.8672 50.6692 8.61265 46.1956 8.01955 44.2041C7.95521 43.6709 7.60195 42.6115 7.53762 42.0782C7.45865 41.5803 7.72744 41.1463 8.51611 41.1463C9.49111 41.1463 10.4661 41.1463 11.4411 41.1463C6.51999 56.207 21.5289 52.2459 31.2148 41.1463Z" fill="#7D2525"/>
<path d="M42.2161 41.681C42.2161 42.4019 42.2161 43.1228 42.2161 43.8437C43.2086 44.8687 44.1349 44.2779 44.2233 43.1455C44.335 41.717 43.3747 41.4986 42.2161 41.681Z" fill="#E8E8E8"/>
<path d="M48.1349 42.9549C48.1349 43.7186 47.7738 44.3504 47.1906 44.3504C46.6004 44.3504 46.2463 43.7186 46.2463 42.9688C46.2463 42.3092 46.5102 41.5732 47.1975 41.5732C47.871 41.5732 48.1349 42.323 48.1349 42.9549Z" fill="#E8E8E8"/>
<path d="M46.8835 34.305C47.3477 37.7288 50.1281 36.3421 51.3236 34.102C51.8255 33.1617 55.7055 25.7186 55.3534 25.4128C54.3577 24.5479 52.4604 25.4729 51.6138 26.0757C49.0195 27.9224 47.0304 31.1066 46.8835 34.305Z" fill="#E8E8E8"/>
<path d="M10.5742 36.142C13.527 35.0905 15.6373 31.9496 16.7356 29.1489C18.1825 24.6076 14.7188 24.566 13.6135 25.8253C12.7444 26.8155 8.62575 34.6834 8.67699 35.7165C8.72892 36.7647 9.97584 36.2874 10.5742 36.142Z" fill="#E8E8E8"/>
</svg>
